<?xml version="1.0" encoding="UTF-8"?>
<svg width="102px" height="164px" viewBox="0 0 102 164" version="1.1" xmlns="http://www.w3.org/2000/svg" xmlns:xlink="http://www.w3.org/1999/xlink">
    <!-- Generator: Sketch 41.2 (35397) - http://www.bohemiancoding.com/sketch -->
    <title>Page 1</title>
    <desc>Created with Sketch.</desc>
    <defs></defs>
    <g id="ТЕСТ" stroke="none" stroke-width="1" fill="none" fill-rule="evenodd">
        <g id="ТОРГОВЛЯ_Продовольств,-есть-акцизн.---Mobile-Portrait" transform="translate(-150.000000, -81.000000)">
            <rect id="Rectangle" fill="#FFD54F" x="0" y="60" width="322" height="184"></rect>
            <g id="Page-1" transform="translate(150.000000, 81.000000)">
                <polygon id="Fill-1" fill="#D0011B" points="74.6410647 57.82848 74.6410647 54.42688 74.6410647 51.02528 71.248376 51.02528 71.248376 54.42688 71.248376 57.82848 67.8548895 57.82848 67.8548895 61.23008 67.8548895 64.63168 67.8548895 68.03328 67.8548895 71.43488 67.8548895 74.83728 67.8548895 78.23808 67.8548895 81.64128 71.248376 81.64128 74.6410647 81.64128 78.0337533 81.64128 78.0337533 78.23808 78.0337533 74.83728 78.0337533 71.43488 78.0337533 68.03328 78.0337533 64.63168 78.0337533 61.23008 78.0337533 57.82848"></polygon>
                <polygon id="Fill-2" fill="#8DC85E" points="98.3902042 61.23008 94.9967177 61.23008 91.6048269 61.23008 91.604029 61.23008 88.2121383 61.23008 84.8194497 61.23008 84.8194497 64.63168 88.2121383 64.63168 88.2121383 68.03328 91.604029 68.03328 91.604029 71.43488 91.604029 74.83728 91.604029 78.23808 88.2121383 78.23808 88.2121383 81.64048 91.604029 81.64048 91.6048269 81.64048 94.9967177 81.64048 98.3902042 81.64048 98.3902042 78.23808 94.9967177 78.23808 94.9967177 74.83728 94.9967177 71.43488 94.9967177 68.03328 98.3902042 68.03328 98.3902042 64.63168 101.782893 64.63168 101.782893 61.23008"></polygon>
                <polygon id="Fill-3" fill="#828386" points="98.3902042 81.64064 94.9967177 81.64064 91.6048269 81.64064 91.604029 81.64064 88.2121383 81.64064 84.8194497 81.64064 81.4259632 81.64064 78.0340725 81.64064 74.6405859 81.64064 71.2478973 81.64064 67.8560066 81.64064 67.8552087 81.64064 64.4625201 81.64064 61.0698314 81.64064 57.6771428 81.64064 57.6771428 85.04224 61.0698314 85.04224 64.4625201 85.04224 67.8552087 85.04224 67.8560066 85.04224 71.2478973 85.04224 74.6405859 85.04224 78.0340725 85.04224 81.4259632 85.04224 84.8194497 85.04224 88.2121383 85.04224 91.604029 85.04224 91.6048269 85.04224 94.9967177 85.04224 98.3902042 85.04224 101.782893 85.04224 101.782893 81.64064"></polygon>
                <polygon id="Fill-4" fill="#4990E2" points="44.1059894 57.82848 44.1059894 61.23008 40.7133007 61.23008 40.7133007 64.63168 37.32141 64.63168 37.32141 68.03328 37.32141 71.43488 37.32141 74.83728 37.32141 78.23808 37.32141 81.64128 37.32141 85.04208 37.32141 88.44448 37.32141 91.84528 37.32141 95.24688 40.7133007 95.24688 40.7133007 98.64848 44.1059894 98.64848 44.1059894 102.05008 47.498678 102.05008 47.498678 98.64848 47.498678 95.24688 47.498678 91.84528 47.498678 88.44448 47.498678 85.04208 47.498678 81.64128 47.498678 78.23808 47.498678 74.83728 47.498678 71.43488 47.498678 68.03328 47.498678 64.63168 47.498678 61.23008 47.498678 57.82848"></polygon>
                <polygon id="Fill-5" fill="#4990E2" points="16.9640016 61.23 13.5721109 61.23 13.5721109 57.8284 10.1794223 57.8284 10.1794223 61.23 10.1794223 64.6316 10.1794223 68.0332 10.1794223 71.4348 10.1794223 74.8372 10.1794223 78.238 10.1794223 81.6412 10.1794223 85.042 10.1794223 88.4444 10.1794223 91.846 10.1794223 95.2468 10.1794223 98.6484 10.1794223 102.05 13.5721109 102.05 13.5721109 98.6484 16.9640016 98.6484 16.9640016 95.2468 20.3566903 95.2468 20.3566903 91.846 20.3566903 88.4444 20.3566903 85.042 20.3566903 81.6412 20.3566903 78.238 20.3566903 74.8372 20.3566903 71.4348 20.3566903 68.0332 20.3566903 64.6316 16.9640016 64.6316"></polygon>
                <polygon id="Fill-6" fill="#384E7F" points="44.1059894 105.45192 40.7140987 105.45192 40.7133007 105.45192 37.32141 105.45192 33.9279235 105.45192 30.5352349 105.45192 27.1433442 105.45192 27.1417484 105.45192 23.7498576 105.45192 20.357169 105.45192 16.9636825 105.45192 13.5717918 105.45192 13.5709939 105.45192 10.1791031 105.45192 10.1791031 108.85352 10.1791031 112.25512 10.1791031 115.65672 10.1791031 119.05832 10.1791031 122.45992 10.1791031 125.86152 10.1791031 129.26392 10.1791031 132.66472 10.1791031 136.06792 10.1791031 139.46872 10.1791031 142.87032 10.1791031 146.27192 10.1791031 149.67352 10.1791031 153.07512 13.5709939 153.07512 13.5717918 153.07512 16.9636825 153.07512 20.357169 153.07512 23.7498576 153.07512 23.7498576 149.67352 23.7498576 146.27192 23.7498576 142.87032 23.7498576 139.46872 23.7498576 136.06792 23.7498576 132.66472 23.7498576 129.26392 23.7498576 125.86152 23.7498576 122.45992 23.7498576 119.05832 27.1417484 119.05832 27.1433442 119.05832 30.5352349 119.05832 33.9279235 119.05832 33.9279235 122.45992 33.9279235 125.86152 33.9279235 129.26392 33.9279235 132.66472 33.9279235 136.06792 33.9279235 139.46872 33.9279235 142.87032 33.9279235 146.27192 33.9279235 149.67352 33.9279235 153.07512 37.32141 153.07512 40.7133007 153.07512 40.7140987 153.07512 44.1059894 153.07512 47.498678 153.07512 47.498678 149.67352 47.498678 146.27192 47.498678 142.87032 47.498678 139.46872 47.498678 136.06792 47.498678 132.66472 47.498678 129.26392 47.498678 125.86152 47.498678 122.45992 47.498678 119.05832 47.498678 115.65672 47.498678 112.25512 47.498678 108.85352 47.498678 105.45192"></polygon>
                <path d="M33.9280831,44.22216 L30.5353945,44.22216 L27.1435037,44.22216 L27.1419079,44.22216 L23.7500172,44.22216 L20.3573286,44.22216 L20.3573286,40.82056 L23.7500172,40.82056 L27.1419079,40.82056 L27.1435037,40.82056 L30.5353945,40.82056 L33.9280831,40.82056 L37.3207717,40.82056 L37.3207717,44.22216 L33.9280831,44.22216 Z M37.3207717,27.21416 L37.3207717,30.61496 L33.9280831,30.61496 L33.9280831,27.21416 L33.9280831,23.81096 L37.3207717,23.81096 L37.3207717,27.21416 Z M20.3573286,23.81096 L23.7500172,23.81096 L23.7500172,27.21416 L23.7500172,30.61496 L20.3573286,30.61496 L20.3573286,27.21416 L20.3573286,23.81096 Z M13.5711534,40.82056 L13.5711534,44.22216 L13.5711534,47.62376 L16.9638421,47.62376 L20.3573286,47.62376 L23.7500172,47.62376 L23.7500172,51.02536 L27.1419079,51.02536 L27.1419079,54.42696 L30.5353945,54.42696 L30.5353945,51.02536 L33.9280831,51.02536 L33.9280831,47.62376 L37.3207717,47.62376 L40.7126624,47.62376 L40.7142582,47.62376 L44.106149,47.62376 L44.106149,44.22216 L44.106149,40.82056 L44.106149,37.41896 L47.4988376,37.41896 L47.4988376,34.01736 L47.4988376,30.61496 L47.4988376,27.21416 L44.106149,27.21416 L44.106149,23.81096 L44.106149,20.41016 L40.7142582,20.41016 L40.7142582,17.00776 L37.3207717,17.00776 L33.9280831,17.00776 L30.5353945,17.00776 L27.1435037,17.00776 L27.1419079,17.00776 L23.7500172,17.00776 L20.3573286,17.00776 L16.9638421,17.00776 L16.9638421,20.41016 L13.5711534,20.41016 L13.5711534,23.81096 L13.5711534,27.21416 L10.1792627,27.21416 L10.1792627,30.61496 L10.1792627,34.01736 L10.1792627,37.41896 L13.5711534,37.41896 L13.5711534,40.82056 Z" id="Fill-7" fill="#F8DFB3"></path>
                <polygon id="Fill-8" fill="#F8DFB3" points="57.6769832 85.04176 54.2850925 85.04176 54.2842946 85.04176 50.8924039 85.04176 47.4989174 85.04176 47.4989174 88.44416 47.4989174 91.84576 50.8924039 91.84576 54.2842946 91.84576 54.2850925 91.84576 57.6769832 91.84576 61.0696719 91.84576 64.4631584 91.84576 64.4631584 88.44416 64.4631584 85.04176 61.0696719 85.04176"></polygon>
                <polygon id="Fill-9" fill="#DDB478" points="30.5349955 40.82064 27.1431048 40.82064 27.1423069 40.82064 23.7504162 40.82064 20.3569296 40.82064 20.3569296 44.22224 23.7504162 44.22224 27.1423069 44.22224 27.1431048 44.22224 30.5349955 44.22224 33.9276841 44.22224 37.3211707 44.22224 37.3211707 40.82064 33.9276841 40.82064"></polygon>
                <polygon id="Fill-10" fill="#DDB478" points="67.8561662 91.8456 71.2480569 91.8456 71.2480569 88.444 71.2480569 85.0416 67.8561662 85.0416 67.8553683 85.0416 64.4634775 85.0416 64.4634775 88.444 64.4634775 91.8456 67.8553683 91.8456"></polygon>
                <polygon id="Fill-11" fill="#DDB478" points="3.39300778 102.05032 3.39300778 105.45192 3.39300778 108.85352 6.78569641 108.85352 10.1791829 108.85352 10.1791829 105.45192 10.1791829 102.05032 6.78569641 102.05032"></polygon>
                <polygon id="Fill-12" fill="#FEFEFE" points="40.7129816 54.42688 37.3210909 54.42688 37.3210909 51.02528 37.3210909 47.62368 33.9284022 47.62368 33.9284022 51.02528 30.5349157 51.02528 30.5349157 54.42688 27.143025 54.42688 27.143025 51.02528 23.7503364 51.02528 23.7503364 47.62368 20.3568499 47.62368 20.3568499 51.02528 20.3568499 54.42688 16.9641612 54.42688 16.9641612 51.02528 13.5706747 51.02528 13.5706747 54.42688 13.5706747 57.82848 13.5706747 61.23008 16.9641612 61.23008 16.9641612 64.63168 20.3568499 64.63168 20.3568499 68.03328 20.3568499 71.43488 20.3568499 74.83728 20.3568499 78.23808 20.3568499 81.64128 20.3568499 85.04208 20.3568499 88.44368 20.3568499 91.84528 20.3568499 95.24688 16.9641612 95.24688 16.9641612 98.64848 13.5706747 98.64848 13.5706747 102.05008 16.9641612 102.05008 20.3568499 102.05008 23.7503364 102.05008 27.1422271 102.05008 27.143025 102.05008 30.5349157 102.05008 33.9284022 102.05008 37.3210909 102.05008 40.7129816 102.05008 40.7137795 102.05008 44.1056702 102.05008 44.1056702 98.64848 40.7137795 98.64848 40.7137795 95.24688 37.3210909 95.24688 37.3210909 91.84528 37.3210909 88.44368 37.3210909 85.04208 37.3210909 81.64128 37.3210909 78.23808 37.3210909 74.83728 37.3210909 71.43488 37.3210909 68.03328 37.3210909 64.63168 40.7137795 64.63168 40.7137795 61.23008 44.1056702 61.23008 44.1056702 57.82848 44.1056702 54.42688 44.1056702 51.02528 40.7129816 51.02528"></polygon>
                <polygon id="Fill-13" fill="#FEFEFE" points="3.39300778 57.82848 3.39300778 61.23008 3.39300778 64.63168 3.39300778 68.03328 3.39300778 71.43488 3.39300778 74.83728 3.39300778 78.23808 3.39300778 81.64128 3.39300778 85.04208 3.39300778 88.44448 3.39300778 91.84528 3.39300778 95.24688 3.39300778 98.64848 3.39300778 102.05008 6.78569641 102.05008 10.1791829 102.05008 10.1791829 98.64848 10.1791829 95.24688 10.1791829 91.84528 10.1791829 88.44448 10.1791829 85.04208 10.1791829 81.64128 10.1791829 78.23808 10.1791829 74.83728 10.1791829 71.43488 10.1791829 68.03328 10.1791829 64.63168 10.1791829 61.23008 10.1791829 57.82848 6.78569641 57.82848"></polygon>
                <polygon id="Fill-14" fill="#FEFEFE" points="47.4990769 57.82848 47.4990769 61.23008 47.4990769 64.63168 47.4990769 68.03328 47.4990769 71.43488 47.4990769 74.83728 47.4990769 78.23808 47.4990769 81.64128 47.4990769 85.04208 50.8917656 85.04208 54.2852521 85.04208 54.2852521 81.64128 54.2852521 78.23808 54.2852521 74.83728 54.2852521 71.43488 54.2852521 68.03328 54.2852521 64.63168 54.2852521 61.23008 54.2852521 57.82848 50.8917656 57.82848"></polygon>
                <polygon id="Fill-15" fill="#000000" points="20.3570892 27.2144 20.3570892 30.6152 23.7497778 30.6152 23.7497778 27.2144 23.7497778 23.8112 20.3570892 23.8112"></polygon>
                <polygon id="Fill-16" fill="#000000" points="37.3210909 27.2144 37.3210909 23.8112 33.9284022 23.8112 33.9284022 27.2144 33.9284022 30.6152 37.3210909 30.6152"></polygon>
                <polygon id="Fill-17" fill="#221F20" points="13.5709141 0.00056 13.5709141 3.40216 10.1790234 3.40216 10.1790234 6.80296 6.78633473 6.80296 6.78633473 10.20536 6.78633473 13.60616 6.78633473 17.00856 6.78633473 20.41016 6.78633473 23.81096 6.78633473 27.21416 6.78633473 30.61496 6.78633473 34.01736 6.78633473 37.41896 6.78633473 40.82136 6.78633473 44.22216 10.1790234 44.22216 10.1790234 47.62376 10.1790234 51.02536 10.1790234 54.42696 6.78633473 54.42696 3.3928482 54.42696 0.000159580839 54.42696 0.000159580839 57.82856 0.000159580839 61.23016 0.000159580839 64.63096 0.000159580839 68.03336 0.000159580839 71.43496 0.000159580839 74.83736 0.000159580839 78.23816 0.000159580839 81.64056 0.000159580839 85.04216 0.000159580839 88.44376 0.000159580839 91.84616 0.000159580839 95.24696 0.000159580839 98.64856 0.000159580839 102.05016 0.000159580839 105.45176 0.000159580839 108.85336 0.000159580839 112.25496 3.3928482 112.25496 6.78633473 112.25496 6.78633473 115.65656 6.78633473 119.05816 6.78633473 122.45976 6.78633473 125.86136 6.78633473 129.26376 6.78633473 132.66376 6.78633473 136.06776 6.78633473 139.46856 6.78633473 142.87096 6.78633473 146.27256 6.78633473 149.67336 6.78633473 153.07576 3.3928482 153.07576 3.3928482 156.47656 0.000159580839 156.47656 0.000159580839 159.87896 0.000159580839 163.27976 3.3928482 163.27976 6.78633473 163.27976 10.1790234 163.27976 13.5709141 163.27976 13.5725099 163.27976 16.9644006 163.27976 20.3570892 163.27976 23.7505757 163.27976 27.1432644 163.27976 27.1432644 159.87896 27.1432644 156.47656 27.1432644 153.07576 27.1432644 149.67336 27.1432644 146.27256 27.1432644 142.87096 27.1432644 139.46856 27.1432644 136.06776 27.1432644 132.66376 27.1432644 129.26376 27.1432644 125.86136 27.1432644 122.45976 30.5351551 122.45976 30.5351551 125.86136 30.5351551 129.26376 30.5351551 132.66376 30.5351551 136.06776 30.5351551 139.46856 30.5351551 142.87096 30.5351551 146.27256 30.5351551 149.67336 30.5351551 153.07576 30.5351551 156.47656 30.5351551 159.87896 30.5351551 163.27976 33.9278437 163.27976 37.3213302 163.27976 40.7124231 163.27976 40.7140189 163.27976 44.1059096 163.27976 47.4985982 163.27976 50.8920847 163.27976 54.2839754 163.27976 54.2847734 163.27976 57.6766641 163.27976 57.6766641 159.87896 57.6766641 156.47656 54.2847734 156.47656 54.2847734 153.07576 50.8920847 153.07576 50.8920847 149.67336 50.8920847 146.27256 50.8920847 142.87096 50.8920847 139.46856 50.8920847 136.06776 50.8920847 132.66376 50.8920847 129.26376 50.8920847 125.86136 50.8920847 122.45976 50.8920847 119.05816 50.8920847 115.65656 50.8920847 112.25496 50.8920847 108.85336 50.8920847 105.45176 50.8920847 102.05016 50.8920847 98.64856 50.8920847 95.24696 54.2839754 95.24696 54.2847734 95.24696 57.6766641 95.24696 61.0701506 95.24696 64.4628392 95.24696 67.8555278 95.24696 67.8563257 95.24696 71.2474186 95.24696 74.6409051 95.24696 74.6409051 91.84616 74.6409051 88.44376 74.6409051 85.04216 71.2474186 85.04216 71.2474186 88.44376 71.2474186 91.84616 67.8563257 91.84616 67.8555278 91.84616 64.4628392 91.84616 61.0701506 91.84616 57.6766641 91.84616 54.2847734 91.84616 54.2839754 91.84616 50.8920847 91.84616 47.4985982 91.84616 47.4985982 95.24696 47.4985982 98.64856 47.4985982 102.05016 44.1059096 102.05016 40.7140189 102.05016 40.7124231 102.05016 37.3213302 102.05016 33.9278437 102.05016 30.5351551 102.05016 27.1432644 102.05016 27.1416686 102.05016 23.7505757 102.05016 20.3570892 102.05016 16.9644006 102.05016 13.5725099 102.05016 13.5709141 102.05016 10.1790234 102.05016 10.1790234 105.45176 13.5709141 105.45176 13.5725099 105.45176 16.9644006 105.45176 20.3570892 105.45176 23.7505757 105.45176 27.1416686 105.45176 27.1432644 105.45176 30.5351551 105.45176 33.9278437 105.45176 37.3213302 105.45176 40.7124231 105.45176 40.7140189 105.45176 44.1059096 105.45176 47.4985982 105.45176 47.4985982 108.85336 47.4985982 112.25496 47.4985982 115.65656 47.4985982 119.05816 47.4985982 122.45976 47.4985982 125.86136 47.4985982 129.26376 47.4985982 132.66376 47.4985982 136.06776 47.4985982 139.46856 47.4985982 142.87096 47.4985982 146.27256 47.4985982 149.67336 47.4985982 153.07576 44.1059096 153.07576 40.7140189 153.07576 40.7124231 153.07576 37.3213302 153.07576 33.9278437 153.07576 33.9278437 149.67336 33.9278437 146.27256 33.9278437 142.87096 33.9278437 139.46856 33.9278437 136.06776 33.9278437 132.66376 33.9278437 129.26376 33.9278437 125.86136 33.9278437 122.45976 33.9278437 119.05816 30.5351551 119.05816 27.1432644 119.05816 27.1416686 119.05816 23.7505757 119.05816 23.7505757 122.45976 23.7505757 125.86136 23.7505757 129.26376 23.7505757 132.66376 23.7505757 136.06776 23.7505757 139.46856 23.7505757 142.87096 23.7505757 146.27256 23.7505757 149.67336 23.7505757 153.07576 20.3570892 153.07576 16.9644006 153.07576 13.5725099 153.07576 13.5709141 153.07576 10.1790234 153.07576 10.1790234 149.67336 10.1790234 146.27256 10.1790234 142.87096 10.1790234 139.46856 10.1790234 136.06776 10.1790234 132.66376 10.1790234 129.26376 10.1790234 125.86136 10.1790234 122.45976 10.1790234 119.05816 10.1790234 115.65656 10.1790234 112.25496 10.1790234 108.85336 6.78633473 108.85336 3.3928482 108.85336 3.3928482 105.45176 3.3928482 102.05016 3.3928482 98.64856 3.3928482 95.24696 3.3928482 91.84616 3.3928482 88.44376 3.3928482 85.04216 3.3928482 81.64056 3.3928482 78.23816 3.3928482 74.83736 3.3928482 71.43496 3.3928482 68.03336 3.3928482 64.63096 3.3928482 61.23016 3.3928482 57.82856 6.78633473 57.82856 10.1790234 57.82856 13.5725099 57.82856 13.5725099 54.42696 13.5725099 51.02536 16.9644006 51.02536 16.9644006 54.42696 20.3570892 54.42696 20.3570892 51.02536 20.3570892 47.62376 16.9644006 47.62376 13.5725099 47.62376 13.5725099 44.22216 13.5725099 40.82136 13.5725099 37.41896 10.1790234 37.41896 10.1790234 34.01736 10.1790234 30.61496 10.1790234 27.21416 13.5725099 27.21416 13.5725099 23.81096 13.5725099 20.41016 16.9644006 20.41016 16.9644006 17.00856 20.3570892 17.00856 23.7505757 17.00856 27.1416686 17.00856 27.1432644 17.00856 30.5351551 17.00856 33.9278437 17.00856 37.3213302 17.00856 40.7124231 17.00856 40.7124231 20.41016 44.1059096 20.41016 44.1059096 23.81096 44.1059096 27.21416 47.4985982 27.21416 47.4985982 30.61496 47.4985982 34.01736 47.4985982 37.41896 44.1059096 37.41896 44.1059096 40.82136 44.1059096 44.22216 44.1059096 47.62376 40.7140189 47.62376 40.7124231 47.62376 37.3213302 47.62376 37.3213302 51.02536 37.3213302 54.42696 40.7140189 54.42696 40.7140189 51.02536 44.1059096 51.02536 44.1059096 54.42696 44.1059096 57.82856 47.4985982 57.82856 50.8920847 57.82856 54.2839754 57.82856 54.2839754 61.23016 54.2839754 64.63096 54.2839754 68.03336 54.2839754 71.43496 54.2839754 74.83736 54.2839754 78.23816 54.2839754 81.64056 54.2839754 85.04216 57.6766641 85.04216 57.6766641 81.64056 57.6766641 78.23816 57.6766641 74.83736 57.6766641 71.43496 57.6766641 68.03336 57.6766641 64.63096 57.6766641 61.23016 57.6766641 57.82856 57.6766641 54.42696 54.2847734 54.42696 54.2839754 54.42696 50.8920847 54.42696 47.4985982 54.42696 47.4985982 51.02536 47.4985982 47.62376 47.4985982 44.22216 50.8920847 44.22216 50.8920847 40.82136 50.8920847 37.41896 50.8920847 34.01736 50.8920847 30.61496 50.8920847 27.21416 50.8920847 23.81096 50.8920847 20.41016 50.8920847 17.00856 50.8920847 13.60616 50.8920847 10.20536 50.8920847 6.80296 47.4985982 6.80296 47.4985982 3.40216 44.1059096 3.40216 44.1059096 0.00056"></polygon>
            </g>
            <g id="Group-5" transform="translate(1.000000, 81.000000)"></g>
        </g>
    </g>
</svg>