<?xml version="1.0" encoding="UTF-8"?>
<svg width="103px" height="169px" viewBox="0 0 103 169" version="1.1" xmlns="http://www.w3.org/2000/svg" xmlns:xlink="http://www.w3.org/1999/xlink">
    <!-- Generator: Sketch 41.2 (35397) - http://www.bohemiancoding.com/sketch -->
    <title>Page 1</title>
    <desc>Created with Sketch.</desc>
    <defs></defs>
    <g id="ТЕСТ" stroke="none" stroke-width="1" fill="none" fill-rule="evenodd">
        <g id="Вопрос-для-всех" transform="translate(-148.000000, -75.000000)">
            <g id="Group-5" transform="translate(148.000000, 75.000000)">
                <g id="Page-1">
                    <path d="M99.2266594,69.24268 L95.8043234,69.24268 L92.3844016,69.24268 L88.9612609,69.24268 L85.5405344,69.24268 L85.5405344,72.6653324 L88.9612609,72.6653324 L92.3844016,72.6653324 L92.3844016,76.0863752 L92.3844016,79.5098324 L92.3844016,82.9300705 L92.3844016,86.3527229 L88.9612609,86.3527229 L85.5405344,86.3527229 L85.5405344,89.7745705 L88.9612609,89.7745705 L92.3844016,89.7745705 L95.8043234,89.7745705 L99.2266594,89.7745705 L102.648995,89.7745705 L102.648995,69.24268 L99.2266594,69.24268 Z M95.8043234,76.08718 L99.2266594,76.08718 L99.2266594,72.6653324 L95.8043234,72.6653324 L95.8043234,76.08718 Z M95.8043234,82.9308752 L99.2266594,82.9308752 L99.2266594,79.5098324 L95.8043234,79.5098324 L95.8043234,82.9308752 Z" id="Fill-1" fill="#56595C"></path>
                    <polygon id="Fill-2" fill="#56595C" points="88.9619852 82.930151 88.9619852 79.5091081 88.9619852 76.0864557 85.5404539 76.0864557 82.1197273 76.0864557 82.1189227 76.0864557 78.6973914 76.0864557 78.6973914 79.5091081 78.6973914 82.930151 82.1189227 82.930151 82.1197273 82.930151 85.5404539 82.930151"></polygon>
                    <polygon id="Fill-3" fill="#56595C" points="75.2759406 86.3528033 75.2759406 82.930151 75.2759406 79.5091081 75.2759406 76.0864557 75.2759406 72.6646081 78.6974719 72.6646081 82.1198078 72.6646081 82.1198078 69.2427605 78.6974719 69.2427605 75.2759406 69.2427605 71.8544094 69.2427605 71.8544094 72.6646081 71.8544094 76.0864557 71.8544094 79.5091081 71.8544094 82.930151 71.8544094 86.3528033 71.8544094 89.774651 75.2759406 89.774651 78.6974719 89.774651 82.1198078 89.774651 82.1198078 86.3528033 78.6974719 86.3528033"></polygon>
                    <polygon id="Fill-4" fill="#403C38" points="23.9520062 62.3985824 23.9520062 65.8212348 23.9520062 69.2430824 23.9520062 72.66493 23.9520062 76.0867776 23.9520062 79.50943 23.9520062 82.9304729 23.9520062 86.3531252 23.9520062 89.7749729 23.9520062 93.1968205 23.9520062 96.6178633 23.9520062 100.039711 23.9520062 103.461559 27.3743422 103.461559 27.3743422 100.039711 27.3743422 96.6178633 27.3743422 93.1968205 27.3743422 89.7749729 27.3743422 86.3531252 27.3743422 82.9304729 27.3743422 79.50943 27.3743422 76.0867776 27.3743422 72.66493 27.3743422 69.2430824 27.3743422 65.8212348 27.3743422 62.3985824"></polygon>
                    <polygon id="Fill-5" fill="#403C38" points="20.5307969 106.883648 23.9523281 106.883648 23.9523281 103.4618 20.5307969 103.4618"></polygon>
                    <polygon id="Fill-6" fill="#403C38" points="10.2662031 110.305495 13.6877344 110.305495 13.6877344 106.883648 10.2662031 106.883648"></polygon>
                    <polygon id="Fill-7" fill="#403C38" points="6.84467188 113.728148 10.2662031 113.728148 10.2662031 110.305495 6.84467188 110.305495"></polygon>
                    <polygon id="Fill-8" fill="#787A79" points="82.1197273 89.7745705 82.1189227 89.7745705 78.6973914 89.7745705 78.6973914 93.1964181 78.6973914 96.6182657 82.1189227 96.6182657 82.1197273 96.6182657 85.5404539 96.6182657 85.5404539 93.1964181 85.5404539 89.7745705"></polygon>
                    <polygon id="Fill-9" fill="#787A79" points="17.1090242 106.883648 17.1090242 110.305495 17.1090242 113.728148 20.5305555 113.728148 23.9520867 113.728148 23.9520867 110.305495 23.9520867 106.883648 20.5305555 106.883648"></polygon>
                    <path d="M51.3255438,14.4923938 L47.9032078,14.4923938 L44.4808719,14.4923938 L41.06095,14.4923938 L41.0593406,14.4923938 L37.6386141,14.4923938 L34.2162781,14.4923938 L30.7947469,14.4923938 L30.7947469,17.9142414 L27.3740203,17.9142414 L27.3740203,14.4923938 L30.7947469,14.4923938 L30.7947469,11.0705462 L34.2162781,11.0705462 L37.6386141,11.0705462 L41.0593406,11.0705462 L41.06095,11.0705462 L44.4808719,11.0705462 L47.9032078,11.0705462 L51.3255438,11.0705462 L54.7454656,11.0705462 L54.7454656,14.4923938 L51.3255438,14.4923938 Z M23.9516844,21.336089 L23.9516844,17.9142414 L27.3732156,17.9142414 L27.3732156,21.336089 L30.7947469,21.336089 L34.2162781,21.336089 L37.6386141,21.336089 L41.0593406,21.336089 L41.06095,21.336089 L44.4808719,21.336089 L47.9032078,21.336089 L51.3255438,21.336089 L54.7454656,21.336089 L54.747075,21.336089 L58.1678016,21.336089 L58.1678016,17.9142414 L54.747075,17.9142414 L54.747075,14.4923938 L58.1678016,14.4923938 L58.1678016,17.9142414 L61.5901375,17.9142414 L61.5901375,21.336089 L61.5901375,24.7587414 L65.0116688,24.7587414 L65.0116688,21.336089 L65.0116688,17.9142414 L65.0116688,14.4923938 L65.0116688,11.0705462 L61.5901375,11.0705462 L61.5901375,7.64789381 L58.1678016,7.64789381 L58.1678016,4.22685095 L54.747075,4.22685095 L54.7454656,4.22685095 L51.3255438,4.22685095 L47.9032078,4.22685095 L44.4808719,4.22685095 L41.06095,4.22685095 L41.0593406,4.22685095 L37.6386141,4.22685095 L34.2162781,4.22685095 L30.7947469,4.22685095 L27.3732156,4.22685095 L27.3732156,7.64789381 L23.9516844,7.64789381 L23.9516844,11.0705462 L20.5301531,11.0705462 L20.5301531,14.4923938 L20.5301531,17.9142414 L20.5301531,21.336089 L20.5301531,24.7587414 L23.9516844,24.7587414 L23.9516844,21.336089 Z" id="Fill-10" fill="#495FE2"></path>
                    <polygon id="Fill-11" fill="#4990E2" points="37.6384531 62.3988238 41.0607891 62.3988238 41.0607891 58.977781 37.6384531 58.977781"></polygon>
                    <polygon id="Fill-12" fill="#4990E2" points="44.4807109 62.3988238 47.9030469 62.3988238 47.9030469 58.977781 44.4807109 58.977781"></polygon>
                    <path d="M41.0607891,76.0862143 L44.4807109,76.0862143 L44.4807109,72.6643667 L41.0607891,72.6643667 L41.0607891,76.0862143 Z M41.0607891,96.6181048 L44.4807109,96.6181048 L44.4807109,93.1962571 L41.0607891,93.1962571 L41.0607891,96.6181048 Z M41.0607891,86.3525619 L44.4807109,86.3525619 L44.4807109,82.9299095 L41.0607891,82.9299095 L41.0607891,86.3525619 Z M75.2761016,89.7744095 L71.8545703,89.7744095 L68.4330391,89.7744095 L68.4330391,86.3525619 L68.4330391,82.9299095 L68.4330391,79.5088667 L68.4330391,76.0862143 L68.4330391,72.6643667 L68.4330391,69.2433238 L68.4330391,65.8214762 L68.4330391,62.3988238 L65.0115078,62.3988238 L61.5899766,62.3988238 L58.1676406,62.3988238 L58.1676406,58.977781 L58.1676406,55.5551286 L54.7453047,55.5551286 L54.7453047,58.977781 L51.3253828,58.977781 L51.3253828,62.3988238 L47.9030469,62.3988238 L47.9030469,65.8214762 L44.4807109,65.8214762 L41.0607891,65.8214762 L41.0591797,65.8214762 L37.6384531,65.8214762 L37.6384531,62.3988238 L34.2161172,62.3988238 L34.2161172,58.977781 L30.7953906,58.977781 L30.7953906,55.5551286 L27.3738594,55.5551286 L27.3738594,58.977781 L27.3738594,62.3988238 L27.3738594,65.8214762 L27.3738594,69.2433238 L27.3738594,72.6643667 L27.3738594,76.0862143 L27.3738594,79.5088667 L27.3738594,82.9299095 L27.3738594,86.3525619 L27.3738594,89.7744095 L27.3738594,93.1962571 L27.3738594,96.6181048 L27.3738594,100.039952 L27.3738594,103.4618 L23.9523281,103.4618 L23.9523281,106.883648 L27.3738594,106.883648 L27.3746641,106.883648 L30.7953906,106.883648 L34.2161172,106.883648 L37.6384531,106.883648 L41.0591797,106.883648 L41.0607891,106.883648 L44.4807109,106.883648 L47.9030469,106.883648 L51.3253828,106.883648 L54.7453047,106.883648 L54.7469141,106.883648 L58.1676406,106.883648 L61.5899766,106.883648 L61.5899766,103.4618 L61.5899766,100.039952 L61.5899766,96.6181048 L65.0115078,96.6181048 L68.4322344,96.6181048 L68.4330391,96.6181048 L71.8545703,96.6181048 L75.2761016,96.6181048 L78.6976328,96.6181048 L78.6976328,93.1962571 L78.6976328,89.7744095 L75.2761016,89.7744095 Z" id="Fill-13" fill="#FFFFFF"></path>
                    <polygon id="Fill-14" fill="#FFFFFF" points="23.9520062 96.6181852 23.9520062 93.1963376 23.9520062 89.77449 23.9520062 86.3526424 23.9520062 82.92999 23.9520062 79.5089471 23.9520062 76.0862948 23.9520062 72.6644471 23.9520062 69.2425995 23.9520062 65.8207519 23.9520062 62.3989043 20.530475 62.3989043 17.1089437 62.3989043 17.1089437 65.8207519 17.1089437 69.2425995 17.1089437 72.6644471 17.1089437 76.0862948 17.1089437 79.5089471 17.1089437 82.92999 17.1089437 86.3526424 17.1089437 89.77449 17.1089437 93.1963376 17.1089437 96.6181852 17.1089437 100.040033 17.1089437 103.46188 17.1089437 106.883728 20.530475 106.883728 20.530475 103.46188 23.9520062 103.46188 23.9520062 100.040033"></polygon>
                    <polygon id="Fill-15" fill="#1A237E" points="54.7469945 110.305415 54.7453852 110.305415 51.3254633 110.305415 47.9031273 110.305415 44.4807914 110.305415 41.0608695 110.305415 41.0592602 110.305415 37.6385336 110.305415 34.2161977 110.305415 30.7946664 110.305415 27.3739398 110.305415 27.3731352 110.305415 23.9516039 110.305415 23.9516039 113.728067 23.9516039 117.14911 23.9516039 120.571762 23.9516039 123.99361 23.9516039 127.415458 23.9516039 130.837305 23.9516039 134.259958 23.9516039 137.681 23.9516039 141.103653 23.9516039 144.524696 23.9516039 147.946543 23.9516039 151.368391 23.9516039 154.790239 23.9516039 158.212086 27.3731352 158.212086 27.3739398 158.212086 30.7946664 158.212086 34.2161977 158.212086 37.6385336 158.212086 37.6385336 154.790239 37.6385336 151.368391 37.6385336 147.946543 37.6385336 144.524696 37.6385336 141.103653 37.6385336 137.681 37.6385336 134.259958 37.6385336 130.837305 37.6385336 127.415458 37.6385336 123.99361 41.0592602 123.99361 41.0608695 123.99361 44.4807914 123.99361 47.9031273 123.99361 47.9031273 127.415458 47.9031273 130.837305 47.9031273 134.259958 47.9031273 137.681 47.9031273 141.103653 47.9031273 144.524696 47.9031273 147.946543 47.9031273 151.368391 47.9031273 154.790239 47.9031273 158.212086 51.3254633 158.212086 54.7453852 158.212086 54.7469945 158.212086 58.1677211 158.212086 61.590057 158.212086 61.590057 154.790239 61.590057 151.368391 61.590057 147.946543 61.590057 144.524696 61.590057 141.103653 61.590057 137.681 61.590057 134.259958 61.590057 130.837305 61.590057 127.415458 61.590057 123.99361 61.590057 120.571762 61.590057 117.14911 61.590057 113.728067 61.590057 110.305415 58.1677211 110.305415"></polygon>
                    <polygon id="Fill-16" fill="#D0C6B9" points="13.687493 117.14903 13.6866883 117.14903 10.2659617 117.14903 6.84443047 117.14903 6.84443047 120.571682 10.2659617 120.571682 10.2659617 123.99353 13.6866883 123.99353 13.6866883 127.415377 10.2659617 127.415377 10.2659617 123.99353 6.84443047 123.99353 6.84443047 120.571682 3.42209453 120.571682 3.42209453 123.99353 3.42209453 127.415377 3.42209453 130.837225 3.42209453 134.259877 3.42209453 137.68092 6.84443047 137.68092 6.84443047 141.103572 10.2659617 141.103572 10.2659617 144.52542 13.6866883 144.52542 13.687493 144.52542 17.1090242 144.52542 20.5305555 144.52542 20.5305555 141.103572 20.5305555 137.68092 20.5305555 134.259877 17.1090242 134.259877 17.1090242 130.837225 13.687493 130.837225 13.687493 127.415377 17.1090242 127.415377 17.1090242 130.837225 20.5305555 130.837225 20.5305555 127.415377 20.5305555 123.99353 20.5305555 120.571682 20.5305555 117.14903 17.1090242 117.14903"></polygon>
                    <path d="M47.9032078,48.7112724 L44.4808719,48.7112724 L41.06095,48.7112724 L41.0593406,48.7112724 L37.6386141,48.7112724 L34.2162781,48.7112724 L34.2162781,45.2894248 L37.6386141,45.2894248 L41.0593406,45.2894248 L41.06095,45.2894248 L44.4808719,45.2894248 L47.9032078,45.2894248 L51.3255437,45.2894248 L51.3255437,48.7112724 L47.9032078,48.7112724 Z M51.3255437,31.6020343 L51.3255437,35.0238819 L47.9032078,35.0238819 L47.9032078,31.6020343 L47.9032078,28.1793819 L51.3255437,28.1793819 L51.3255437,31.6020343 Z M34.2162781,28.1793819 L37.6386141,28.1793819 L37.6386141,31.6020343 L37.6386141,35.0238819 L34.2162781,35.0238819 L34.2162781,31.6020343 L34.2162781,28.1793819 Z M58.1678016,28.1793819 L58.1678016,24.758339 L54.747075,24.758339 L54.747075,21.3356867 L51.3255437,21.3356867 L47.9032078,21.3356867 L44.4808719,21.3356867 L41.06095,21.3356867 L41.0593406,21.3356867 L37.6386141,21.3356867 L34.2162781,21.3356867 L30.7947469,21.3356867 L30.7947469,24.758339 L27.3732156,24.758339 L27.3732156,28.1793819 L27.3732156,31.6020343 L23.9516844,31.6020343 L23.9516844,35.0238819 L23.9516844,38.4457295 L23.9516844,41.8675771 L27.3732156,41.8675771 L27.3732156,45.2894248 L27.3732156,48.7112724 L27.3732156,52.13312 L30.7947469,52.13312 L34.2162781,52.13312 L37.6386141,52.13312 L37.6386141,55.5549676 L41.0593406,55.5549676 L41.0593406,58.97762 L44.4808719,58.97762 L44.4808719,55.5549676 L47.9032078,55.5549676 L47.9032078,52.13312 L51.3255437,52.13312 L54.7454656,52.13312 L54.747075,52.13312 L58.1678016,52.13312 L58.1678016,48.7112724 L58.1678016,45.2894248 L58.1678016,41.8675771 L61.5901375,41.8675771 L61.5901375,38.4457295 L61.5901375,35.0238819 L61.5901375,31.6020343 L58.1678016,31.6020343 L58.1678016,28.1793819 Z" id="Fill-17" fill="#F8DFB3"></path>
                    <polygon id="Fill-18" fill="#DDB478" points="44.4809523 45.2895052 41.0610305 45.2895052 41.0594211 45.2895052 37.6386945 45.2895052 34.2163586 45.2895052 34.2163586 48.7113529 37.6386945 48.7113529 41.0594211 48.7113529 41.0610305 48.7113529 44.4809523 48.7113529 47.9032883 48.7113529 51.3256242 48.7113529 51.3256242 45.2895052 47.9032883 45.2895052"></polygon>
                    <polygon id="Fill-19" fill="#4990E2" points="47.9032078 55.5549676 44.4808719 55.5549676 44.4808719 58.97762 47.9032078 58.97762 51.3255438 58.97762 51.3255438 55.5549676 51.3255438 52.13312 47.9032078 52.13312"></polygon>
                    <polygon id="Fill-20" fill="#4990E2" points="41.0610305 55.5549676 37.6386945 55.5549676 37.6386945 52.13312 34.2163586 52.13312 34.2163586 55.5549676 34.2163586 58.97762 37.6386945 58.97762 41.0594211 58.97762 41.0594211 62.3986629 44.4809523 62.3986629 44.4809523 58.97762 41.0610305 58.97762"></polygon>
                    <polygon id="Fill-21" fill="#FEFEFE" points="41.0591797 76.0862143 44.4807109 76.0862143 44.4807109 72.6643667 41.0591797 72.6643667"></polygon>
                    <path d="M88.9619852,79.5091886 L88.9619852,82.9302314 L85.5404539,82.9302314 L82.1197273,82.9302314 L82.1189227,82.9302314 L78.6973914,82.9302314 L78.6973914,79.5091886 L78.6973914,76.0865362 L82.1189227,76.0865362 L82.1197273,76.0865362 L85.5404539,76.0865362 L88.9619852,76.0865362 L88.9619852,79.5091886 Z M85.5404539,72.6646886 L85.5404539,69.242841 L82.1189227,69.242841 L82.1189227,72.6646886 L78.6973914,72.6646886 L75.2758602,72.6646886 L75.2758602,76.0865362 L75.2758602,79.5091886 L75.2758602,82.9302314 L75.2758602,86.3528838 L78.6973914,86.3528838 L82.1189227,86.3528838 L82.1189227,89.7747314 L85.5404539,89.7747314 L85.5404539,86.3528838 L88.9619852,86.3528838 L92.3843211,86.3528838 L92.3843211,82.9302314 L92.3843211,79.5091886 L92.3843211,76.0865362 L92.3843211,72.6646886 L88.9619852,72.6646886 L85.5404539,72.6646886 Z" id="Fill-22" fill="#FEFEFE"></path>
                    <polygon id="Fill-23" fill="#FEFEFE" points="95.8052891 76.0862143 99.2268203 76.0862143 99.2268203 72.6643667 95.8052891 72.6643667"></polygon>
                    <polygon id="Fill-24" fill="#FEFEFE" points="95.8052891 82.9299095 99.2268203 82.9299095 99.2268203 79.5088667 95.8052891 79.5088667"></polygon>
                    <polygon id="Fill-25" fill="#FEFEFE" points="41.0591797 86.3525619 44.4807109 86.3525619 44.4807109 82.9299095 41.0591797 82.9299095"></polygon>
                    <polygon id="Fill-26" fill="#FEFEFE" points="41.0591797 96.6181048 44.4807109 96.6181048 44.4807109 93.1962571 41.0591797 93.1962571"></polygon>
                    <polygon id="Fill-27" fill="#221F20" points="23.9520867 0.804198571 23.9520867 4.22685095 23.9520867 7.64789381 27.3744227 7.64789381 27.3744227 4.22685095 30.7951492 4.22685095 34.2166805 4.22685095 37.6390164 4.22685095 41.059743 4.22685095 41.0613523 4.22685095 44.4804695 4.22685095 47.9036102 4.22685095 51.3251414 4.22685095 54.7450633 4.22685095 54.7474773 4.22685095 58.1682039 4.22685095 58.1682039 7.64789381 61.5897352 7.64789381 61.5897352 4.22685095 61.5897352 0.804198571"></polygon>
                    <polygon id="Fill-28" fill="#221F20" points="65.0115078 11.0706267 65.0115078 14.4924743 65.0115078 17.9143219 65.0115078 21.3361695 65.0115078 24.7588219 61.5899766 24.7588219 61.5899766 21.3361695 61.5899766 17.9143219 58.1676406 17.9143219 58.1676406 21.3361695 54.7453047 21.3361695 54.7453047 24.7588219 58.1676406 24.7588219 58.1676406 28.1798648 58.1676406 31.6025171 61.5899766 31.6025171 61.5899766 35.0243648 61.5899766 38.4462124 61.5899766 41.86806 58.1676406 41.86806 58.1676406 45.2899076 58.1676406 48.7109505 58.1676406 52.1327981 54.7469141 52.1327981 54.7453047 52.1327981 51.3253828 52.1327981 51.3253828 55.5546457 51.3253828 58.9772981 54.7469141 58.9772981 54.7469141 55.5546457 58.1676406 55.5546457 58.1676406 58.9772981 58.1676406 62.398341 61.5899766 62.398341 65.0115078 62.398341 68.4322344 62.398341 68.4322344 65.8209933 68.4322344 69.242841 68.4322344 72.6646886 68.4322344 76.0865362 68.4322344 79.5091886 68.4322344 82.9302314 68.4322344 86.3528838 68.4322344 89.7747314 71.8545703 89.7747314 71.8545703 86.3528838 71.8545703 82.9302314 71.8545703 79.5091886 71.8545703 76.0865362 71.8545703 72.6646886 71.8545703 69.242841 71.8545703 65.8209933 71.8545703 62.398341 71.8545703 58.9772981 68.4330391 58.9772981 68.4322344 58.9772981 65.0115078 58.9772981 61.5899766 58.9772981 61.5899766 55.5546457 61.5899766 52.1327981 61.5899766 48.7109505 65.0115078 48.7109505 65.0115078 45.2899076 65.0115078 41.86806 65.0115078 38.4462124 65.0115078 35.0243648 65.0115078 31.6025171 65.0115078 28.1798648 68.4330391 28.1798648 68.4330391 24.7588219 68.4330391 21.3361695 68.4330391 17.9143219 68.4330391 14.4924743 68.4330391 11.0706267 68.4330391 7.64797429 65.0115078 7.64797429 61.5899766 7.64797429 61.5899766 11.0706267"></polygon>
                    <polygon id="Fill-29" fill="#221F20" points="37.638775 14.4923938 41.0595016 14.4923938 41.0611109 14.4923938 44.4810328 14.4923938 47.9033688 14.4923938 51.3257047 14.4923938 54.7456266 14.4923938 54.7456266 17.9142414 58.1679625 17.9142414 58.1679625 14.4923938 54.7472359 14.4923938 54.7472359 11.0705462 51.3257047 11.0705462 47.9033688 11.0705462 44.4810328 11.0705462 41.0611109 11.0705462 41.0595016 11.0705462 37.638775 11.0705462 34.2164391 11.0705462 30.7949078 11.0705462 30.7949078 14.4923938 34.2164391 14.4923938"></polygon>
                    <polygon id="Fill-30" fill="#221F20" points="34.2165195 31.6022757 34.2165195 35.0241233 37.6388555 35.0241233 37.6388555 31.6022757 37.6388555 28.1796233 34.2165195 28.1796233"></polygon>
                    <polygon id="Fill-31" fill="#221F20" points="51.3255438 31.6022757 51.3255438 28.1796233 47.9032078 28.1796233 47.9032078 31.6022757 47.9032078 35.0241233 51.3255438 35.0241233"></polygon>
                    <polygon id="Fill-32" fill="#221F20" points="34.2161172 62.3988238 37.6384531 62.3988238 37.6384531 58.977781 34.2161172 58.977781"></polygon>
                    <polygon id="Fill-33" fill="#221F20" points="47.9030469 62.3988238 51.3253828 62.3988238 51.3253828 58.977781 47.9030469 58.977781"></polygon>
                    <polygon id="Fill-34" fill="#221F20" points="41.0610305 62.3985824 41.0594211 62.3985824 37.6386945 62.3985824 37.6386945 65.8212348 41.0594211 65.8212348 41.0610305 65.8212348 44.4809523 65.8212348 47.9032883 65.8212348 47.9032883 62.3985824 44.4809523 62.3985824"></polygon>
                    <polygon id="Fill-35" fill="#221F20" points="54.7469945 106.883648 54.7453852 106.883648 51.3254633 106.883648 47.9031273 106.883648 44.4807914 106.883648 41.0608695 106.883648 41.0592602 106.883648 37.6385336 106.883648 34.2161977 106.883648 30.7946664 106.883648 27.3739398 106.883648 27.3731352 106.883648 23.9516039 106.883648 23.9516039 110.305495 27.3731352 110.305495 27.3739398 110.305495 30.7946664 110.305495 34.2161977 110.305495 37.6385336 110.305495 41.0592602 110.305495 41.0608695 110.305495 44.4807914 110.305495 47.9031273 110.305495 51.3254633 110.305495 54.7453852 110.305495 54.7469945 110.305495 58.1677211 110.305495 61.590057 110.305495 61.590057 106.883648 58.1677211 106.883648"></polygon>
                    <polygon id="Fill-36" fill="#221F20" points="6.84467188 123.99369 10.2662031 123.99369 10.2662031 120.571843 6.84467188 120.571843"></polygon>
                    <polygon id="Fill-37" fill="#221F20" points="13.687493 127.415297 13.687493 123.993449 10.2659617 123.993449 10.2659617 127.415297 13.6866883 127.415297 13.6866883 130.837144 17.1090242 130.837144 17.1090242 127.415297"></polygon>
                    <path d="M20.5301531,7.64797429 L17.1086219,7.64797429 L17.1086219,11.0706267 L17.1086219,14.4924743 L17.1086219,17.9143219 L17.1086219,21.3361695 L17.1086219,24.7588219 L17.1086219,28.1798648 L20.5301531,28.1798648 L20.5301531,31.6025171 L20.5301531,35.02356 L20.5301531,38.4462124 L20.5301531,41.8672552 L20.5301531,45.2899076 L20.5301531,48.7117552 L23.9524891,48.7117552 L23.9524891,52.1327981 L23.9524891,55.5554505 L23.9524891,58.9772981 L20.5301531,58.9772981 L17.1086219,58.9772981 L13.6870906,58.9772981 L13.6870906,62.3991457 L13.6870906,65.8209933 L13.6870906,69.242841 L13.6870906,72.6646886 L13.6870906,76.0865362 L13.6870906,79.5091886 L13.6870906,82.9302314 L13.6870906,86.352079 L13.6870906,89.7747314 L13.6870906,93.196579 L13.6870906,96.6184267 L13.6870906,100.040274 L13.6870906,103.461317 L13.6870906,106.88397 L13.6870906,110.305012 L13.6870906,113.72847 L10.2655594,113.72847 L6.84483281,113.72847 L3.42169219,113.72847 L3.42169219,117.148708 L0.000160937499,117.148708 L0.000160937499,120.57136 L0.000160937499,123.994012 L0.000160937499,127.415055 L0.000160937499,130.837708 L0.000160937499,134.259555 L0.000160937499,137.680598 L0.000160937499,141.10325 L3.42169219,141.10325 L3.42169219,144.525098 L6.84483281,144.525098 L6.84483281,147.946946 L10.2655594,147.946946 L13.6870906,147.946946 L13.6878953,147.946946 L17.1086219,147.946946 L20.5301531,147.946946 L20.5301531,151.368793 L20.5301531,154.790641 L20.5301531,158.212489 L17.1086219,158.212489 L17.1086219,161.634336 L13.6870906,161.634336 L13.6870906,165.056184 L13.6870906,168.478836 L17.1086219,168.478836 L20.5301531,168.478836 L23.9524891,168.478836 L27.3732156,168.478836 L27.3740203,168.478836 L30.7955516,168.478836 L34.2162781,168.478836 L37.6394187,168.478836 L41.06095,168.478836 L41.06095,165.056184 L41.06095,161.634336 L41.06095,158.212489 L41.06095,154.790641 L41.06095,151.368793 L41.06095,147.946946 L41.06095,144.525098 L41.06095,141.10325 L41.06095,137.680598 L41.06095,134.259555 L41.06095,130.837708 L41.06095,127.415055 L44.4808719,127.415055 L44.4808719,130.837708 L44.4808719,134.259555 L44.4808719,137.680598 L44.4808719,141.10325 L44.4808719,144.525098 L44.4808719,147.946946 L44.4808719,151.368793 L44.4808719,154.790641 L44.4808719,158.212489 L44.4808719,161.634336 L44.4808719,165.056184 L44.4808719,168.478836 L47.9032078,168.478836 L51.3255437,168.478836 L54.7454656,168.478836 L54.747075,168.478836 L58.1678016,168.478836 L61.5893328,168.478836 L65.0116687,168.478836 L68.4323953,168.478836 L68.4332,168.478836 L71.8547312,168.478836 L71.8547312,165.056184 L71.8547312,161.634336 L68.4332,161.634336 L68.4332,158.212489 L65.0116687,158.212489 L65.0116687,154.790641 L65.0116687,151.368793 L65.0116687,147.946946 L65.0116687,144.525098 L65.0116687,141.10325 L65.0116687,137.680598 L65.0116687,134.259555 L65.0116687,130.837708 L65.0116687,127.415055 L65.0116687,123.994012 L65.0116687,120.57136 L65.0116687,117.148708 L65.0116687,113.72847 L65.0116687,110.305012 L65.0116687,106.88397 L65.0116687,103.461317 L65.0116687,100.040274 L68.4323953,100.040274 L68.4332,100.040274 L71.8547312,100.040274 L75.2762625,100.040274 L78.6969891,100.040274 L82.119325,100.040274 L82.1201297,100.040274 L85.5400516,100.040274 L88.9615828,100.040274 L88.9615828,96.6184267 L88.9615828,93.196579 L88.9615828,89.7747314 L85.5400516,89.7747314 L85.5400516,93.196579 L85.5400516,96.6184267 L82.1201297,96.6184267 L82.119325,96.6184267 L78.6969891,96.6184267 L75.2762625,96.6184267 L71.8547312,96.6184267 L68.4332,96.6184267 L68.4323953,96.6184267 L65.0116687,96.6184267 L61.5893328,96.6184267 L61.5893328,100.040274 L61.5893328,103.461317 L61.5893328,106.88397 L61.5893328,110.305012 L61.5893328,113.72847 L61.5893328,117.148708 L61.5893328,120.57136 L61.5893328,123.994012 L61.5893328,127.415055 L61.5893328,130.837708 L61.5893328,134.259555 L61.5893328,137.680598 L61.5893328,141.10325 L61.5893328,144.525098 L61.5893328,147.946946 L61.5893328,151.368793 L61.5893328,154.790641 L61.5893328,158.212489 L58.1678016,158.212489 L54.747075,158.212489 L54.7454656,158.212489 L51.3255437,158.212489 L47.9032078,158.212489 L47.9032078,154.790641 L47.9032078,151.368793 L47.9032078,147.946946 L47.9032078,144.525098 L47.9032078,141.10325 L47.9032078,137.680598 L47.9032078,134.259555 L47.9032078,130.837708 L47.9032078,127.415055 L47.9032078,123.994012 L44.4808719,123.994012 L41.06095,123.994012 L41.0593406,123.994012 L37.6394187,123.994012 L37.6394187,127.415055 L37.6394187,130.837708 L37.6394187,134.259555 L37.6394187,137.680598 L37.6394187,141.10325 L37.6394187,144.525098 L37.6394187,147.946946 L37.6394187,151.368793 L37.6394187,154.790641 L37.6394187,158.212489 L34.2162781,158.212489 L30.7955516,158.212489 L27.3740203,158.212489 L27.3732156,158.212489 L23.9524891,158.212489 L23.9524891,154.790641 L23.9524891,151.368793 L23.9524891,147.946946 L23.9524891,144.525098 L23.9524891,141.10325 L23.9524891,137.680598 L23.9524891,134.259555 L23.9524891,130.837708 L23.9524891,127.415055 L23.9524891,123.994012 L23.9524891,120.57136 L23.9524891,117.148708 L23.9524891,113.72847 L20.5301531,113.72847 L17.1086219,113.72847 L17.1086219,110.305012 L17.1086219,106.88397 L17.1086219,103.461317 L17.1086219,100.040274 L17.1086219,96.6184267 L17.1086219,93.196579 L17.1086219,89.7747314 L17.1086219,86.352079 L17.1086219,82.9302314 L17.1086219,79.5091886 L17.1086219,76.0865362 L17.1086219,72.6646886 L17.1086219,69.242841 L17.1086219,65.8209933 L17.1086219,62.3991457 L20.5301531,62.3991457 L23.9524891,62.3991457 L27.3740203,62.3991457 L27.3740203,58.9772981 L27.3740203,55.5554505 L30.7955516,55.5554505 L30.7955516,58.9772981 L34.2162781,58.9772981 L34.2162781,55.5554505 L34.2162781,52.1327981 L30.7955516,52.1327981 L27.3740203,52.1327981 L27.3740203,48.7117552 L27.3740203,45.2899076 L27.3740203,41.8672552 L23.9524891,41.8672552 L23.9524891,38.4462124 L23.9524891,35.02356 L23.9524891,31.6025171 L27.3740203,31.6025171 L27.3740203,28.1798648 L27.3740203,24.7588219 L30.7955516,24.7588219 L30.7955516,21.3361695 L27.3740203,21.3361695 L27.3740203,17.9143219 L30.7955516,17.9143219 L30.7955516,14.4924743 L27.3732156,14.4924743 L27.3732156,17.9143219 L23.9524891,17.9143219 L23.9524891,21.3361695 L23.9524891,24.7588219 L20.5301531,24.7588219 L20.5301531,21.3361695 L20.5301531,17.9143219 L20.5301531,14.4924743 L20.5301531,11.0706267 L23.9524891,11.0706267 L23.9524891,7.64797429 L20.5301531,7.64797429 Z M3.42169219,134.259555 L3.42169219,130.837708 L3.42169219,127.415055 L3.42169219,123.994012 L3.42169219,120.57136 L6.84483281,120.57136 L6.84483281,117.148708 L10.2655594,117.148708 L13.6870906,117.148708 L13.6878953,117.148708 L17.1086219,117.148708 L20.5301531,117.148708 L20.5301531,120.57136 L20.5301531,123.994012 L20.5301531,127.415055 L20.5301531,130.837708 L17.1086219,130.837708 L17.1086219,134.259555 L20.5301531,134.259555 L20.5301531,137.680598 L20.5301531,141.10325 L20.5301531,144.525098 L17.1086219,144.525098 L13.6878953,144.525098 L13.6870906,144.525098 L10.2655594,144.525098 L10.2655594,141.10325 L6.84483281,141.10325 L6.84483281,137.680598 L3.42169219,137.680598 L3.42169219,134.259555 Z" id="Fill-38" fill="#221F20"></path>
                </g>
            </g>
        </g>
    </g>
</svg>