<?xml version="1.0" encoding="UTF-8"?>
<svg width="78px" height="166px" viewBox="0 0 78 166" version="1.1" xmlns="http://www.w3.org/2000/svg" xmlns:xlink="http://www.w3.org/1999/xlink">
    <!-- Generator: Sketch 41.2 (35397) - http://www.bohemiancoding.com/sketch -->
    <title>Group 7</title>
    <desc>Created with Sketch.</desc>
    <defs></defs>
    <g id="ТЕСТ" stroke="none" stroke-width="1" fill="none" fill-rule="evenodd">
        <g id="Продовольств,-есть-акцизн.---Mobile-Portrait" transform="translate(-169.000000, -78.000000)">
            <g id="Group-7" transform="translate(169.000000, 78.000000)">
                <g id="Page-1">
                    <polygon id="Fill-1" fill="#FEFEFE" points="70.8543694 58.5328956 67.4275429 58.5328956 67.4275429 55.0906224 67.4275429 51.6467298 63.9991041 51.6467298 63.9991041 55.0906224 60.5714714 55.0906224 60.5714714 58.5328956 60.5714714 61.9767883 57.1430327 61.9767883 57.1430327 65.4198712 53.7162061 65.4198712 53.7154 65.4198712 50.2885735 65.4198712 50.2877673 65.4198712 46.8601347 65.4198712 46.8601347 61.9767883 43.432502 61.9767883 43.432502 58.5328956 43.432502 55.0906224 40.0048694 55.0906224 40.0048694 51.6467298 36.5772367 51.6467298 36.5772367 55.0906224 36.5772367 58.5328956 33.1504102 58.5328956 29.7227776 58.5328956 29.7227776 61.9767883 29.7227776 65.4198712 29.7227776 68.8629541 29.7227776 72.3060371 29.7227776 75.74912 29.7227776 79.1922029 29.7227776 82.6352859 29.7227776 86.0783688 29.7227776 89.5222615 33.1504102 89.5222615 36.5772367 89.5222615 36.5772367 92.9645346 36.5772367 96.4076176 36.5772367 99.8507005 36.5772367 103.293783 36.5772367 106.736866 40.0048694 106.736866 43.432502 106.736866 46.8601347 106.736866 50.2877673 106.736866 50.2885735 106.736866 53.7154 106.736866 53.7162061 106.736866 57.1430327 106.736866 60.5714714 106.736866 63.9991041 106.736866 63.9999102 106.736866 67.4275429 106.736866 67.4275429 103.293783 67.4275429 99.8507005 67.4275429 96.4076176 67.4275429 92.9645346 67.4275429 89.5222615 70.8543694 89.5222615 74.2828082 89.5222615 74.2828082 86.0783688 74.2828082 82.6352859 74.2828082 79.1922029 74.2828082 75.74912 74.2828082 72.3060371 74.2828082 68.8629541 74.2828082 65.4198712 74.2828082 61.9767883 74.2828082 58.5328956"></polygon>
                    <polygon id="Fill-2" fill="#2BA5DA" points="46.8604571 154.941485 43.4328245 154.941485 40.0051918 154.941485 36.5775592 154.941485 33.1499265 154.941485 29.7222939 154.941485 29.7222939 158.384568 26.2938551 158.384568 26.2938551 161.827651 26.2938551 165.271543 29.7222939 165.271543 33.1499265 165.271543 36.5775592 165.271543 40.0051918 165.271543 43.4328245 165.271543 46.8604571 165.271543 50.2888959 165.271543 50.2888959 161.827651 50.2888959 158.384568 50.2888959 154.941485"></polygon>
                    <polygon id="Fill-3" fill="#2BA5DA" points="70.8545306 154.941485 67.426898 154.941485 67.4260918 154.941485 64.0000714 154.941485 63.9992653 154.941485 60.5716327 154.941485 57.1431939 154.941485 53.7155612 154.941485 53.7155612 158.384568 53.7155612 161.827651 53.7155612 165.271543 57.1431939 165.271543 60.5716327 165.271543 63.9992653 165.271543 64.0000714 165.271543 67.4260918 165.271543 67.426898 165.271543 70.8545306 165.271543 74.2829694 165.271543 77.7097959 165.271543 77.7097959 158.384568 74.2829694 158.384568 74.2829694 154.941485"></polygon>
                    <polygon id="Fill-4" fill="#89442B" points="40.0051112 0.000566829268 40.0051112 3.44284 36.5774786 3.44284 36.5774786 6.88673268 33.1498459 6.88673268 33.1498459 10.3298156 29.7222133 10.3298156 29.7222133 13.7720888 29.7222133 17.2159815 29.7222133 20.6582546 29.7222133 24.1013376 29.7222133 27.5452302 29.7222133 30.9875034 29.7222133 34.4322059 29.7222133 37.8736693 33.1498459 37.8736693 33.1498459 34.4322059 33.1498459 30.9875034 33.1498459 27.5452302 36.5774786 27.5452302 36.5774786 24.1013376 36.5774786 20.6582546 40.0051112 20.6582546 43.43355 20.6582546 46.8603765 20.6582546 46.8603765 17.2159815 50.2888153 17.2159815 50.2888153 13.7720888 53.7156418 13.7720888 53.7156418 17.2159815 57.1432745 17.2159815 57.1432745 20.6582546 60.5717133 20.6582546 63.9993459 20.6582546 64.000152 20.6582546 67.4261724 20.6582546 67.4261724 24.1013376 67.4261724 27.5452302 70.8546112 27.5452302 70.8546112 30.9875034 70.8546112 34.4322059 70.8546112 37.8736693 74.2822439 37.8736693 74.2822439 34.4322059 74.2822439 30.9875034 74.2822439 27.5452302 74.2822439 24.1013376 74.2822439 20.6582546 74.2822439 17.2159815 74.2822439 13.7720888 74.2822439 10.3298156 70.8546112 10.3298156 70.8546112 6.88673268 67.4269786 6.88673268 67.4269786 3.44284 64.000152 3.44284 64.000152 0.000566829268"></polygon>
                    <polygon id="Fill-5" fill="#89442B" points="67.4260112 41.3177239 63.9991847 41.3177239 63.9991847 44.7608068 60.571552 44.7608068 60.571552 48.2038898 63.9991847 48.2038898 63.9999908 48.2038898 67.4276235 48.2038898 67.4276235 44.7608068 70.85445 44.7608068 70.85445 41.3177239 70.85445 37.8738312 67.4260112 37.8738312"></polygon>
                    <polygon id="Fill-6" fill="#89442B" points="33.1500071 44.7607259 36.5776398 44.7607259 36.5776398 48.2038088 40.0052724 48.2038088 43.4329051 48.2038088 43.4329051 44.7607259 40.0052724 44.7607259 40.0052724 41.3176429 36.5776398 41.3176429 36.5776398 37.8737502 33.1500071 37.8737502 33.1500071 41.3176429"></polygon>
                    <path d="M50.2887347,44.7608878 L53.7155612,44.7608878 L53.7155612,41.3178049 L50.2887347,41.3178049 L50.2887347,44.7608878 Z M46.8602959,27.5446634 L46.8602959,30.9877463 L43.4326633,30.9877463 L43.4326633,27.5446634 L43.4326633,24.1015805 L46.8602959,24.1015805 L46.8602959,27.5446634 Z M57.1431939,27.5446634 L57.1431939,24.1015805 L60.5716327,24.1015805 L60.5716327,27.5446634 L60.5716327,30.9877463 L57.1431939,30.9877463 L57.1431939,27.5446634 Z M57.1431939,51.6470537 L57.1431939,48.2039707 L60.5716327,48.2039707 L60.5716327,44.7608878 L64.0000714,44.7608878 L64.0000714,41.3178049 L67.4277041,41.3178049 L67.4277041,37.8739122 L70.8545306,37.8739122 L70.8545306,34.431639 L70.8545306,30.9877463 L70.8545306,27.5446634 L67.4277041,27.5446634 L67.4277041,24.1015805 L67.4277041,20.6584976 L64.0000714,20.6584976 L63.9992653,20.6584976 L60.5716327,20.6584976 L57.1431939,20.6584976 L57.1431939,17.2154146 L53.7163673,17.2154146 L53.7163673,13.7723317 L50.2879286,13.7723317 L50.2879286,17.2154146 L46.8602959,17.2154146 L46.8602959,20.6584976 L43.4326633,20.6584976 L40.0050306,20.6584976 L36.577398,20.6584976 L36.577398,24.1015805 L36.577398,27.5446634 L33.1497653,27.5446634 L33.1497653,30.9877463 L33.1497653,34.431639 L33.1497653,37.8739122 L36.577398,37.8739122 L36.577398,41.3178049 L40.0050306,41.3178049 L40.0050306,44.7608878 L43.4326633,44.7608878 L43.4326633,48.2039707 L46.8602959,48.2039707 L46.8602959,51.6470537 L46.8602959,55.0909463 L50.2879286,55.0909463 L50.2887347,55.0909463 L53.7155612,55.0909463 L53.7163673,55.0909463 L57.1431939,55.0909463 L57.1431939,51.6470537 Z" id="Fill-7" fill="#F8DFB3"></path>
                    <polygon id="Fill-8" fill="#F8DFB3" points="67.4260112 89.5219376 67.4260112 92.9642107 67.4260112 96.4081034 67.4260112 99.8511863 67.4260112 103.294269 67.4260112 106.737352 67.4260112 110.181245 70.85445 110.181245 74.2828888 110.181245 74.2828888 106.737352 74.2828888 103.294269 74.2828888 99.8511863 74.2828888 96.4081034 74.2828888 92.9642107 74.2828888 89.5219376 70.85445 89.5219376"></polygon>
                    <polygon id="Fill-9" fill="#F8DFB3" points="36.5776398 92.9641298 36.5776398 89.5218566 33.1500071 89.5218566 29.7223745 89.5218566 26.2947418 89.5218566 26.2939357 89.5218566 22.8671092 89.5218566 19.4394765 89.5218566 16.0110378 89.5218566 16.0110378 92.9641298 16.0110378 96.4080224 19.4394765 96.4080224 22.8671092 96.4080224 26.2939357 96.4080224 26.2947418 96.4080224 29.7223745 96.4080224 33.1500071 96.4080224 36.5776398 96.4080224"></polygon>
                    <polygon id="Fill-10" fill="#F8DFB3" points="40.0051918 137.725341 40.0051918 137.725341 36.5775592 137.725341 36.5775592 141.168424 36.5775592 144.612317 36.5775592 148.05459 36.5775592 151.498483 36.5775592 154.941566 40.0051918 154.941566 43.4328245 154.941566 46.8604571 154.941566 46.8604571 151.498483 46.8604571 148.05459 46.8604571 144.612317 46.8604571 141.168424 46.8604571 137.725341 43.4328245 137.725341"></polygon>
                    <polygon id="Fill-11" fill="#F8DFB3" points="63.9991847 137.725341 60.571552 137.725341 57.1431133 137.725341 57.1431133 141.168424 57.1431133 144.612317 57.1431133 148.05459 57.1431133 151.498483 57.1431133 154.941566 60.571552 154.941566 63.9991847 154.941566 63.9999908 154.941566 67.4276235 154.941566 67.4276235 151.498483 67.4276235 148.05459 67.4276235 144.612317 67.4276235 141.168424 67.4276235 137.725341 63.9999908 137.725341"></polygon>
                    <polygon id="Fill-12" fill="#FEFEFE" points="43.4326633 55.0909463 46.8602959 55.0909463 46.8602959 51.6470537 43.4326633 51.6470537"></polygon>
                    <polygon id="Fill-13" fill="#FEFEFE" points="57.1431939 55.0909463 60.5716327 55.0909463 60.5716327 51.6470537 57.1431939 51.6470537"></polygon>
                    <polygon id="Fill-14" fill="#FEFEFE" points="53.7163673 61.9767883 57.1431939 61.9767883 57.1431939 58.5328956 57.1431939 55.0906224 53.7163673 55.0906224 53.7155612 55.0906224 50.2887347 55.0906224 50.2879286 55.0906224 46.8602959 55.0906224 46.8602959 58.5328956 46.8602959 61.9767883 50.2879286 61.9767883 50.2887347 61.9767883 53.7155612 61.9767883"></polygon>
                    <polygon id="Fill-15" fill="#DDB478" points="50.2879286 44.7608878 53.7163673 44.7608878 53.7163673 41.3178049 50.2879286 41.3178049"></polygon>
                    <polygon id="Fill-16" fill="#221F20" points="43.4328245 27.5447444 43.4328245 30.9878273 46.8604571 30.9878273 46.8604571 27.5447444 46.8604571 24.1016615 43.4328245 24.1016615"></polygon>
                    <polygon id="Fill-17" fill="#221F20" points="57.1431939 27.5447444 57.1431939 30.9878273 60.5716327 30.9878273 60.5716327 27.5447444 60.5716327 24.1016615 57.1431939 24.1016615"></polygon>
                    <polygon id="Fill-18" fill="#221F20" points="46.8603765 51.6468107 46.8603765 48.2037278 43.4327439 48.2037278 40.0051112 48.2037278 36.5774786 48.2037278 33.1498459 48.2037278 33.1498459 51.6468107 33.1498459 55.0907034 29.7222133 55.0907034 29.7222133 58.5329766 33.1498459 58.5329766 36.5774786 58.5329766 36.5774786 55.0907034 36.5774786 51.6468107 40.0051112 51.6468107 40.0051112 55.0907034 43.4327439 55.0907034 43.4327439 51.6468107"></polygon>
                    <polygon id="Fill-19" fill="#221F20" points="46.8603765 55.0907034 43.4327439 55.0907034 43.4327439 58.5329766 43.4327439 61.9768693 46.8603765 61.9768693 46.8603765 58.5329766"></polygon>
                    <polygon id="Fill-20" fill="#221F20" points="57.1431939 58.5328956 57.1431939 61.9767883 60.5716327 61.9767883 60.5716327 58.5328956 60.5716327 55.0906224 57.1431939 55.0906224"></polygon>
                    <polygon id="Fill-21" fill="#221F20" points="70.8543694 55.0907034 70.8543694 51.6468107 70.8543694 48.2037278 67.4275429 48.2037278 67.4259306 48.2037278 63.9999102 48.2037278 63.9991041 48.2037278 60.5714714 48.2037278 57.1430327 48.2037278 57.1430327 51.6468107 60.5714714 51.6468107 60.5714714 55.0907034 63.9999102 55.0907034 63.9999102 51.6468107 67.4259306 51.6468107 67.4259306 55.0907034 67.4259306 58.5329766 70.8543694 58.5329766 74.2828082 58.5329766 74.2828082 55.0907034"></polygon>
                    <polygon id="Fill-22" fill="#221F20" points="26.2940163 61.9767883 26.2940163 65.4198712 26.2940163 68.8629541 26.2940163 72.3060371 26.2940163 75.74912 26.2940163 79.1922029 26.2940163 82.6352859 26.2940163 86.0783688 22.8671898 86.0783688 19.4395571 86.0783688 16.0111184 86.0783688 16.0111184 89.5222615 19.4395571 89.5222615 22.8671898 89.5222615 26.2940163 89.5222615 26.2948224 89.5222615 29.7224551 89.5222615 29.7224551 86.0783688 29.7224551 82.6352859 29.7224551 79.1922029 29.7224551 75.74912 29.7224551 72.3060371 29.7224551 68.8629541 29.7224551 65.4198712 29.7224551 61.9767883 29.7224551 58.5328956 26.2940163 58.5328956"></polygon>
                    <polygon id="Fill-23" fill="#221F20" points="74.2825663 58.5325717 74.2825663 61.9764644 74.2825663 65.4195473 74.2825663 68.8626302 74.2825663 72.3057132 74.2825663 75.7496059 74.2825663 79.191879 74.2825663 82.634962 74.2825663 86.0780449 74.2825663 89.5219376 74.2825663 92.963401 74.2825663 96.4081034 74.2825663 99.8503766 74.2825663 103.294269 74.2825663 106.737352 74.2825663 110.181245 70.8541276 110.181245 67.4256888 110.181245 67.4256888 113.623518 67.4256888 117.066601 67.4256888 120.510494 67.4256888 123.952767 67.4256888 127.39666 67.4256888 130.838933 67.4256888 134.282016 67.4256888 137.725099 67.4256888 141.168181 67.4256888 144.612074 67.4256888 148.054347 67.4256888 151.49824 67.4256888 154.941323 70.8541276 154.941323 70.8541276 151.49824 70.8541276 148.054347 70.8541276 144.612074 70.8541276 141.168181 70.8541276 137.725099 70.8541276 134.282016 70.8541276 130.838933 70.8541276 127.39666 70.8541276 123.952767 70.8541276 120.510494 70.8541276 117.066601 70.8541276 113.623518 74.2825663 113.623518 77.710199 113.623518 77.710199 58.5325717"></polygon>
                    <polygon id="Fill-24" fill="#221F20" points="53.7156418 61.9767883 50.2888153 61.9767883 50.2880092 61.9767883 46.8603765 61.9767883 46.8603765 65.4198712 50.2880092 65.4198712 50.2888153 65.4198712 53.7156418 65.4198712 53.716448 65.4198712 57.1432745 65.4198712 57.1432745 61.9767883 53.716448 61.9767883"></polygon>
                    <polygon id="Fill-25" fill="#221F20" points="29.7224551 96.4080224 26.2948224 96.4080224 26.2940163 96.4080224 22.8671898 96.4080224 19.4395571 96.4080224 16.0111184 96.4080224 16.0111184 99.8511054 19.4395571 99.8511054 22.8671898 99.8511054 26.2940163 99.8511054 26.2948224 99.8511054 29.7224551 99.8511054 33.1500878 99.8511054 33.1500878 103.294188 33.1500878 106.737271 33.1500878 110.181164 33.1500878 113.623437 33.1500878 117.06733 33.1500878 120.510413 33.1500878 123.953496 33.1500878 127.396579 33.1500878 130.839661 33.1500878 134.281935 33.1500878 137.725018 33.1500878 141.1681 33.1500878 144.611993 33.1500878 148.054266 33.1500878 151.498159 33.1500878 154.941242 36.5777204 154.941242 36.5777204 151.498159 36.5777204 148.054266 36.5777204 144.611993 36.5777204 141.1681 36.5777204 137.725018 36.5777204 134.281935 36.5777204 130.839661 36.5777204 127.396579 36.5777204 123.953496 36.5777204 120.510413 36.5777204 117.06733 36.5777204 113.623437 36.5777204 110.181164 36.5777204 106.737271 36.5777204 103.294188 36.5777204 99.8511054 36.5777204 96.4080224 33.1500878 96.4080224"></polygon>
                    <polygon id="Fill-26" fill="#221F20" points="46.8603765 141.168343 46.8603765 144.612236 46.8603765 148.054509 46.8603765 151.498402 46.8603765 154.941485 50.2888153 154.941485 50.2888153 151.498402 50.2888153 148.054509 50.2888153 144.612236 50.2888153 141.168343 50.2888153 137.72526 46.8603765 137.72526"></polygon>
                    <polygon id="Fill-27" fill="#221F20" points="53.7156418 141.168343 53.7156418 144.612236 53.7156418 148.054509 53.7156418 151.498402 53.7156418 154.941485 57.1432745 154.941485 57.1432745 151.498402 57.1432745 148.054509 57.1432745 144.612236 57.1432745 141.168343 57.1432745 137.72526 53.7156418 137.72526"></polygon>
                    <polygon id="Fill-28" fill="#221F20" points="64.0549255 106.737109 60.6106611 106.737109 57.1655866 106.737109 53.7221322 106.737109 53.7213222 106.737109 50.2778678 106.737109 50.2770577 106.737109 46.8327933 106.737109 43.3885289 106.737109 39.9442644 106.737109 36.5 106.737109 36.5 110.181002 36.5 113.623275 36.5 117.067168 36.5 120.510251 36.5 123.953334 36.5 127.396417 36.5 130.8395 36.5 134.282582 36.5 137.725665 39.9442644 137.725665 43.3885289 137.725665 46.8327933 137.725665 50.2770577 137.725665 50.2778678 137.725665 53.7213222 137.725665 53.7221322 137.725665 57.1655866 137.725665 60.6106611 137.725665 64.0549255 137.725665 64.0557356 137.725665 67.5 137.725665 67.5 134.282582 67.5 130.8395 67.5 127.396417 67.5 123.953334 67.5 120.510251 67.5 117.067168 67.5 113.623275 67.5 110.181002 67.5 106.737109 64.0557356 106.737109"></polygon>
                    <g id="Group-5" transform="translate(0.000000, 72.000000)" fill="#221F20">
                        <polygon id="Fill-29" points="13.5073071 13.6340556 10.0796745 13.6340556 10.0796745 10.1909727 6.65204184 10.1909727 6.65204184 6.74788976 10.0804806 6.74788976 10.0804806 10.1909727 13.5073071 10.1909727 13.5073071 13.6340556 16.936552 13.6340556 16.936552 27.8509434 13.5073071 27.8509434"></polygon>
                        <polyline id="Fill-30" points="3.2244898 3.3048878 6.65212245 3.3048878 6.65212245 6.74797073 3.2244898 6.74797073"></polyline>
                        <polygon id="Fill-31" points="0 3.50894634 3.42763265 3.50894634 3.42763265 0.0658634146 0 0.0658634146"></polygon>
                    </g>
                </g>
            </g>
        </g>
    </g>
</svg>