<?xml version="1.0" encoding="UTF-8"?>
<svg width="272px" height="118px" viewBox="0 0 272 118" version="1.1" xmlns="http://www.w3.org/2000/svg" xmlns:xlink="http://www.w3.org/1999/xlink">
    <!-- Generator: Sketch 41.2 (35397) - http://www.bohemiancoding.com/sketch -->
    <title>Group 3</title>
    <desc>Created with Sketch.</desc>
    <defs></defs>
    <g id="ТЕСТ" stroke="none" stroke-width="1" fill="none" fill-rule="evenodd">
        <g id="итог2" transform="translate(-24.000000, -93.000000)">
            <g id="Group-4" transform="translate(24.000000, 93.000000)">
                <g id="Group-3">
                    <g id="Page-1">
                        <polygon id="Fill-1" fill="#FF474C" points="34.9548387 7.6 34.9548387 3.8 27.1870968 3.8 27.1870968 7.6 23.3032258 7.6 23.3032258 11.4 19.4193548 11.4 19.4193548 7.6 15.5354839 7.6 15.5354839 3.8 7.76774194 3.8 7.76774194 7.6 3.88387097 7.6 3.88387097 19 7.76774194 19 7.76774194 22.8 11.6516129 22.8 11.6516129 26.6 15.5354839 26.6 15.5354839 30.4 19.4193548 30.4 19.4193548 34.2 23.3032258 34.2 23.3032258 30.4 27.1870968 30.4 27.1870968 26.6 31.0709677 26.6 31.0709677 22.8 34.9548387 22.8 34.9548387 19 38.8387097 19 38.8387097 7.6"></polygon>
                        <polygon id="Fill-2" fill="#000000" points="0 19 3.88387097 19 3.88387097 7.60027143 0 7.60027143"></polygon>
                        <polygon id="Fill-3" fill="#000000" points="3.88387097 7.6 7.76774194 7.6 7.76774194 3.8 3.88387097 3.8"></polygon>
                        <polygon id="Fill-4" fill="#000000" points="7.76774194 3.8 15.5354839 3.8 15.5354839 0 7.76774194 0"></polygon>
                        <polygon id="Fill-5" fill="#000000" points="15.5354839 7.6 19.4193548 7.6 19.4193548 3.8 15.5354839 3.8"></polygon>
                        <polygon id="Fill-6" fill="#000000" points="19.4193548 11.4 23.3032258 11.4 23.3032258 7.6 19.4193548 7.6"></polygon>
                        <polygon id="Fill-7" fill="#000000" points="23.3032258 7.6 27.1870968 7.6 27.1870968 3.8 23.3032258 3.8"></polygon>
                        <polygon id="Fill-8" fill="#000000" points="27.1870968 3.8 34.9548387 3.8 34.9548387 0 27.1870968 0"></polygon>
                        <polygon id="Fill-9" fill="#000000" points="34.9548387 7.6 38.8387097 7.6 38.8387097 3.8 34.9548387 3.8"></polygon>
                        <polygon id="Fill-10" fill="#000000" points="38.8387097 19 42.9997226 19 42.9997226 7.60027143 38.8387097 7.60027143"></polygon>
                        <polygon id="Fill-11" fill="#000000" points="3.88387097 22.8 7.76774194 22.8 7.76774194 19 3.88387097 19"></polygon>
                        <polygon id="Fill-12" fill="#000000" points="7.76774194 26.6 11.6516129 26.6 11.6516129 22.8 7.76774194 22.8"></polygon>
                        <polygon id="Fill-13" fill="#000000" points="11.6516129 30.4 15.5354839 30.4 15.5354839 26.6 11.6516129 26.6"></polygon>
                        <polygon id="Fill-14" fill="#000000" points="15.5354839 34.2 19.4193548 34.2 19.4193548 30.4 15.5354839 30.4"></polygon>
                        <polygon id="Fill-15" fill="#000000" points="19.4193548 38 23.3029484 38 23.3029484 34.2 19.4193548 34.2"></polygon>
                        <polygon id="Fill-16" fill="#000000" points="23.3032258 34.2 27.1870968 34.2 27.1870968 30.4 23.3032258 30.4"></polygon>
                        <polygon id="Fill-17" fill="#000000" points="27.1870968 30.4 31.0709677 30.4 31.0709677 26.6 27.1870968 26.6"></polygon>
                        <polygon id="Fill-18" fill="#000000" points="31.0709677 26.6 34.9548387 26.6 34.9548387 22.8 31.0709677 22.8"></polygon>
                        <polygon id="Fill-19" fill="#000000" points="34.9548387 22.8 38.8387097 22.8 38.8387097 19 34.9548387 19"></polygon>
                        <polygon id="Fill-20" fill="#FF9194" points="7.76774194 7.6 15.5354839 7.6 15.5354839 3.8 7.76774194 3.8"></polygon>
                        <polygon id="Fill-21" fill="#FF9194" points="3.88387097 19 7.76774194 19 7.76774194 7.6 3.88387097 7.6"></polygon>
                        <polygon id="Fill-22" fill="#FF9194" points="7.76774194 22.8 11.6516129 22.8 11.6516129 19 7.76774194 19"></polygon>
                    </g>
                    <g id="Page-1" transform="translate(235.000000, 0.000000)">
                        <polygon id="Fill-1" fill="#3F3F3F" points="4.09943182 8.19877955 8.19886364 8.19877955 8.19886364 4.09934773 4.09943182 4.09934773"></polygon>
                        <polygon id="Fill-2" fill="#3F3F3F" points="28.6960227 8.19877955 32.7954545 8.19877955 32.7954545 4.09934773 28.6960227 4.09934773"></polygon>
                        <polygon id="Fill-3" fill="#3F3F3F" points="8.19898977 -0.000168181818 8.19898977 4.09968409 12.2984216 4.09968409 16.397433 4.09968409 20.4972852 4.09968409 24.596717 4.09968409 28.6957284 4.09968409 28.6957284 -0.000168181818"></polygon>
                        <polygon id="Fill-4" fill="#3F3F3F" points="24.5965909 32.6584284 20.4971591 32.6584284 16.3977273 32.6584284 12.2982955 32.6584284 8.19886364 32.6584284 8.19886364 36.7578602 12.2982955 36.7578602 16.3977273 36.7578602 20.4971591 36.7578602 24.5965909 36.7578602 28.6960227 36.7578602 28.6960227 32.6584284"></polygon>
                        <polygon id="Fill-5" fill="#3F3F3F" points="0 8.19882159 0 12.2982534 0 16.3976852 0 20.497117 0 24.5965489 0 28.6959807 4.09943182 28.6959807 4.09943182 24.5965489 4.09943182 20.497117 4.09943182 16.3976852 4.09943182 12.2982534 4.09943182 8.19882159"></polygon>
                        <polygon id="Fill-6" fill="#3F3F3F" points="32.7955807 8.19882159 32.7955807 12.2982534 32.7955807 16.3976852 32.7955807 20.497117 32.7955807 24.5965489 32.7955807 28.6959807 36.8950125 28.6959807 36.8950125 8.19882159"></polygon>
                        <polygon id="Fill-7" fill="#FFFFFF" points="28.6960227 8.19886364 28.6960227 4.09943182 24.5965909 4.09943182 20.4971591 4.09943182 16.3977273 4.09943182 12.2982955 4.09943182 8.19886364 4.09943182 8.19886364 8.19886364 4.09943182 8.19886364 4.09943182 12.2982955 4.09943182 16.3977273 4.09943182 20.4971591 4.09943182 24.5965909 4.09943182 28.6960227 8.19886364 28.6960227 8.19886364 32.7954545 12.2982955 32.7954545 16.3977273 32.7954545 20.4971591 32.7954545 24.5965909 32.7954545 28.6960227 32.7954545 28.6960227 28.6960227 32.7954545 28.6960227 32.7954545 24.5965909 32.7954545 20.4971591 32.7954545 16.3977273 32.7954545 12.2982955 32.7954545 8.19886364"></polygon>
                        <polygon id="Fill-8" fill="#3F3F3F" points="4.09943182 32.7953705 8.19886364 32.7953705 8.19886364 28.6959386 4.09943182 28.6959386"></polygon>
                        <polygon id="Fill-9" fill="#3F3F3F" points="28.6960227 32.7953705 32.7954545 32.7953705 32.7954545 28.6959386 28.6960227 28.6959386"></polygon>
                        <polygon id="Fill-10" fill="#3F3F3F" points="20.4971591 16.3977273 20.4971591 12.2982955 20.4971591 8.19886364 16.3977273 8.19886364 16.3977273 12.2982955 16.3977273 16.3977273 16.3977273 20.4971591 20.4971591 20.4971591 24.5965909 20.4971591 24.5965909 16.3977273"></polygon>
                        <polygon id="Fill-11" fill="#CECECE" points="24.5965909 4.09943182 20.4971591 4.09943182 16.3977273 4.09943182 12.2982955 4.09943182 8.19886364 4.09943182 8.19886364 8.19886364 12.2982955 8.19886364 16.3977273 8.19886364 20.4971591 8.19886364 24.5965909 8.19886364 28.6960227 8.19886364 28.6960227 4.09943182"></polygon>
                        <polygon id="Fill-12" fill="#CECECE" points="4.09943182 12.2982114 8.19886364 12.2982114 8.19886364 8.19877955 4.09943182 8.19877955"></polygon>
                        <polygon id="Fill-13" fill="#CECECE" points="28.6960227 12.2982114 32.7954545 12.2982114 32.7954545 8.19877955 28.6960227 8.19877955"></polygon>
                    </g>
                    <g id="Page-1" transform="translate(82.000000, 1.000000)">
                        <polygon id="Fill-1" fill="#FFE600" points="87.75 0 87.75 0.001 78 0.001 68.25 0.001 58.5 0.001 48.75 0.001 39 0.001 29.25 0.001 19.5 0.001 9.75 0.001 0 0.001 0 9.751 0 19.5 0 29.251 0 39 9.75 39 9.75 29.251 9.75 19.5 9.75 9.751 19.5 9.751 19.5 19.5 19.5 29.251 19.5 39 9.75 39 9.75 48.749 19.5 48.749 29.25 48.749 29.25 58.5 39 58.5 39 68.25 48.75 68.25 48.75 77.999 48.75 87.75 48.75 97.5 39 97.5 39 107.25 29.25 107.25 29.25 117 39 117 48.75 117 58.5 117 68.25 117 78 117 78 107.25 68.25 107.25 68.25 97.5 58.5 97.5 58.5 87.75 58.5 77.999 58.5 68.25 68.25 68.25 68.25 58.5 78 58.5 78 48.749 87.75 48.749 97.5 48.749 97.5 39 87.75 39 87.75 29.251 87.75 19.5 87.75 9.751 87.75 9.749 97.5 9.749 97.5 19.499 97.5 29.248 97.5 39 107.25 39 107.25 0"></polygon>
                        <polygon id="Fill-2" fill="#E8AB00" points="48.75 78 58.5 78 58.5 68.25 48.75 68.25"></polygon>
                        <polygon id="Fill-3" fill="#E8AB00" points="68.2497 107.2503 58.4997 107.2503 48.7507 107.2503 38.9997 107.2503 29.2497 107.2503 29.2497 117.0003 38.9997 117.0003 48.7507 117.0003 58.4997 117.0003 68.2497 117.0003 78.0007 117.0003 78.0007 107.2503"></polygon>
                        <polygon id="Fill-4" fill="#E8AB00" points="9.7497 0.0009 -0.0003 0.0009 -0.0003 9.7509 -0.0003 19.4999 -0.0003 29.2509 -0.0003 38.9999 9.7497 38.9999 9.7497 29.2509 9.7497 19.4999 9.7497 9.7509 19.5007 9.7509 19.5007 0.0009"></polygon>
                        <polygon id="Fill-5" fill="#E8AB00" points="9.75 48.75 19.5 48.75 19.5 39 9.75 39"></polygon>
                        <polygon id="Fill-6" fill="#E8AB00" points="87.75 0 87.75 9.749 97.5 9.749 97.5 19.499 97.5 29.248 97.5 39 107.25 39 107.25 0"></polygon>
                        <polygon id="Fill-7" fill="#E8AB00" points="87.75 48.75 97.5 48.75 97.5 39 87.75 39"></polygon>
                    </g>
                </g>
            </g>
        </g>
    </g>
</svg>