<?xml version="1.0" encoding="UTF-8"?>
<svg width="100px" height="164px" viewBox="0 0 100 164" version="1.1" xmlns="http://www.w3.org/2000/svg" xmlns:xlink="http://www.w3.org/1999/xlink">
    <!-- Generator: Sketch 41.2 (35397) - http://www.bohemiancoding.com/sketch -->
    <title>Group 3</title>
    <desc>Created with Sketch.</desc>
    <defs></defs>
    <g id="ТЕСТ" stroke="none" stroke-width="1" fill="none" fill-rule="evenodd">
        <g id="Начать-тест_mob" transform="translate(-164.000000, -82.000000)">
            <g id="Page-1-Copy" transform="translate(164.000000, 82.000000)">
                <polygon id="Fill-1" fill="#C0C1C2" points="27.3671302 81.63944 23.9475666 81.63944 23.9451527 81.63944 20.5255891 81.63944 20.5247845 81.63944 17.1044162 81.63944 13.6832433 81.63944 10.2620704 81.63944 6.8408975 81.63944 6.8408975 85.04104 10.2620704 85.04104 13.6832433 85.04104 17.1044162 85.04104 20.5247845 85.04104 20.5255891 85.04104 23.9451527 85.04104 23.9475666 85.04104 27.3671302 85.04104 30.7899123 85.04104 30.7899123 81.63944"></polygon>
                <polygon id="Fill-2" fill="#B1B2B5" points="34.2102002 54.42696 34.2093956 54.42696 30.7882227 54.42696 30.7882227 57.82776 34.2093956 57.82776 34.2102002 57.82776 37.6305685 57.82776 37.6305685 54.42696"></polygon>
                <polygon id="Fill-3" fill="#B1B2B5" points="34.2093956 64.6316 30.7882227 64.6316 30.7882227 68.0332 30.7882227 71.4348 30.7882227 74.8364 30.7882227 78.238 30.7882227 81.6396 30.7882227 85.0412 34.2093956 85.0412 34.2102002 85.0412 37.6305685 85.0412 37.6305685 81.6396 37.6305685 78.238 37.6305685 74.8364 37.6305685 71.4348 37.6305685 68.0332 37.6305685 64.6316 34.2102002 64.6316"></polygon>
                <polygon id="Fill-4" fill="#DAD9D9" points="34.2102002 57.82768 34.2093956 57.82768 30.7882227 57.82768 30.7882227 61.23008 30.7882227 64.63168 34.2093956 64.63168 34.2102002 64.63168 37.6305685 64.63168 37.6305685 61.23008 37.6305685 57.82768"></polygon>
                <polygon id="Fill-5" fill="#DAD9D9" points="10.2622313 81.63944 13.6834042 81.63944 17.1045771 81.63944 20.5249454 81.63944 20.52575 81.63944 23.9453137 81.63944 23.9477275 81.63944 27.3672912 81.63944 30.7900733 81.63944 30.7900733 78.23784 30.7900733 74.83624 30.7900733 71.43464 27.3672912 71.43464 23.9477275 71.43464 23.9453137 71.43464 20.52575 71.43464 20.5249454 71.43464 17.1045771 71.43464 13.6834042 71.43464 10.2622313 71.43464 6.84105842 71.43464 6.84105842 74.83624 6.84105842 78.23784 6.84105842 81.63944"></polygon>
                <path d="M34.2099588,85.0412 L34.2091542,85.0412 L30.7895905,85.0412 L30.7879813,85.0412 L27.3668084,85.0412 L23.9472447,85.0412 L23.9448309,85.0412 L20.5260718,85.0412 L20.5252672,85.0412 L17.1040943,85.0412 L13.683726,85.0412 L10.2625532,85.0412 L6.84218486,85.0412 L6.84057566,85.0412 L3.42101197,85.0412 L3.42020737,85.0412 L0.000643682576,85.0412 L0.000643682576,88.4436 L0.000643682576,91.8436 L0.000643682576,95.2468 L0.000643682576,98.6476 L3.42020737,98.6476 L3.42101197,98.6476 L6.84057566,98.6476 L6.84218486,98.6476 L10.2625532,98.6476 L13.683726,98.6476 L17.1040943,98.6476 L20.5252672,98.6476 L20.5260718,98.6476 L23.9448309,98.6476 L23.9472447,98.6476 L27.3668084,98.6476 L30.7879813,98.6476 L30.7895905,98.6476 L34.2091542,98.6476 L34.2099588,98.6476 L37.6311317,98.6476 L37.6311317,95.2468 L37.6311317,91.8436 L37.6311317,88.4436 L37.6311317,85.0412 L34.2099588,85.0412 Z M10.2625532,91.8436 L10.2625532,88.4436 L13.683726,88.4436 L17.1040943,88.4436 L20.5252672,88.4436 L20.5260718,88.4436 L23.9448309,88.4436 L23.9472447,88.4436 L27.3668084,88.4436 L27.3668084,91.8436 L27.3668084,95.2468 L23.9472447,95.2468 L23.9448309,95.2468 L20.5260718,95.2468 L20.5252672,95.2468 L17.1040943,95.2468 L13.683726,95.2468 L10.2625532,95.2468 L10.2625532,91.8436 Z" id="Fill-6" fill="#DAD9D9"></path>
                <path d="M78.6848845,68.0332 L82.106862,68.0332 L85.5280349,68.0332 L85.5296441,68.0332 L88.9492078,68.0332 L88.9492078,71.4348 L88.9492078,74.8364 L85.5296441,74.8364 L85.5280349,74.8364 L82.106862,74.8364 L78.6848845,74.8364 L75.2645162,74.8364 L75.2645162,71.4348 L75.2645162,68.0332 L78.6848845,68.0332 Z M92.3703807,57.8276 L88.9500124,57.8276 L88.9500124,54.4268 L88.9500124,51.0244 L85.5280349,51.0244 L85.5280349,54.4268 L82.106862,54.4268 L82.106862,57.8276 L82.106862,61.23 L78.6848845,61.23 L78.6848845,64.6316 L75.2645162,64.6316 L71.8433434,64.6316 L71.8425388,64.6316 L68.4213659,64.6316 L68.4213659,61.23 L65.000193,61.23 L65.000193,57.8276 L65.000193,54.4268 L61.5790201,54.4268 L61.5790201,51.0244 L58.1578472,51.0244 L58.1578472,54.4268 L58.1578472,57.8276 L54.7366743,57.8276 L51.3155014,57.8276 L51.3155014,61.23 L51.3155014,64.6316 L51.3155014,68.0332 L51.3155014,71.4348 L51.3155014,74.8364 L51.3155014,78.238 L51.3155014,81.6396 L51.3155014,85.0412 L51.3155014,88.4436 L54.7366743,88.4436 L58.1578472,88.4436 L58.1578472,91.8444 L58.1578472,95.2468 L58.1578472,98.6484 L58.1578472,102.05 L58.1578472,105.4508 L61.5790201,105.4508 L65.000193,105.4508 L68.4213659,105.4508 L71.8425388,105.4508 L71.8433434,105.4508 L75.2645162,105.4508 L78.6848845,105.4508 L82.106862,105.4508 L85.5280349,105.4508 L85.5296441,105.4508 L88.9500124,105.4508 L88.9500124,102.05 L88.9500124,98.6484 L88.9500124,95.2468 L88.9500124,91.8444 L88.9500124,88.4436 L92.3703807,88.4436 L95.7923582,88.4436 L95.7923582,85.0412 L95.7923582,81.6396 L95.7923582,78.238 L95.7923582,74.8364 L95.7923582,71.4348 L95.7923582,68.0332 L95.7923582,64.6316 L95.7923582,61.23 L95.7923582,57.8276 L92.3703807,57.8276 Z" id="Fill-7" fill="#2C9B91"></path>
                <polygon id="Fill-8" fill="#E01E32" points="68.4213659 153.07472 65.000193 153.07472 61.5790201 153.07472 58.1578472 153.07472 54.7374789 153.07472 51.3155014 153.07472 51.3155014 156.47632 47.8943285 156.47632 47.8943285 159.87792 47.8943285 163.28032 51.3155014 163.28032 54.7374789 163.28032 58.1578472 163.28032 61.5790201 163.28032 65.000193 163.28032 68.4213659 163.28032 71.8433434 163.28032 71.8433434 159.87792 71.8433434 156.47632 71.8433434 153.07472"></polygon>
                <polygon id="Fill-9" fill="#E01E32" points="92.3702198 153.07472 88.9498515 153.07472 88.9490469 153.07472 85.5294832 153.07472 85.527874 153.07472 82.1067011 153.07472 78.6847236 153.07472 75.2643553 153.07472 75.2643553 156.47632 75.2643553 159.87792 75.2643553 163.28032 78.6847236 163.28032 82.1067011 163.28032 85.527874 163.28032 85.5294832 163.28032 88.9490469 163.28032 88.9498515 163.28032 92.3702198 163.28032 95.7921973 163.28032 99.2133702 163.28032 99.2133702 156.47632 95.7921973 156.47632 95.7921973 153.07472"></polygon>
                <polygon id="Fill-10" fill="#89442B" points="61.5789396 0.00056 61.5789396 3.40136 58.1577667 3.40136 58.1577667 6.80376 54.7373984 6.80376 54.7373984 10.20536 51.3154209 10.20536 51.3154209 13.60616 51.3154209 17.00856 51.3154209 20.40936 51.3154209 23.81096 51.3154209 27.21336 51.3154209 30.61416 51.3154209 34.01736 51.3154209 37.41736 54.7373984 37.41736 54.7373984 34.01736 54.7373984 30.61416 54.7373984 27.21336 58.1577667 27.21336 58.1577667 23.81096 58.1577667 20.40936 61.5789396 20.40936 65.0009171 20.40936 68.4212854 20.40936 68.4212854 17.00856 71.8440675 17.00856 71.8440675 13.60616 75.2644358 13.60616 75.2644358 17.00856 78.6848041 17.00856 78.6848041 20.40936 82.1067816 20.40936 85.5279545 20.40936 85.5295637 20.40936 88.9491274 20.40936 88.9491274 23.81096 88.9491274 27.21336 92.3703002 27.21336 92.3703002 30.61416 92.3703002 34.01736 92.3703002 37.41736 95.7922777 37.41736 95.7922777 34.01736 95.7922777 30.61416 95.7922777 27.21336 95.7922777 23.81096 95.7922777 20.40936 95.7922777 17.00856 95.7922777 13.60616 95.7922777 10.20536 92.3703002 10.20536 92.3703002 6.80376 88.949932 6.80376 88.949932 3.40136 85.5295637 3.40136 85.5295637 0.00056"></polygon>
                <polygon id="Fill-11" fill="#89442B" points="88.9491274 40.81992 85.5279545 40.81992 85.5279545 44.22152 82.1067816 44.22152 82.1067816 47.62312 85.5279545 47.62312 85.5295637 47.62312 88.949932 47.62312 88.949932 44.22152 92.3703002 44.22152 92.3703002 40.81992 92.3703002 37.41752 88.9491274 37.41752"></polygon>
                <polygon id="Fill-12" fill="#89442B" points="54.7369961 44.22144 58.158169 44.22144 58.158169 47.62304 61.5793419 47.62304 65.0005148 47.62304 65.0005148 44.22144 61.5793419 44.22144 61.5793419 40.81984 58.158169 40.81984 58.158169 37.41744 54.7369961 37.41744 54.7369961 40.81984"></polygon>
                <path d="M71.8430215,44.2216 L75.2641944,44.2216 L75.2641944,40.82 L71.8430215,40.82 L71.8430215,44.2216 Z M68.4218486,27.2128 L68.4218486,30.6144 L65.0006757,30.6144 L65.0006757,27.2128 L65.0006757,23.8112 L68.4218486,23.8112 L68.4218486,27.2128 Z M78.6845627,27.2128 L78.6845627,23.8112 L82.1065402,23.8112 L82.1065402,27.2128 L82.1065402,30.6144 L78.6845627,30.6144 L78.6845627,27.2128 Z M78.6845627,51.0248 L78.6845627,47.6232 L82.1065402,47.6232 L82.1065402,44.2216 L85.5293223,44.2216 L85.5293223,40.82 L88.9496906,40.82 L88.9496906,37.4176 L92.3700589,37.4176 L92.3700589,34.0168 L92.3700589,30.6144 L92.3700589,27.2128 L88.9496906,27.2128 L88.9496906,23.8112 L88.9496906,20.4096 L85.5293223,20.4096 L85.5277131,20.4096 L82.1065402,20.4096 L78.6845627,20.4096 L78.6845627,17.008 L75.2641944,17.008 L75.2641944,13.6064 L71.8430215,13.6064 L71.8430215,17.008 L68.4218486,17.008 L68.4218486,20.4096 L65.0006757,20.4096 L61.5795028,20.4096 L58.1583299,20.4096 L58.1583299,23.8112 L58.1583299,27.2128 L54.7371571,27.2128 L54.7371571,30.6144 L54.7371571,34.0168 L54.7371571,37.4176 L58.1583299,37.4176 L58.1583299,40.82 L61.5795028,40.82 L61.5795028,44.2216 L65.0006757,44.2216 L65.0006757,47.6232 L68.4218486,47.6232 L68.4218486,51.0248 L68.4218486,54.4272 L71.8430215,54.4272 L71.8438261,54.4272 L75.2641944,54.4272 L78.6845627,54.4272 L78.6845627,51.0248 Z" id="Fill-13" fill="#F8DFB3"></path>
                <polygon id="Fill-14" fill="#F8DFB3" points="88.9491274 88.44336 88.9491274 91.84416 88.9491274 95.24656 88.9491274 98.64816 88.9491274 102.04976 88.9491274 105.45136 88.9491274 108.85376 92.3703002 108.85376 95.7922777 108.85376 95.7922777 105.45136 95.7922777 102.04976 95.7922777 98.64816 95.7922777 95.24656 95.7922777 91.84416 95.7922777 88.44336 92.3703002 88.44336"></polygon>
                <polygon id="Fill-15" fill="#F8DFB3" points="58.1580886 91.84408 58.1580886 88.44328 54.7369157 88.44328 51.3157428 88.44328 47.8945699 88.44328 47.8937653 88.44328 44.4742016 88.44328 41.0522241 88.44328 37.6302466 88.44328 37.6302466 91.84408 37.6302466 95.24648 41.0522241 95.24648 44.4742016 95.24648 47.8937653 95.24648 47.8945699 95.24648 51.3157428 95.24648 54.7369157 95.24648 58.1580886 95.24648"></polygon>
                <polygon id="Fill-16" fill="#F8DFB3" points="61.5792615 136.066 61.5792615 136.066 58.1580886 136.066 58.1580886 139.4676 58.1580886 142.87 58.1580886 146.2708 58.1580886 149.6732 58.1580886 153.0748 61.5792615 153.0748 65.0004344 153.0748 68.4216072 153.0748 68.4216072 149.6732 68.4216072 146.2708 68.4216072 142.87 68.4216072 139.4676 68.4216072 136.066 65.0004344 136.066"></polygon>
                <polygon id="Fill-17" fill="#F8DFB3" points="85.5279545 136.066 82.1067816 136.066 78.6848041 136.066 78.6848041 139.4676 78.6848041 142.87 78.6848041 146.2708 78.6848041 149.6732 78.6848041 153.0748 82.1067816 153.0748 85.5279545 153.0748 85.5295637 153.0748 88.949932 153.0748 88.949932 149.6732 88.949932 146.2708 88.949932 142.87 88.949932 139.4676 88.949932 136.066 85.5295637 136.066"></polygon>
                <polygon id="Fill-18" fill="#FEFEFE" points="65.0006757 54.4272 68.4218486 54.4272 68.4218486 51.0248 65.0006757 51.0248"></polygon>
                <polygon id="Fill-19" fill="#FEFEFE" points="78.6845627 54.4272 82.1065402 54.4272 82.1065402 51.0248 78.6845627 51.0248"></polygon>
                <polygon id="Fill-20" fill="#FEFEFE" points="75.2645967 61.23008 78.684965 61.23008 78.684965 57.82768 78.684965 54.42688 75.2645967 54.42688 71.8434238 54.42688 71.8426192 54.42688 68.4214463 54.42688 68.4214463 57.82768 68.4214463 61.23008 71.8426192 61.23008 71.8434238 61.23008"></polygon>
                <polygon id="Fill-21" fill="#FEFEFE" points="85.5279545 68.0332 82.1067816 68.0332 78.6848041 68.0332 75.2644358 68.0332 75.2644358 71.4348 75.2644358 74.8364 78.6848041 74.8364 82.1067816 74.8364 85.5279545 74.8364 85.5295637 74.8364 88.949932 74.8364 88.949932 71.4348 88.949932 68.0332 85.5295637 68.0332"></polygon>
                <polygon id="Fill-22" fill="#FEFEFE" points="23.9451527 88.44336 20.5255891 88.44336 20.5247845 88.44336 17.1044162 88.44336 13.6832433 88.44336 10.2620704 88.44336 10.2620704 91.84416 10.2620704 95.24656 13.6832433 95.24656 17.1044162 95.24656 20.5247845 95.24656 20.5255891 95.24656 23.9451527 95.24656 23.9475666 95.24656 27.3671302 95.24656 27.3671302 91.84416 27.3671302 88.44336 23.9475666 88.44336"></polygon>
                <polygon id="Fill-23" fill="#DDB478" points="71.8430215 44.2216 75.264999 44.2216 75.264999 40.82 71.8430215 40.82"></polygon>
                <polygon id="Fill-24" fill="#221F20" points="65.0003539 27.21288 65.0003539 30.61448 68.4215268 30.61448 68.4215268 27.21288 68.4215268 23.81128 65.0003539 23.81128"></polygon>
                <polygon id="Fill-25" fill="#221F20" points="78.6848845 27.21288 78.6848845 30.61448 82.106862 30.61448 82.106862 27.21288 82.106862 23.81128 78.6848845 23.81128"></polygon>
                <polygon id="Fill-26" fill="#221F20" points="68.4215268 51.02456 68.4215268 47.62296 65.0003539 47.62296 61.579181 47.62296 58.1580081 47.62296 54.7368352 47.62296 54.7368352 51.02456 54.7368352 54.42696 51.3156623 54.42696 51.3156623 57.82776 54.7368352 57.82776 58.1580081 57.82776 58.1580081 54.42696 58.1580081 51.02456 61.579181 51.02456 61.579181 54.42696 65.0003539 54.42696 65.0003539 51.02456"></polygon>
                <polygon id="Fill-27" fill="#221F20" points="41.0524655 54.42696 44.474443 54.42696 47.8948113 54.42696 47.8948113 51.02456 47.8948113 47.62296 47.8948113 44.22136 44.474443 44.22136 41.0524655 44.22136 37.630488 44.22136 34.2101197 44.22136 34.2093151 44.22136 30.7897514 44.22136 30.7881422 44.22136 27.3669693 44.22136 23.9474056 44.22136 23.9449918 44.22136 20.5246235 44.22136 20.5246235 47.62296 20.5246235 51.02456 20.5246235 54.42696 23.9449918 54.42696 23.9474056 54.42696 27.3669693 54.42696 30.7881422 54.42696 30.7897514 54.42696 34.2093151 54.42696 34.2101197 54.42696 37.630488 54.42696"></polygon>
                <polygon id="Fill-28" fill="#221F20" points="68.4215268 54.42696 65.0003539 54.42696 65.0003539 57.82776 65.0003539 61.23016 68.4215268 61.23016 68.4215268 57.82776"></polygon>
                <polygon id="Fill-29" fill="#221F20" points="78.6848845 57.82768 78.6848845 61.23008 82.106862 61.23008 82.106862 57.82768 82.106862 54.42688 78.6848845 54.42688"></polygon>
                <polygon id="Fill-30" fill="#221F20" points="92.3702198 54.42696 92.3702198 51.02456 92.3702198 47.62296 88.9498515 47.62296 88.9490469 47.62296 85.5294832 47.62296 85.527874 47.62296 82.1067011 47.62296 78.6847236 47.62296 78.6847236 51.02456 82.1067011 51.02456 82.1067011 54.42696 85.5294832 54.42696 85.5294832 51.02456 88.9490469 51.02456 88.9490469 54.42696 88.9490469 57.82776 92.3702198 57.82776 95.7921973 57.82776 95.7921973 54.42696"></polygon>
                <polygon id="Fill-31" fill="#221F20" points="47.8939262 61.23008 47.8939262 64.63168 47.8939262 68.03328 47.8939262 71.43488 47.8939262 74.83648 47.8939262 78.23808 47.8939262 81.63968 47.8939262 85.04128 44.4743625 85.04128 41.052385 85.04128 37.6304075 85.04128 37.6304075 88.44368 41.052385 88.44368 44.4743625 88.44368 47.8939262 88.44368 47.8947308 88.44368 51.3159037 88.44368 51.3159037 85.04128 51.3159037 81.63968 51.3159037 78.23808 51.3159037 74.83648 51.3159037 71.43488 51.3159037 68.03328 51.3159037 64.63168 51.3159037 61.23008 51.3159037 57.82768 47.8939262 57.82768"></polygon>
                <polygon id="Fill-32" fill="#221F20" points="95.7925191 57.82736 95.7925191 61.22976 95.7925191 64.63136 95.7925191 68.03296 95.7925191 71.43456 95.7925191 74.83696 95.7925191 78.23776 95.7925191 81.63936 95.7925191 85.04096 95.7925191 88.44336 95.7925191 91.84336 95.7925191 95.24656 95.7925191 98.64736 95.7925191 102.04976 95.7925191 105.45136 95.7925191 108.85376 92.3705416 108.85376 88.9493687 108.85376 88.9493687 112.25456 88.9493687 115.65616 88.9493687 119.05856 88.9493687 122.45936 88.9493687 125.86176 88.9493687 129.26256 88.9493687 132.66416 88.9493687 136.06576 88.9493687 139.46736 88.9493687 142.86976 88.9493687 146.27056 88.9493687 149.67296 88.9493687 153.07456 92.3705416 153.07456 92.3705416 149.67296 92.3705416 146.27056 92.3705416 142.86976 92.3705416 139.46736 92.3705416 136.06576 92.3705416 132.66416 92.3705416 129.26256 92.3705416 125.86176 92.3705416 122.45936 92.3705416 119.05856 92.3705416 115.65616 92.3705416 112.25456 95.7925191 112.25456 99.213692 112.25456 99.213692 57.82736"></polygon>
                <polygon id="Fill-33" fill="#221F20" points="75.2645967 61.23008 71.8434238 61.23008 71.8426192 61.23008 68.4214463 61.23008 68.4214463 64.63168 71.8426192 64.63168 71.8434238 64.63168 75.2645967 64.63168 78.684965 64.63168 78.684965 61.23008"></polygon>
                <polygon id="Fill-34" fill="#221F20" points="51.3158232 95.24648 47.8946504 95.24648 47.8938458 95.24648 44.4742821 95.24648 41.0523046 95.24648 37.6303271 95.24648 37.6303271 98.64808 41.0523046 98.64808 44.4742821 98.64808 47.8938458 98.64808 47.8946504 98.64808 51.3158232 98.64808 54.7369961 98.64808 54.7369961 102.04968 54.7369961 105.45128 54.7369961 108.85368 54.7369961 112.25448 54.7369961 115.65688 54.7369961 119.05848 54.7369961 122.46008 54.7369961 125.86168 54.7369961 129.26328 54.7369961 132.66408 54.7369961 136.06568 54.7369961 139.46728 54.7369961 142.86968 54.7369961 146.27048 54.7369961 149.67288 54.7369961 153.07448 58.158169 153.07448 58.158169 149.67288 58.158169 146.27048 58.158169 142.86968 58.158169 139.46728 58.158169 136.06568 58.158169 132.66408 58.158169 129.26328 58.158169 125.86168 58.158169 122.46008 58.158169 119.05848 58.158169 115.65688 58.158169 112.25448 58.158169 108.85368 58.158169 105.45128 58.158169 102.04968 58.158169 98.64808 58.158169 95.24648 54.7369961 95.24648"></polygon>
                <polygon id="Fill-35" fill="#221F20" points="68.4215268 139.4676 68.4215268 142.87 68.4215268 146.2708 68.4215268 149.6732 68.4215268 153.0748 71.8435043 153.0748 71.8435043 149.6732 71.8435043 146.2708 71.8435043 142.87 71.8435043 139.4676 71.8435043 136.066 68.4215268 136.066"></polygon>
                <polygon id="Fill-36" fill="#221F20" points="75.2645967 139.4676 75.2645967 142.87 75.2645967 146.2708 75.2645967 149.6732 75.2645967 153.0748 78.684965 153.0748 78.684965 149.6732 78.684965 146.2708 78.684965 142.87 78.684965 139.4676 78.684965 136.066 75.2645967 136.066"></polygon>
                <polygon id="Fill-37" fill="#221F20" points="85.5279545 105.45112 82.1067816 105.45112 78.6848041 105.45112 75.2644358 105.45112 71.8432629 105.45112 71.8424583 105.45112 68.4212854 105.45112 65.0001125 105.45112 61.5789396 105.45112 58.1577667 105.45112 58.1577667 108.85352 58.1577667 112.25432 58.1577667 115.65672 58.1577667 119.05832 58.1577667 122.45992 58.1577667 125.86152 58.1577667 129.26312 58.1577667 132.66472 58.1577667 136.06632 61.5789396 136.06632 65.0001125 136.06632 68.4212854 136.06632 71.8424583 136.06632 71.8432629 136.06632 75.2644358 136.06632 78.6848041 136.06632 82.1067816 136.06632 85.5279545 136.06632 85.5295637 136.06632 88.949932 136.06632 88.949932 132.66472 88.949932 129.26312 88.949932 125.86152 88.949932 122.45992 88.949932 119.05832 88.949932 115.65672 88.949932 112.25432 88.949932 108.85352 88.949932 105.45112 85.5295637 105.45112"></polygon>
            </g>
        </g>
    </g>
</svg>