<?xml version="1.0" encoding="UTF-8"?>
<svg width="91px" height="163px" viewBox="0 0 91 163" version="1.1" xmlns="http://www.w3.org/2000/svg" xmlns:xlink="http://www.w3.org/1999/xlink">
    <!-- Generator: Sketch 41.2 (35397) - http://www.bohemiancoding.com/sketch -->
    <title>Group 4</title>
    <desc>Created with Sketch.</desc>
    <defs></defs>
    <g id="ТЕСТ" stroke="none" stroke-width="1" fill="none" fill-rule="evenodd">
        <g id="Длинный-вопрос---" transform="translate(-167.000000, -81.000000)">
            <g id="Group-7" transform="translate(16.000000, 81.000000)">
                <g id="Group-4" transform="translate(151.000000, 0.000000)">
                    <g id="Page-1" transform="translate(53.000000, 81.500000) scale(-1, 1) translate(-53.000000, -81.500000) translate(15.000000, 0.000000)">
                        <polygon id="Fill-6" fill="#384E7F" points="44.6192585 105.197845 41.1878958 105.197845 41.1870886 105.197845 37.7557258 105.197845 34.3227487 105.197845 30.8905788 105.197845 27.459216 105.197845 27.4576016 105.197845 24.0262389 105.197845 20.594069 105.197845 17.1610918 105.197845 13.7297291 105.197845 13.7289219 105.197845 10.2975592 105.197845 10.2975592 108.591249 10.2975592 111.984653 10.2975592 115.378058 10.2975592 118.771462 10.2975592 122.164866 10.2975592 125.55827 10.2975592 128.952473 10.2975592 132.345079 10.2975592 135.740079 10.2975592 139.132685 10.2975592 142.526089 10.2975592 145.919494 10.2975592 149.312898 10.2975592 152.706302 13.7289219 152.706302 13.7297291 152.706302 17.1610918 152.706302 20.594069 152.706302 24.0262389 152.706302 24.0262389 149.312898 24.0262389 145.919494 24.0262389 142.526089 24.0262389 139.132685 24.0262389 135.740079 24.0262389 132.345079 24.0262389 128.952473 24.0262389 125.55827 24.0262389 122.164866 24.0262389 118.771462 27.4576016 118.771462 27.459216 118.771462 30.8905788 118.771462 34.3227487 118.771462 34.3227487 122.164866 34.3227487 125.55827 34.3227487 128.952473 34.3227487 132.345079 34.3227487 135.740079 34.3227487 139.132685 34.3227487 142.526089 34.3227487 145.919494 34.3227487 149.312898 34.3227487 152.706302 37.7557258 152.706302 41.1870886 152.706302 41.1878958 152.706302 44.6192585 152.706302 48.0514284 152.706302 48.0514284 149.312898 48.0514284 145.919494 48.0514284 142.526089 48.0514284 139.132685 48.0514284 135.740079 48.0514284 132.345079 48.0514284 128.952473 48.0514284 125.55827 48.0514284 122.164866 48.0514284 118.771462 48.0514284 115.378058 48.0514284 111.984653 48.0514284 108.591249 48.0514284 105.197845"></polygon>
                        <path d="M34.3229101,44.1156115 L30.8907402,44.1156115 L27.4593775,44.1156115 L27.4577631,44.1156115 L24.0264003,44.1156115 L20.5942304,44.1156115 L20.5942304,40.7222073 L24.0264003,40.7222073 L27.4577631,40.7222073 L27.4593775,40.7222073 L30.8907402,40.7222073 L34.3229101,40.7222073 L37.7550801,40.7222073 L37.7550801,44.1156115 L34.3229101,44.1156115 Z M37.7550801,27.1485904 L37.7550801,30.5411966 L34.3229101,30.5411966 L34.3229101,27.1485904 L34.3229101,23.7535901 L37.7550801,23.7535901 L37.7550801,27.1485904 Z M20.5942304,23.7535901 L24.0264003,23.7535901 L24.0264003,27.1485904 L24.0264003,30.5411966 L20.5942304,30.5411966 L20.5942304,27.1485904 L20.5942304,23.7535901 Z M13.7290833,40.7222073 L13.7290833,44.1156115 L13.7290833,47.5090157 L17.1612533,47.5090157 L20.5942304,47.5090157 L24.0264003,47.5090157 L24.0264003,50.9024199 L27.4577631,50.9024199 L27.4577631,54.2958241 L30.8907402,54.2958241 L30.8907402,50.9024199 L34.3229101,50.9024199 L34.3229101,47.5090157 L37.7550801,47.5090157 L41.1864428,47.5090157 L41.1880572,47.5090157 L44.6194199,47.5090157 L44.6194199,44.1156115 L44.6194199,40.7222073 L44.6194199,37.3288031 L48.0515899,37.3288031 L48.0515899,33.9353989 L48.0515899,30.5411966 L48.0515899,27.1485904 L44.6194199,27.1485904 L44.6194199,23.7535901 L44.6194199,20.3609839 L41.1880572,20.3609839 L41.1880572,16.9667816 L37.7550801,16.9667816 L34.3229101,16.9667816 L30.8907402,16.9667816 L27.4593775,16.9667816 L27.4577631,16.9667816 L24.0264003,16.9667816 L20.5942304,16.9667816 L17.1612533,16.9667816 L17.1612533,20.3609839 L13.7290833,20.3609839 L13.7290833,23.7535901 L13.7290833,27.1485904 L10.2977206,27.1485904 L10.2977206,30.5411966 L10.2977206,33.9353989 L10.2977206,37.3288031 L13.7290833,37.3288031 L13.7290833,40.7222073 Z" id="Fill-7" fill="#F8DFB3"></path>
                        <polygon id="Fill-8" fill="#F8DFB3" points="58.3481804 84.8368611 54.9168176 84.8368611 54.9160105 84.8368611 51.4846477 84.8368611 48.0516706 84.8368611 48.0516706 88.2310634 48.0516706 91.6244676 51.4846477 91.6244676 54.9160105 91.6244676 54.9168176 91.6244676 58.3481804 91.6244676 61.7803503 91.6244676 65.2133275 91.6244676 65.2133275 88.2310634 65.2133275 84.8368611 61.7803503 84.8368611"></polygon>
                        <polygon id="Fill-8" fill="#F8DFB3" points="48.2344183 57.461219 44.8030556 57.461219 44.8022484 57.461219 41.3708856 57.461219 37.9379085 57.461219 37.9379085 74.5447719 37.9379085 91.624308 41.3708856 91.624308 44.8022484 91.624308 44.8030556 91.624308 48.2344183 91.624308 51.6665882 91.624308 55.0995654 91.624308 55.0995654 74.5447719 55.0995654 57.461219 51.6665882 57.461219"></polygon>
                        <polygon id="Fill-8" fill="#F8DFB3" points="32.5482071 44.1156913 24.9995641 44.1156913 24.9977884 44.1156913 17.4491454 44.1156913 9.89695098 44.1156913 9.89695098 54.183442 9.89695098 64.2488255 17.4491454 64.2488255 24.9977884 64.2488255 24.9995641 64.2488255 32.5482071 64.2488255 40.0986258 64.2488255 47.6508203 64.2488255 47.6508203 54.183442 47.6508203 44.1156913 40.0986258 44.1156913"></polygon>
                        <polygon id="Fill-9" fill="#DDB478" points="30.8903366 40.7222871 27.4589739 40.7222871 27.4581667 40.7222871 24.0268039 40.7222871 20.5938268 40.7222871 20.5938268 44.1156913 24.0268039 44.1156913 27.4581667 44.1156913 27.4589739 44.1156913 30.8903366 44.1156913 34.3225065 44.1156913 37.7554837 44.1156913 37.7554837 40.7222871 34.3225065 40.7222871"></polygon>
                        <polygon id="Fill-10" fill="#DDB478" points="68.6458203 91.624308 72.077183 91.624308 72.077183 88.2309038 72.077183 84.8367015 68.6458203 84.8367015 68.6450131 84.8367015 65.2136503 84.8367015 65.2136503 88.2309038 65.2136503 91.624308 68.6450131 91.624308"></polygon>
                        <polygon id="Fill-13" fill="#FEFEFE" points="3.43249281 57.6891485 3.43249281 61.0825528 3.43249281 64.475957 3.43249281 67.8693612 3.43249281 71.2627654 3.43249281 74.6569677 3.43249281 78.0495738 3.43249281 81.4445742 3.43249281 84.8371803 3.43249281 88.2313826 3.43249281 91.6239887 3.43249281 95.017393 3.43249281 98.4107972 3.43249281 101.804201 6.86466275 101.804201 10.2976399 101.804201 10.2976399 98.4107972 10.2976399 95.017393 10.2976399 91.6239887 10.2976399 88.2313826 10.2976399 84.8371803 10.2976399 81.4445742 10.2976399 78.0495738 10.2976399 74.6569677 10.2976399 71.2627654 10.2976399 67.8693612 10.2976399 64.475957 10.2976399 61.0825528 10.2976399 57.6891485 6.86466275 57.6891485"></polygon>
                        <polygon id="Fill-11" fill="#DDB478" points="3.43410719 57.6891485 3.43410719 83.1401989 3.43410719 108.591249 6.86547003 108.591249 10.2976399 108.591249 10.2976399 83.1401989 10.2976399 57.6891485 6.86547003 57.6891485"></polygon>
                        <g transform="translate(9.686275, 49.480494)">
                            <polygon id="Fill-1" fill="#E74C3C" points="33.7884406 0 33.7884406 11.2326511 29.5652155 11.2326511 29.5652155 14.9769982 16.8946603 14.9769982 16.8946603 11.2326511 12.6705552 11.2326511 12.6705552 0 4.22366507 0 4.22366507 18.7213453 0 18.7213453 0 52.4196887 42.2362107 52.4196887 42.2362107 18.7213453 38.0121057 18.7213453 38.0121057 0"></polygon>
                            <polygon id="Fill-2" fill="#FFFFFF" points="20.2511011 32.2732539 15.8540334 32.2732539 15.8540334 36.3026332 20.2511011 36.3026332 20.2511011 40.3315928 11.4569657 40.3315928 11.4569657 28.2438746 15.8540334 28.2438746 15.8540334 24.2144953 11.4569657 24.2144953 11.4569657 20.1851159 20.2511011 20.1851159"></polygon>
                            <polygon id="Fill-3" fill="#FFFFFF" points="33.4417547 32.2732539 29.0446869 32.2732539 29.0446869 36.3026332 33.4417547 36.3026332 33.4417547 40.3315928 24.6480772 40.3315928 24.6480772 28.2438746 29.0446869 28.2438746 29.0446869 24.2144953 24.6480772 24.2144953 24.6480772 20.1851159 33.4417547 20.1851159"></polygon>
                        </g>
                        <polygon id="Fill-15" fill="#221F20" points="20.5939882 27.1488299 20.5939882 30.541436 24.0261582 30.541436 24.0261582 27.1488299 24.0261582 23.7538295 20.5939882 23.7538295"></polygon>
                        <polygon id="Fill-16" fill="#221F20" points="37.7554029 27.1488299 37.7554029 23.7538295 34.323233 23.7538295 34.323233 27.1488299 34.323233 30.541436 37.7554029 30.541436"></polygon>
                        <polygon id="Fill-17" fill="#221F20" points="13.7288412 0.000558650741 13.7288412 3.39396286 10.2974784 3.39396286 10.2974784 6.786569 6.8653085 6.786569 6.8653085 10.1807713 6.8653085 13.5733774 6.8653085 16.9675797 6.8653085 20.3609839 6.8653085 23.7535901 6.8653085 27.1485904 6.8653085 30.5411966 6.8653085 33.9353989 6.8653085 37.3288031 6.8653085 40.7230054 6.8653085 44.1156115 10.2974784 44.1156115 10.2974784 47.5090157 10.2974784 50.9024199 10.2974784 54.2958241 6.8653085 54.2958241 3.43233137 54.2958241 0.000161437909 54.2958241 0.000161437909 57.6892283 0.000161437909 61.0826326 0.000161437909 64.4752387 0.000161437909 67.869441 0.000161437909 71.2628452 0.000161437909 74.6570475 0.000161437909 78.0496536 0.000161437909 81.4438559 0.000161437909 84.8372601 0.000161437909 88.2306643 0.000161437909 91.6248666 0.000161437909 95.0174728 0.000161437909 98.410877 0.000161437909 101.804281 0.000161437909 105.197685 0.000161437909 108.59109 0.000161437909 111.984494 3.43233137 111.984494 6.8653085 111.984494 6.8653085 115.377898 6.8653085 118.771302 6.8653085 122.164706 6.8653085 125.558111 6.8653085 128.952313 6.8653085 132.344121 6.8653085 135.739919 6.8653085 139.132526 6.8653085 142.526728 6.8653085 145.920132 6.8653085 149.312738 6.8653085 152.706941 3.43233137 152.706941 3.43233137 156.099547 0.000161437909 156.099547 0.000161437909 159.493749 0.000161437909 162.886355 3.43233137 162.886355 6.8653085 162.886355 10.2974784 162.886355 13.7288412 162.886355 17.1618183 162.886355 20.5939882 162.886355 24.0269654 162.886355 27.4591353 162.886355 27.4591353 159.493749 27.4591353 156.099547 27.4591353 152.706941 27.4591353 149.312738 27.4591353 145.920132 27.4591353 142.526728 27.4591353 139.132526 27.4591353 135.739919 27.4591353 132.344121 27.4591353 128.952313 27.4591353 125.558111 27.4591353 122.164706 30.890498 122.164706 30.890498 125.558111 30.890498 128.952313 30.890498 132.344121 30.890498 135.739919 30.890498 139.132526 30.890498 142.526728 30.890498 145.920132 30.890498 149.312738 30.890498 152.706941 30.890498 156.099547 30.890498 159.493749 30.890498 162.886355 34.322668 162.886355 37.7556451 162.886355 41.1862007 162.886355 44.6191778 162.886355 48.0513477 162.886355 51.4843248 162.886355 54.9156876 162.886355 58.3478575 162.886355 58.3478575 159.493749 58.3478575 156.099547 54.9164948 156.099547 54.9164948 152.706941 51.4843248 152.706941 51.4843248 149.312738 51.4843248 145.920132 51.4843248 142.526728 51.4843248 139.132526 51.4843248 135.739919 51.4843248 132.344121 51.4843248 128.952313 51.4843248 125.558111 51.4843248 122.164706 51.4843248 118.771302 51.4843248 115.377898 51.4843248 111.984494 51.4843248 108.59109 51.4843248 105.197685 51.4843248 101.804281 51.4843248 98.410877 51.4843248 95.0174728 54.9156876 95.0174728 58.3478575 95.0174728 61.7808346 95.0174728 65.2130046 95.0174728 68.6451745 95.0174728 72.0765373 95.0174728 75.5095144 95.0174728 75.5095144 91.6248666 75.5095144 88.2306643 75.5095144 84.8372601 72.0765373 84.8372601 72.0765373 88.2306643 72.0765373 91.6248666 68.6459817 91.6248666 65.2130046 91.6248666 61.7808346 91.6248666 58.3478575 91.6248666 54.9164948 91.6248666 51.4843248 91.6248666 48.0513477 91.6248666 48.0513477 95.0174728 48.0513477 98.410877 48.0513477 101.804281 44.6191778 101.804281 41.187815 101.804281 37.7556451 101.804281 34.322668 101.804281 30.890498 101.804281 27.4591353 101.804281 24.0269654 101.804281 20.5939882 101.804281 17.1618183 101.804281 13.7304556 101.804281 10.2974784 101.804281 10.2974784 105.197685 13.7288412 105.197685 17.1618183 105.197685 20.5939882 105.197685 24.0269654 105.197685 27.4575209 105.197685 30.890498 105.197685 34.322668 105.197685 37.7556451 105.197685 41.1862007 105.197685 44.6191778 105.197685 48.0513477 105.197685 48.0513477 108.59109 48.0513477 111.984494 48.0513477 115.377898 48.0513477 118.771302 48.0513477 122.164706 48.0513477 125.558111 48.0513477 128.952313 48.0513477 132.344121 48.0513477 135.739919 48.0513477 139.132526 48.0513477 142.526728 48.0513477 145.920132 48.0513477 149.312738 48.0513477 152.706941 44.6191778 152.706941 41.187815 152.706941 37.7556451 152.706941 34.322668 152.706941 34.322668 149.312738 34.322668 145.920132 34.322668 142.526728 34.322668 139.132526 34.322668 135.739919 34.322668 132.344121 34.322668 128.952313 34.322668 125.558111 34.322668 122.164706 34.322668 118.771302 30.890498 118.771302 27.4591353 118.771302 24.0269654 118.771302 24.0269654 122.164706 24.0269654 125.558111 24.0269654 128.952313 24.0269654 132.344121 24.0269654 135.739919 24.0269654 139.132526 24.0269654 142.526728 24.0269654 145.920132 24.0269654 149.312738 24.0269654 152.706941 20.5939882 152.706941 17.1618183 152.706941 13.7304556 152.706941 10.2974784 152.706941 10.2974784 149.312738 10.2974784 145.920132 10.2974784 142.526728 10.2974784 139.132526 10.2974784 135.739919 10.2974784 132.344121 10.2974784 128.952313 10.2974784 125.558111 10.2974784 122.164706 10.2974784 118.771302 10.2974784 115.377898 10.2974784 111.984494 10.2974784 108.59109 6.8653085 108.59109 3.43233137 108.59109 3.43233137 105.197685 3.43233137 101.804281 3.43233137 98.410877 3.43233137 95.0174728 3.43233137 91.6248666 3.43233137 88.2306643 3.43233137 84.8372601 3.43233137 81.4438559 3.43233137 78.0496536 3.43233137 74.6570475 3.43233137 71.2628452 3.43233137 67.869441 3.43233137 64.4752387 3.43233137 61.0826326 3.43233137 57.6892283 6.8653085 57.6892283 10.2974784 57.6892283 13.7304556 57.6892283 13.7304556 54.2958241 13.7304556 50.9024199 17.1618183 50.9024199 17.1618183 54.2958241 20.5939882 54.2958241 20.5939882 50.9024199 20.5939882 47.5090157 17.1618183 47.5090157 13.7304556 47.5090157 13.7304556 44.1156115 13.7304556 40.7230054 13.7304556 37.3288031 10.2974784 37.3288031 10.2974784 33.9353989 10.2974784 30.5411966 10.2974784 27.1485904 13.7304556 27.1485904 13.7304556 23.7535901 13.7304556 20.3609839 17.1618183 20.3609839 17.1618183 16.9675797 20.5939882 16.9675797 24.0269654 16.9675797 27.4575209 16.9675797 30.890498 16.9675797 34.322668 16.9675797 37.7556451 16.9675797 41.1862007 16.9675797 41.1862007 20.3609839 44.6191778 20.3609839 44.6191778 23.7535901 44.6191778 27.1485904 48.0513477 27.1485904 48.0513477 30.5411966 48.0513477 33.9353989 48.0513477 37.3288031 44.6191778 37.3288031 44.6191778 40.7230054 44.6191778 44.1156115 44.6191778 47.5090157 41.187815 47.5090157 37.7556451 47.5090157 37.7556451 50.9024199 37.7556451 54.2958241 41.187815 54.2958241 41.187815 50.9024199 44.6191778 50.9024199 44.6191778 54.2958241 44.6191778 57.6892283 48.0513477 57.6892283 51.4843248 57.6892283 54.9156876 57.6892283 54.9156876 61.0826326 54.9156876 64.4752387 54.9156876 67.869441 54.9156876 71.2628452 54.9156876 74.6570475 54.9156876 78.0496536 54.9156876 81.4438559 54.9156876 84.8372601 58.3478575 84.8372601 58.3478575 81.4438559 58.3478575 78.0496536 58.3478575 74.6570475 58.3478575 71.2628452 58.3478575 67.869441 58.3478575 64.4752387 58.3478575 61.0826326 58.3478575 57.6892283 58.3478575 54.2958241 54.9164948 54.2958241 51.4843248 54.2958241 48.0513477 54.2958241 48.0513477 50.9024199 48.0513477 47.5090157 48.0513477 44.1156115 51.4843248 44.1156115 51.4843248 40.7230054 51.4843248 37.3288031 51.4843248 33.9353989 51.4843248 30.5411966 51.4843248 27.1485904 51.4843248 23.7535901 51.4843248 20.3609839 51.4843248 16.9675797 51.4843248 13.5733774 51.4843248 10.1807713 51.4843248 6.786569 48.0513477 6.786569 48.0513477 3.39396286 44.6191778 3.39396286 44.6191778 0.000558650741"></polygon>
                    </g>
                    <g id="Page-1" transform="translate(16.000000, 81.603030) scale(-1, 1) translate(-16.000000, -81.603030) translate(0.000000, 73.103030)">
                        <polygon id="Fill-1" fill="#D35400" points="8.36065368 0.00012934993 8.36065368 2.06951265 4.18026152 2.06951265 4.18026152 4.13911154 2.09028317 4.13911154 2.09028317 6.20849484 8.70915037e-05 6.20849484 8.70915037e-05 10.3479082 2.09028317 10.3479082 2.09028317 12.4172915 4.18026152 12.4172915 4.18026152 14.4868904 8.36065368 14.4868904 8.36065368 16.5564893 22.9918085 16.5564893 22.9918085 14.4868904 27.1719829 14.4868904 27.1719829 12.4172915 29.262179 12.4172915 29.262179 10.3479082 31.3523751 10.3479082 31.3523751 6.20849484 29.262179 6.20849484 29.262179 4.13911154 27.1719829 4.13911154 27.1719829 2.06951265 22.9918085 2.06951265 22.9918085 0.00012934993"></polygon>
                        <polygon id="Fill-2" fill="#BD4200" points="0 8.27820151 0 10.3478004 2.09019608 10.3478004 2.09019608 12.4173993 4.18039216 12.4173993 4.18039216 14.4867826 8.36056658 14.4867826 8.36056658 16.5563815 22.9917214 16.5563815 22.9917214 14.4867826 27.1721136 14.4867826 27.1721136 12.4173993 29.2620919 12.4173993 29.2620919 10.3478004 31.352288 10.3478004 31.352288 8.27820151"></polygon>
                        <polygon id="Fill-3" fill="#FFFFFF" points="4.18039216 14.4868688 6.27058824 14.4868688 6.27058824 2.06949109 4.18039216 2.06949109"></polygon>
                        <polygon id="Fill-4" fill="#FFFFFF" points="25.0819175 14.4868688 27.1721136 14.4868688 27.1721136 2.06949109 25.0819175 2.06949109"></polygon>
                        <polygon id="Fill-5" fill="#FFFFFF" points="8.36056658 8.27828775 22.9917214 8.27828775 22.9917214 6.20868886 8.36056658 6.20868886"></polygon>
                        <polygon id="Fill-6" fill="#FFFFFF" points="10.4507627 10.3478866 12.5409587 10.3478866 12.5409587 4.13908998 10.4507627 4.13908998"></polygon>
                        <polygon id="Fill-7" fill="#FFFFFF" points="14.6311548 10.3478866 16.7213509 10.3478866 16.7213509 4.13908998 14.6311548 4.13908998"></polygon>
                        <polygon id="Fill-8" fill="#FFFFFF" points="18.8113292 10.3478866 20.9015253 10.3478866 20.9015253 4.13908998 18.8113292 4.13908998"></polygon>
                    </g>
                </g>
            </g>
        </g>
    </g>
</svg>