<?xml version="1.0" encoding="UTF-8"?>
<svg width="103px" height="164px" viewBox="0 0 103 164" version="1.1" xmlns="http://www.w3.org/2000/svg" xmlns:xlink="http://www.w3.org/1999/xlink">
    <!-- Generator: Sketch 41.2 (35397) - http://www.bohemiancoding.com/sketch -->
    <title>Page 1</title>
    <desc>Created with Sketch.</desc>
    <defs></defs>
    <g id="ТЕСТ" stroke="none" stroke-width="1" fill="none" fill-rule="evenodd">
        <g id="Длинный-вопрос----Copy" transform="translate(-165.000000, -81.000000)">
            <g id="Group-5" transform="translate(165.000000, 81.000000)">
                <g id="Page-1">
                    <polygon id="Fill-1" fill="#2BA5DA" points="75.2756188 57.82848 75.2756188 54.42688 75.2756188 51.02528 71.8540875 51.02528 71.8540875 54.42688 71.8540875 57.82848 68.4317516 57.82848 68.4317516 61.23008 68.4317516 64.63168 68.4317516 68.03328 68.4317516 71.43488 68.4317516 74.83728 68.4317516 78.23808 68.4317516 81.64128 71.8540875 81.64128 75.2756188 81.64128 78.69715 81.64128 78.69715 78.23808 78.69715 74.83728 78.69715 71.43488 78.69715 68.03328 78.69715 64.63168 78.69715 61.23008 78.69715 57.82848"></polygon>
                    <polygon id="Fill-2" fill="#8DC85E" points="99.2266594 61.23008 95.8043234 61.23008 92.3835969 61.23008 92.3827922 61.23008 88.9620656 61.23008 85.5405344 61.23008 85.5405344 64.63168 88.9620656 64.63168 88.9620656 68.03328 92.3827922 68.03328 92.3827922 71.43488 92.3827922 74.83728 92.3827922 78.23808 88.9620656 78.23808 88.9620656 81.64048 92.3827922 81.64048 92.3835969 81.64048 95.8043234 81.64048 99.2266594 81.64048 99.2266594 78.23808 95.8043234 78.23808 95.8043234 74.83728 95.8043234 71.43488 95.8043234 68.03328 99.2266594 68.03328 99.2266594 64.63168 102.648191 64.63168 102.648191 61.23008"></polygon>
                    <polygon id="Fill-3" fill="#828386" points="99.2266594 81.64064 95.8043234 81.64064 92.3835969 81.64064 92.3827922 81.64064 88.9620656 81.64064 85.5405344 81.64064 82.1181984 81.64064 78.6974719 81.64064 75.2751359 81.64064 71.8536047 81.64064 68.4328781 81.64064 68.4320734 81.64064 65.0105422 81.64064 61.5890109 81.64064 58.1674797 81.64064 58.1674797 85.04224 61.5890109 85.04224 65.0105422 85.04224 68.4320734 85.04224 68.4328781 85.04224 71.8536047 85.04224 75.2751359 85.04224 78.6974719 85.04224 82.1181984 85.04224 85.5405344 85.04224 88.9620656 85.04224 92.3827922 85.04224 92.3835969 85.04224 95.8043234 85.04224 99.2266594 85.04224 102.648191 85.04224 102.648191 81.64064"></polygon>
                    <polygon id="Fill-4" fill="#F8B71C" points="44.4809523 57.82848 44.4809523 61.23008 41.0594211 61.23008 41.0594211 64.63168 37.6386945 64.63168 37.6386945 68.03328 37.6386945 71.43488 37.6386945 74.83728 37.6386945 78.23808 37.6386945 81.64128 37.6386945 85.04208 37.6386945 88.44448 37.6386945 91.84528 37.6386945 95.24688 41.0594211 95.24688 41.0594211 98.64848 44.4809523 98.64848 44.4809523 102.05008 47.9024836 102.05008 47.9024836 98.64848 47.9024836 95.24688 47.9024836 91.84528 47.9024836 88.44448 47.9024836 85.04208 47.9024836 81.64128 47.9024836 78.23808 47.9024836 74.83728 47.9024836 71.43488 47.9024836 68.03328 47.9024836 64.63168 47.9024836 61.23008 47.9024836 57.82848"></polygon>
                    <polygon id="Fill-5" fill="#F8B71C" points="17.1082195 61.23 13.687493 61.23 13.687493 57.8284 10.2659617 57.8284 10.2659617 61.23 10.2659617 64.6316 10.2659617 68.0332 10.2659617 71.4348 10.2659617 74.8372 10.2659617 78.238 10.2659617 81.6412 10.2659617 85.042 10.2659617 88.4444 10.2659617 91.846 10.2659617 95.2468 10.2659617 98.6484 10.2659617 102.05 13.687493 102.05 13.687493 98.6484 17.1082195 98.6484 17.1082195 95.2468 20.5297508 95.2468 20.5297508 91.846 20.5297508 88.4444 20.5297508 85.042 20.5297508 81.6412 20.5297508 78.238 20.5297508 74.8372 20.5297508 71.4348 20.5297508 68.0332 20.5297508 64.6316 17.1082195 64.6316"></polygon>
                    <polygon id="Fill-6" fill="#4990E2" points="44.4809523 105.45192 41.0602258 105.45192 41.0594211 105.45192 37.6386945 105.45192 34.2163586 105.45192 30.7948273 105.45192 27.3741008 105.45192 27.3724914 105.45192 23.9517648 105.45192 20.5302336 105.45192 17.1078977 105.45192 13.6871711 105.45192 13.6863664 105.45192 10.2656398 105.45192 10.2656398 108.85352 10.2656398 112.25512 10.2656398 115.65672 10.2656398 119.05832 10.2656398 122.45992 10.2656398 125.86152 10.2656398 129.26392 10.2656398 132.66472 10.2656398 136.06792 10.2656398 139.46872 10.2656398 142.87032 10.2656398 146.27192 10.2656398 149.67352 10.2656398 153.07512 13.6863664 153.07512 13.6871711 153.07512 17.1078977 153.07512 20.5302336 153.07512 23.9517648 153.07512 23.9517648 149.67352 23.9517648 146.27192 23.9517648 142.87032 23.9517648 139.46872 23.9517648 136.06792 23.9517648 132.66472 23.9517648 129.26392 23.9517648 125.86152 23.9517648 122.45992 23.9517648 119.05832 27.3724914 119.05832 27.3741008 119.05832 30.7948273 119.05832 34.2163586 119.05832 34.2163586 122.45992 34.2163586 125.86152 34.2163586 129.26392 34.2163586 132.66472 34.2163586 136.06792 34.2163586 139.46872 34.2163586 142.87032 34.2163586 146.27192 34.2163586 149.67352 34.2163586 153.07512 37.6386945 153.07512 41.0594211 153.07512 41.0602258 153.07512 44.4809523 153.07512 47.9024836 153.07512 47.9024836 149.67352 47.9024836 146.27192 47.9024836 142.87032 47.9024836 139.46872 47.9024836 136.06792 47.9024836 132.66472 47.9024836 129.26392 47.9024836 125.86152 47.9024836 122.45992 47.9024836 119.05832 47.9024836 115.65672 47.9024836 112.25512 47.9024836 108.85352 47.9024836 105.45192"></polygon>
                    <path d="M34.2165195,44.22216 L30.7949883,44.22216 L27.3742617,44.22216 L27.3726523,44.22216 L23.9519258,44.22216 L20.5303945,44.22216 L20.5303945,40.82056 L23.9519258,40.82056 L27.3726523,40.82056 L27.3742617,40.82056 L30.7949883,40.82056 L34.2165195,40.82056 L37.6380508,40.82056 L37.6380508,44.22216 L34.2165195,44.22216 Z M37.6380508,27.21416 L37.6380508,30.61496 L34.2165195,30.61496 L34.2165195,27.21416 L34.2165195,23.81096 L37.6380508,23.81096 L37.6380508,27.21416 Z M20.5303945,23.81096 L23.9519258,23.81096 L23.9519258,27.21416 L23.9519258,30.61496 L20.5303945,30.61496 L20.5303945,27.21416 L20.5303945,23.81096 Z M13.6865273,40.82056 L13.6865273,44.22216 L13.6865273,47.62376 L17.1080586,47.62376 L20.5303945,47.62376 L23.9519258,47.62376 L23.9519258,51.02536 L27.3726523,51.02536 L27.3726523,54.42696 L30.7949883,54.42696 L30.7949883,51.02536 L34.2165195,51.02536 L34.2165195,47.62376 L37.6380508,47.62376 L41.0587773,47.62376 L41.0603867,47.62376 L44.4811133,47.62376 L44.4811133,44.22216 L44.4811133,40.82056 L44.4811133,37.41896 L47.9026445,37.41896 L47.9026445,34.01736 L47.9026445,30.61496 L47.9026445,27.21416 L44.4811133,27.21416 L44.4811133,23.81096 L44.4811133,20.41016 L41.0603867,20.41016 L41.0603867,17.00776 L37.6380508,17.00776 L34.2165195,17.00776 L30.7949883,17.00776 L27.3742617,17.00776 L27.3726523,17.00776 L23.9519258,17.00776 L20.5303945,17.00776 L17.1080586,17.00776 L17.1080586,20.41016 L13.6865273,20.41016 L13.6865273,23.81096 L13.6865273,27.21416 L10.2658008,27.21416 L10.2658008,30.61496 L10.2658008,34.01736 L10.2658008,37.41896 L13.6865273,37.41896 L13.6865273,40.82056 Z" id="Fill-7" fill="#F8DFB3"></path>
                    <polygon id="Fill-8" fill="#F8DFB3" points="58.1673188 85.04176 54.7465922 85.04176 54.7457875 85.04176 51.3250609 85.04176 47.902725 85.04176 47.902725 88.44416 47.902725 91.84576 51.3250609 91.84576 54.7457875 91.84576 54.7465922 91.84576 58.1673188 91.84576 61.58885 91.84576 65.0111859 91.84576 65.0111859 88.44416 65.0111859 85.04176 61.58885 85.04176"></polygon>
                    <polygon id="Fill-9" fill="#DDB478" points="30.7945859 40.82064 27.3738594 40.82064 27.3730547 40.82064 23.9523281 40.82064 20.5299922 40.82064 20.5299922 44.22224 23.9523281 44.22224 27.3730547 44.22224 27.3738594 44.22224 30.7945859 44.22224 34.2161172 44.22224 37.6384531 44.22224 37.6384531 40.82064 34.2161172 40.82064"></polygon>
                    <polygon id="Fill-10" fill="#DDB478" points="68.4330391 91.8456 71.8537656 91.8456 71.8537656 88.444 71.8537656 85.0416 68.4330391 85.0416 68.4322344 85.0416 65.0115078 85.0416 65.0115078 88.444 65.0115078 91.8456 68.4322344 91.8456"></polygon>
                    <polygon id="Fill-11" fill="#DDB478" points="3.42185313 102.05032 3.42185313 105.45192 3.42185313 108.85352 6.84338438 108.85352 10.2657203 108.85352 10.2657203 105.45192 10.2657203 102.05032 6.84338438 102.05032"></polygon>
                    <polygon id="Fill-12" fill="#FEFEFE" points="41.0590992 54.42688 37.6383727 54.42688 37.6383727 51.02528 37.6383727 47.62368 34.2168414 47.62368 34.2168414 51.02528 30.7945055 51.02528 30.7945055 54.42688 27.3737789 54.42688 27.3737789 51.02528 23.9522477 51.02528 23.9522477 47.62368 20.5299117 47.62368 20.5299117 51.02528 20.5299117 54.42688 17.1083805 54.42688 17.1083805 51.02528 13.6860445 51.02528 13.6860445 54.42688 13.6860445 57.82848 13.6860445 61.23008 17.1083805 61.23008 17.1083805 64.63168 20.5299117 64.63168 20.5299117 68.03328 20.5299117 71.43488 20.5299117 74.83728 20.5299117 78.23808 20.5299117 81.64128 20.5299117 85.04208 20.5299117 88.44368 20.5299117 91.84528 20.5299117 95.24688 17.1083805 95.24688 17.1083805 98.64848 13.6860445 98.64848 13.6860445 102.05008 17.1083805 102.05008 20.5299117 102.05008 23.9522477 102.05008 27.3729742 102.05008 27.3737789 102.05008 30.7945055 102.05008 34.2168414 102.05008 37.6383727 102.05008 41.0590992 102.05008 41.0599039 102.05008 44.4806305 102.05008 44.4806305 98.64848 41.0599039 98.64848 41.0599039 95.24688 37.6383727 95.24688 37.6383727 91.84528 37.6383727 88.44368 37.6383727 85.04208 37.6383727 81.64128 37.6383727 78.23808 37.6383727 74.83728 37.6383727 71.43488 37.6383727 68.03328 37.6383727 64.63168 41.0599039 64.63168 41.0599039 61.23008 44.4806305 61.23008 44.4806305 57.82848 44.4806305 54.42688 44.4806305 51.02528 41.0590992 51.02528"></polygon>
                    <polygon id="Fill-13" fill="#FEFEFE" points="3.42185313 57.82848 3.42185313 61.23008 3.42185313 64.63168 3.42185313 68.03328 3.42185313 71.43488 3.42185313 74.83728 3.42185313 78.23808 3.42185313 81.64128 3.42185313 85.04208 3.42185313 88.44448 3.42185313 91.84528 3.42185313 95.24688 3.42185313 98.64848 3.42185313 102.05008 6.84338438 102.05008 10.2657203 102.05008 10.2657203 98.64848 10.2657203 95.24688 10.2657203 91.84528 10.2657203 88.44448 10.2657203 85.04208 10.2657203 81.64128 10.2657203 78.23808 10.2657203 74.83728 10.2657203 71.43488 10.2657203 68.03328 10.2657203 64.63168 10.2657203 61.23008 10.2657203 57.82848 6.84338438 57.82848"></polygon>
                    <polygon id="Fill-14" fill="#FEFEFE" points="47.9028859 57.82848 47.9028859 61.23008 47.9028859 64.63168 47.9028859 68.03328 47.9028859 71.43488 47.9028859 74.83728 47.9028859 78.23808 47.9028859 81.64128 47.9028859 85.04208 51.3244172 85.04208 54.7467531 85.04208 54.7467531 81.64128 54.7467531 78.23808 54.7467531 74.83728 54.7467531 71.43488 54.7467531 68.03328 54.7467531 64.63168 54.7467531 61.23008 54.7467531 57.82848 51.3244172 57.82848"></polygon>
                    <polygon id="Fill-15" fill="#221F20" points="20.5301531 27.2144 20.5301531 30.6152 23.9516844 30.6152 23.9516844 27.2144 23.9516844 23.8112 20.5301531 23.8112"></polygon>
                    <polygon id="Fill-16" fill="#221F20" points="37.6383727 27.2144 37.6383727 23.8112 34.2168414 23.8112 34.2168414 27.2144 34.2168414 30.6152 37.6383727 30.6152"></polygon>
                    <polygon id="Fill-17" fill="#221F20" points="13.6862859 0.00056 13.6862859 3.40216 10.2655594 3.40216 10.2655594 6.80296 6.84402813 6.80296 6.84402813 10.20536 6.84402813 13.60616 6.84402813 17.00856 6.84402813 20.41016 6.84402813 23.81096 6.84402813 27.21416 6.84402813 30.61496 6.84402813 34.01736 6.84402813 37.41896 6.84402813 40.82136 6.84402813 44.22216 10.2655594 44.22216 10.2655594 47.62376 10.2655594 51.02536 10.2655594 54.42696 6.84402813 54.42696 3.42169219 54.42696 0.000160937501 54.42696 0.000160937501 57.82856 0.000160937501 61.23016 0.000160937501 64.63096 0.000160937501 68.03336 0.000160937501 71.43496 0.000160937501 74.83736 0.000160937501 78.23816 0.000160937501 81.64056 0.000160937501 85.04216 0.000160937501 88.44376 0.000160937501 91.84616 0.000160937501 95.24696 0.000160937501 98.64856 0.000160937501 102.05016 0.000160937501 105.45176 0.000160937501 108.85336 0.000160937501 112.25496 3.42169219 112.25496 6.84402813 112.25496 6.84402813 115.65656 6.84402813 119.05816 6.84402813 122.45976 6.84402813 125.86136 6.84402813 129.26376 6.84402813 132.66376 6.84402813 136.06776 6.84402813 139.46856 6.84402813 142.87096 6.84402813 146.27256 6.84402813 149.67336 6.84402813 153.07576 3.42169219 153.07576 3.42169219 156.47656 0.000160937501 156.47656 0.000160937501 159.87896 0.000160937501 163.27976 3.42169219 163.27976 6.84402813 163.27976 10.2655594 163.27976 13.6862859 163.27976 13.6878953 163.27976 17.1086219 163.27976 20.5301531 163.27976 23.9524891 163.27976 27.3740203 163.27976 27.3740203 159.87896 27.3740203 156.47656 27.3740203 153.07576 27.3740203 149.67336 27.3740203 146.27256 27.3740203 142.87096 27.3740203 139.46856 27.3740203 136.06776 27.3740203 132.66376 27.3740203 129.26376 27.3740203 125.86136 27.3740203 122.45976 30.7947469 122.45976 30.7947469 125.86136 30.7947469 129.26376 30.7947469 132.66376 30.7947469 136.06776 30.7947469 139.46856 30.7947469 142.87096 30.7947469 146.27256 30.7947469 149.67336 30.7947469 153.07576 30.7947469 156.47656 30.7947469 159.87896 30.7947469 163.27976 34.2162781 163.27976 37.6386141 163.27976 41.0585359 163.27976 41.0601453 163.27976 44.4808719 163.27976 47.9024031 163.27976 51.3247391 163.27976 54.7454656 163.27976 54.7462703 163.27976 58.1669969 163.27976 58.1669969 159.87896 58.1669969 156.47656 54.7462703 156.47656 54.7462703 153.07576 51.3247391 153.07576 51.3247391 149.67336 51.3247391 146.27256 51.3247391 142.87096 51.3247391 139.46856 51.3247391 136.06776 51.3247391 132.66376 51.3247391 129.26376 51.3247391 125.86136 51.3247391 122.45976 51.3247391 119.05816 51.3247391 115.65656 51.3247391 112.25496 51.3247391 108.85336 51.3247391 105.45176 51.3247391 102.05016 51.3247391 98.64856 51.3247391 95.24696 54.7454656 95.24696 54.7462703 95.24696 58.1669969 95.24696 61.5893328 95.24696 65.0108641 95.24696 68.4323953 95.24696 68.4332 95.24696 71.8531219 95.24696 75.2754578 95.24696 75.2754578 91.84616 75.2754578 88.44376 75.2754578 85.04216 71.8531219 85.04216 71.8531219 88.44376 71.8531219 91.84616 68.4332 91.84616 68.4323953 91.84616 65.0108641 91.84616 61.5893328 91.84616 58.1669969 91.84616 54.7462703 91.84616 54.7454656 91.84616 51.3247391 91.84616 47.9024031 91.84616 47.9024031 95.24696 47.9024031 98.64856 47.9024031 102.05016 44.4808719 102.05016 41.0601453 102.05016 41.0585359 102.05016 37.6386141 102.05016 34.2162781 102.05016 30.7947469 102.05016 27.3740203 102.05016 27.3724109 102.05016 23.9524891 102.05016 20.5301531 102.05016 17.1086219 102.05016 13.6878953 102.05016 13.6862859 102.05016 10.2655594 102.05016 10.2655594 105.45176 13.6862859 105.45176 13.6878953 105.45176 17.1086219 105.45176 20.5301531 105.45176 23.9524891 105.45176 27.3724109 105.45176 27.3740203 105.45176 30.7947469 105.45176 34.2162781 105.45176 37.6386141 105.45176 41.0585359 105.45176 41.0601453 105.45176 44.4808719 105.45176 47.9024031 105.45176 47.9024031 108.85336 47.9024031 112.25496 47.9024031 115.65656 47.9024031 119.05816 47.9024031 122.45976 47.9024031 125.86136 47.9024031 129.26376 47.9024031 132.66376 47.9024031 136.06776 47.9024031 139.46856 47.9024031 142.87096 47.9024031 146.27256 47.9024031 149.67336 47.9024031 153.07576 44.4808719 153.07576 41.0601453 153.07576 41.0585359 153.07576 37.6386141 153.07576 34.2162781 153.07576 34.2162781 149.67336 34.2162781 146.27256 34.2162781 142.87096 34.2162781 139.46856 34.2162781 136.06776 34.2162781 132.66376 34.2162781 129.26376 34.2162781 125.86136 34.2162781 122.45976 34.2162781 119.05816 30.7947469 119.05816 27.3740203 119.05816 27.3724109 119.05816 23.9524891 119.05816 23.9524891 122.45976 23.9524891 125.86136 23.9524891 129.26376 23.9524891 132.66376 23.9524891 136.06776 23.9524891 139.46856 23.9524891 142.87096 23.9524891 146.27256 23.9524891 149.67336 23.9524891 153.07576 20.5301531 153.07576 17.1086219 153.07576 13.6878953 153.07576 13.6862859 153.07576 10.2655594 153.07576 10.2655594 149.67336 10.2655594 146.27256 10.2655594 142.87096 10.2655594 139.46856 10.2655594 136.06776 10.2655594 132.66376 10.2655594 129.26376 10.2655594 125.86136 10.2655594 122.45976 10.2655594 119.05816 10.2655594 115.65656 10.2655594 112.25496 10.2655594 108.85336 6.84402813 108.85336 3.42169219 108.85336 3.42169219 105.45176 3.42169219 102.05016 3.42169219 98.64856 3.42169219 95.24696 3.42169219 91.84616 3.42169219 88.44376 3.42169219 85.04216 3.42169219 81.64056 3.42169219 78.23816 3.42169219 74.83736 3.42169219 71.43496 3.42169219 68.03336 3.42169219 64.63096 3.42169219 61.23016 3.42169219 57.82856 6.84402813 57.82856 10.2655594 57.82856 13.6878953 57.82856 13.6878953 54.42696 13.6878953 51.02536 17.1086219 51.02536 17.1086219 54.42696 20.5301531 54.42696 20.5301531 51.02536 20.5301531 47.62376 17.1086219 47.62376 13.6878953 47.62376 13.6878953 44.22216 13.6878953 40.82136 13.6878953 37.41896 10.2655594 37.41896 10.2655594 34.01736 10.2655594 30.61496 10.2655594 27.21416 13.6878953 27.21416 13.6878953 23.81096 13.6878953 20.41016 17.1086219 20.41016 17.1086219 17.00856 20.5301531 17.00856 23.9524891 17.00856 27.3724109 17.00856 27.3740203 17.00856 30.7947469 17.00856 34.2162781 17.00856 37.6386141 17.00856 41.0585359 17.00856 41.0585359 20.41016 44.4808719 20.41016 44.4808719 23.81096 44.4808719 27.21416 47.9024031 27.21416 47.9024031 30.61496 47.9024031 34.01736 47.9024031 37.41896 44.4808719 37.41896 44.4808719 40.82136 44.4808719 44.22216 44.4808719 47.62376 41.0601453 47.62376 41.0585359 47.62376 37.6386141 47.62376 37.6386141 51.02536 37.6386141 54.42696 41.0601453 54.42696 41.0601453 51.02536 44.4808719 51.02536 44.4808719 54.42696 44.4808719 57.82856 47.9024031 57.82856 51.3247391 57.82856 54.7454656 57.82856 54.7454656 61.23016 54.7454656 64.63096 54.7454656 68.03336 54.7454656 71.43496 54.7454656 74.83736 54.7454656 78.23816 54.7454656 81.64056 54.7454656 85.04216 58.1669969 85.04216 58.1669969 81.64056 58.1669969 78.23816 58.1669969 74.83736 58.1669969 71.43496 58.1669969 68.03336 58.1669969 64.63096 58.1669969 61.23016 58.1669969 57.82856 58.1669969 54.42696 54.7462703 54.42696 54.7454656 54.42696 51.3247391 54.42696 47.9024031 54.42696 47.9024031 51.02536 47.9024031 47.62376 47.9024031 44.22216 51.3247391 44.22216 51.3247391 40.82136 51.3247391 37.41896 51.3247391 34.01736 51.3247391 30.61496 51.3247391 27.21416 51.3247391 23.81096 51.3247391 20.41016 51.3247391 17.00856 51.3247391 13.60616 51.3247391 10.20536 51.3247391 6.80296 47.9024031 6.80296 47.9024031 3.40216 44.4808719 3.40216 44.4808719 0.00056"></polygon>
                </g>
            </g>
        </g>
    </g>
</svg>