<?xml version="1.0" encoding="UTF-8"?>
<svg width="84px" height="164px" viewBox="0 0 84 164" version="1.1" xmlns="http://www.w3.org/2000/svg" xmlns:xlink="http://www.w3.org/1999/xlink">
    <!-- Generator: Sketch 41.2 (35397) - http://www.bohemiancoding.com/sketch -->
    <title>Group 5</title>
    <desc>Created with Sketch.</desc>
    <defs></defs>
    <g id="ТЕСТ" stroke="none" stroke-width="1" fill="none" fill-rule="evenodd">
        <g id="В-какой-сфере---mob" transform="translate(-168.000000, -75.000000)">
            <g id="Group-5" transform="translate(168.000000, 75.000000)">
                <polygon id="Fill-77" fill="#A5A6A5" points="76.7402297 96.76 80.0767273 96.76 80.0767273 93.4235024 76.7402297 93.4235024"></polygon>
                <polyline id="Fill-78" fill="#A5A6A5" points="70.0680191 96.76 70.0680191 90.0870048 73.4037321 90.0870048 73.4037321 86.7512919 70.0672344 86.7512919 70.0672344 90.0870048 66.7307368 90.0870048 66.7307368 96.76 63.3950239 96.76 63.3950239 100.098067 60.0577416 100.098067 60.0577416 103.432995 56.7204593 103.432995 56.7204593 110.10756 63.3950239 110.10756 63.3950239 106.769493 66.7315215 106.769493 66.7315215 103.432995 70.0680191 103.432995 70.0680191 100.098067 76.7402297 100.098067 76.7402297 96.76 70.0680191 96.76"></polyline>
                <path d="M43.3752536,80.0782967 L43.3752536,60.059311 L40.0379713,60.059311 L40.0379713,80.0782967 L16.682488,80.0782967 L16.682488,60.059311 L13.3452057,60.059311 L13.3452057,80.0782967 L10.0094928,80.0782967 L10.0094928,100.098067 L16.6817033,100.098067 L16.6817033,103.432995 L10.0094928,103.432995 L10.0094928,153.482813 L23.3554833,153.482813 L23.3554833,120.117053 L33.3649761,120.117053 L33.3649761,153.482813 L46.7109665,153.482813 L46.7109665,103.432995 L33.3649761,103.432995 L33.3649761,106.769493 L23.3554833,106.769493 L23.3554833,103.432995 L20.0189856,103.432995 L20.0189856,100.098067 L23.3554833,100.098067 L23.3554833,96.76 L33.3649761,96.76 L33.3649761,100.098067 L46.7109665,100.098067 L46.7109665,80.0782967 L43.3752536,80.0782967 Z M33.3649761,83.4147943 L40.0379713,83.4147943 L40.0379713,86.7512919 L30.0284785,86.7512919 L30.0284785,83.4147943 L33.3649761,83.4147943 L33.3649761,83.4147943 Z" id="Fill-79" fill="#338287"></path>
                <path d="M46.7109665,10.0110622 L46.7109665,6.67456459 L40.038756,6.67456459 L40.038756,3.33806699 L36.7014737,3.33806699 L36.7014737,0 L20.0189856,0 L20.0189856,3.33806699 L16.6817033,3.33806699 L16.6817033,6.67456459 L10.0094928,6.67456459 L10.0094928,13.3475598 L6.67221053,13.3475598 L6.67221053,20.0197703 L50.0482488,20.0197703 L50.0482488,13.3475598 L46.7109665,13.3475598 L46.7109665,10.0110622 Z M23.3554833,16.6840574 L26.6919809,16.6840574 L26.6919809,3.33806699 L23.3554833,3.33806699 L23.3554833,16.6840574 Z M30.0284785,16.6840574 L33.3649761,16.6840574 L33.3649761,3.33806699 L30.0284785,3.33806699 L30.0284785,16.6840574 Z" id="Fill-80" fill="#E29312"></path>
                <polyline id="Fill-81" fill="#E29312" points="36.7014737 86.7512919 40.038756 86.7512919 40.038756 83.4147943 30.0284785 83.4147943 30.0284785 86.7512919 36.7014737 86.7512919"></polyline>
                <polyline id="Fill-82" fill="#E29312" points="13.3452057 100.098067 10.0094928 100.098067 10.0094928 103.432995 16.682488 103.432995 16.682488 100.098067 13.3452057 100.098067"></polyline>
                <polyline id="Fill-83" fill="#E29312" points="43.3744689 100.098067 33.3649761 100.098067 33.3649761 96.76 23.3554833 96.76 23.3554833 100.098067 20.0189856 100.098067 20.0189856 103.432995 23.3554833 103.432995 23.3554833 106.769493 33.3649761 106.769493 33.3649761 103.432995 46.7109665 103.432995 46.7109665 100.098067 43.3744689 100.098067"></polyline>
                <path d="M13.3452057,43.3752536 L13.3452057,50.0482488 L23.3554833,50.0482488 L23.3554833,53.3847464 L33.3649761,53.3847464 L33.3649761,50.0482488 L43.3752536,50.0482488 L43.3752536,40.038756 L46.7109665,40.038756 L46.7109665,30.0292632 L43.3752536,30.0292632 L43.3752536,23.3562679 L40.038756,23.3562679 L40.038756,20.0197703 L16.6817033,20.0197703 L16.6817033,23.3562679 L13.3452057,23.3562679 L13.3452057,30.0292632 L10.0094928,30.0292632 L10.0094928,40.038756 L13.3452057,40.038756 L13.3452057,43.3752536 Z M36.7014737,30.0292632 L36.7014737,33.3657608 L33.3649761,33.3657608 L33.3649761,26.6927656 L36.7014737,26.6927656 L36.7014737,30.0292632 Z M23.3554833,30.0292632 L23.3554833,33.3657608 L20.0189856,33.3657608 L20.0189856,26.6927656 L23.3554833,26.6927656 L23.3554833,30.0292632 Z M33.3649761,46.7133206 L20.0189856,46.7133206 L20.0189856,43.3752536 L36.7014737,43.3752536 L36.7014737,46.7133206 L33.3649761,46.7133206 L33.3649761,46.7133206 Z" id="Fill-84" fill="#F7DEAF"></path>
                <polyline id="Fill-85" fill="#FFFFFF" points="26.6919809 13.3475598 26.6919809 3.33806699 23.3554833 3.33806699 23.3554833 16.6832727 26.6919809 16.6832727 26.6919809 13.3475598"></polyline>
                <polyline id="Fill-86" fill="#FFFFFF" points="33.3649761 13.3475598 33.3649761 3.33806699 30.0284785 3.33806699 30.0284785 16.6832727 33.3649761 16.6832727 33.3649761 13.3475598"></polyline>
                <polyline id="Fill-87" fill="#FFFFFF" points="53.3855311 96.76 53.3855311 60.059311 43.3752536 60.059311 43.3752536 53.3847464 40.0379713 53.3847464 40.0379713 56.7228134 36.7014737 56.7228134 36.7014737 60.059311 33.3649761 60.059311 33.3649761 56.7228134 36.7014737 56.7228134 36.7014737 50.0482488 33.3649761 50.0482488 33.3649761 53.3847464 23.3554833 53.3847464 23.3554833 50.0482488 20.0189856 50.0482488 20.0189856 56.7228134 23.3554833 56.7228134 23.3554833 60.059311 20.0189856 60.059311 20.0189856 56.7228134 16.682488 56.7228134 16.682488 53.3847464 13.3452057 53.3847464 13.3452057 60.059311 3.33571292 60.059311 3.33571292 103.432995 10.0094928 103.432995 10.0094928 80.0782967 13.3459904 80.0782967 13.3459904 60.059311 16.6817033 60.059311 16.6817033 80.0782967 40.038756 80.0782967 40.038756 60.059311 43.3744689 60.059311 43.3744689 80.0782967 46.7109665 80.0782967 46.7109665 103.432995 56.721244 103.432995 56.721244 100.098067 53.3855311 100.098067 53.3855311 96.76"></polyline>
                <polyline id="Fill-88" fill="#D6B075" points="26.6919809 46.7133206 36.7014737 46.7133206 36.7014737 43.3752536 20.0189856 43.3752536 20.0189856 46.7133206 26.6919809 46.7133206"></polyline>
                <polyline id="Fill-89" fill="#D6B075" points="53.3847464 103.432995 50.0482488 103.432995 50.0482488 110.10756 56.721244 110.10756 56.721244 103.432995 53.3847464 103.432995"></polyline>
                <polygon id="Fill-90" fill="#D6B075" points="3.33571292 110.10756 10.0102775 110.10756 10.0102775 103.432995 3.33571292 103.432995"></polygon>
                <polyline id="Fill-91" fill="#1A1918" points="23.3554833 30.0292632 23.3554833 26.6927656 20.0189856 26.6927656 20.0189856 33.3657608 23.3554833 33.3657608 23.3554833 30.0292632"></polyline>
                <polyline id="Fill-92" fill="#1A1918" points="36.7014737 30.0292632 36.7014737 26.6927656 33.3649761 26.6927656 33.3649761 33.3657608 36.7014737 33.3657608 36.7014737 30.0292632"></polyline>
                <polyline id="Fill-93" fill="#1A1918" points="40.038756 53.3847464 43.3744689 53.3847464 43.3744689 60.059311 53.3847464 60.059311 53.3847464 100.098067 56.7204593 100.098067 56.7204593 103.432995 60.0577416 103.432995 60.0577416 100.098067 56.721244 100.098067 56.721244 56.7228134 46.7109665 56.7228134 46.7109665 46.7133206 50.0482488 46.7133206 50.0482488 20.0197703 40.0379713 20.0197703 40.0379713 23.3562679 43.3744689 23.3562679 43.3744689 30.0292632 46.7109665 30.0292632 46.7109665 40.038756 43.3744689 40.038756 43.3744689 50.0482488 36.7014737 50.0482488 36.7014737 56.7228134 40.038756 56.7228134 40.038756 53.3847464"></polyline>
                <polygon id="Fill-94" fill="#1A1918" points="20.0189856 60.059311 23.3554833 60.059311 23.3554833 56.7228134 20.0189856 56.7228134"></polygon>
                <polygon id="Fill-95" fill="#1A1918" points="33.3649761 60.059311 36.7014737 60.059311 36.7014737 56.7228134 33.3649761 56.7228134"></polygon>
                <polyline id="Fill-96" fill="#1A1918" points="66.7315215 93.4235024 66.7315215 90.0870048 70.0680191 90.0870048 70.0680191 86.7512919 73.4037321 86.7512919 73.4037321 83.4147943 70.0672344 83.4147943 70.0672344 86.7512919 66.7307368 86.7512919 66.7307368 90.0870048 63.3950239 90.0870048 63.3950239 96.76 66.7315215 96.76 66.7315215 93.4235024"></polyline>
                <polygon id="Fill-97" fill="#1A1918" points="80.0767273 96.76 83.4132249 96.76 83.4132249 93.4235024 80.0767273 93.4235024"></polygon>
                <polygon id="Fill-98" fill="#1A1918" points="60.0577416 100.098067 63.3950239 100.098067 63.3950239 96.76 60.0577416 96.76"></polygon>
                <polygon id="Fill-99" fill="#1A1918" points="76.7402297 100.098067 80.0767273 100.098067 80.0767273 96.76 76.7402297 96.76"></polygon>
                <polyline id="Fill-100" fill="#1A1918" points="70.0672344 100.098067 70.0672344 103.432995 66.7307368 103.432995 66.7307368 106.769493 63.3950239 106.769493 63.3950239 110.10756 66.7315215 110.10756 66.7315215 106.769493 70.0680191 106.769493 70.0680191 103.432995 76.7402297 103.432995 76.7402297 100.098067 70.0672344 100.098067"></polyline>
                <polyline id="Fill-101" fill="#1A1918" points="56.721244 110.10756 50.0482488 110.10756 50.0482488 103.432995 46.7109665 103.432995 46.7109665 153.482813 33.3649761 153.482813 33.3649761 120.117053 23.3554833 120.117053 23.3554833 153.482813 10.0094928 153.482813 10.0094928 110.10756 3.33649761 110.10756 3.33649761 60.059311 13.3459904 60.059311 13.3459904 53.3847464 16.6817033 53.3847464 16.6817033 56.7228134 20.0189856 56.7228134 20.0189856 50.0482488 13.3459904 50.0482488 13.3459904 40.038756 10.0094928 40.038756 10.0094928 30.0292632 13.3459904 30.0292632 13.3459904 23.3562679 16.682488 23.3562679 16.682488 20.0197703 6.67221053 20.0197703 6.67221053 46.7133206 10.0094928 46.7133206 10.0094928 56.7228134 0 56.7228134 0 113.444057 6.67221053 113.444057 6.67221053 153.482813 3.33571292 153.482813 3.33571292 163.492306 26.6919809 163.492306 26.6919809 123.45355 30.0284785 123.45355 30.0284785 163.492306 53.3855311 163.492306 53.3855311 153.482813 50.0482488 153.482813 50.0482488 113.444057 63.3950239 113.444057 63.3950239 110.10756 56.721244 110.10756"></polyline>
            </g>
        </g>
    </g>
</svg>