<?xml version="1.0" encoding="UTF-8"?>
<svg width="76px" height="168px" viewBox="0 0 76 168" version="1.1" xmlns="http://www.w3.org/2000/svg" xmlns:xlink="http://www.w3.org/1999/xlink">
    <!-- Generator: Sketch 41.2 (35397) - http://www.bohemiancoding.com/sketch -->
    <title>Page 1</title>
    <desc>Created with Sketch.</desc>
    <defs></defs>
    <g id="ТЕСТ" stroke="none" stroke-width="1" fill="none" fill-rule="evenodd">
        <g id="Вопрос-для-всех" transform="translate(-168.000000, -76.000000)">
            <g id="Group-5" transform="translate(168.000000, 76.000000)">
                <g id="Page-1">
                    <path d="M10.3138468,0.00016076555 L10.3138468,3.41803636 L6.87605957,3.41803636 L6.87605957,6.83671579 L6.87605957,25.7063563 L17.1894213,17.8006999 C17.1894213,17.8006999 36.3670594,18.4152548 43.1998423,19.9865086 C50.0326251,21.5577625 51.5681021,25.7063563 51.5681021,25.7063563 L51.5681021,10.2545914 L51.5681021,6.83671579 L51.5681021,3.41803636 L48.1303149,3.41803636 L48.1303149,0.00016076555 L10.3138468,0.00016076555 Z" id="Fill-2" fill="#221F20"></path>
                    <polygon id="Fill-3" fill="#221F20" points="13.7526043 27.3434871 13.7526043 23.9264153 17.1903915 23.9264153 17.1903915 20.5085397 20.6273702 20.5085397 24.065966 20.5085397 27.5037532 20.5085397 30.9407319 20.5085397 30.9415404 20.5085397 34.3793277 20.5085397 37.8171149 20.5085397 41.2549021 20.5085397 41.2549021 23.9264153 44.6926894 23.9264153 44.6926894 27.3434871 44.6926894 30.7613627 48.1304766 30.7613627 48.1304766 34.1800421 51.5682638 34.1800421 51.5682638 30.7613627 51.5682638 27.3434871 51.5682638 23.9264153 51.5682638 20.5085397 48.1304766 20.5085397 44.6926894 20.5085397 44.6926894 17.0898603 41.2557106 17.0898603 41.2549021 17.0898603 37.8171149 17.0898603 34.3793277 17.0898603 30.9415404 17.0898603 30.9407319 17.0898603 27.5037532 17.0898603 24.065966 17.0898603 20.6273702 17.0898603 17.1903915 17.0898603 17.189583 17.0898603 13.7517957 17.0898603 13.7517957 20.5085397 10.3140085 20.5085397 6.87622128 20.5085397 6.87622128 23.9264153 6.87622128 27.3434871 6.87622128 30.7613627 6.87622128 34.1800421 10.3140085 34.1800421 10.3140085 30.7613627 13.7526043 30.7613627"></polygon>
                    <polygon id="Fill-4" fill="#4990E2" points="3.43778723 58.1051713 3.43778723 61.5230469 3.43778723 64.9409225 3.43778723 68.3587981 3.43778723 71.7766737 3.43778723 75.1953531 3.43778723 78.6132287 3.43778723 82.0303005 3.43778723 85.4489799 3.43778723 88.8668555 3.43778723 92.2847311 3.43778723 95.7018029 3.43778723 99.1204823 3.43778723 102.538358 6.87638298 102.538358 10.3141702 102.538358 10.3141702 99.1204823 10.3141702 95.7018029 10.3141702 92.2847311 10.3141702 88.8668555 10.3141702 85.4489799 10.3141702 82.0303005 10.3141702 78.6132287 10.3141702 75.1953531 10.3141702 71.7766737 10.3141702 68.3587981 10.3141702 64.9409225 10.3141702 61.5230469 10.3141702 58.1051713 6.87638298 58.1051713"></polygon>
                    <polygon id="Fill-5" fill="#4990E2" points="41.2545787 61.5234488 37.8167915 61.5234488 34.3790043 61.5234488 34.3790043 64.9413244 30.941217 64.9413244 27.5034298 64.9413244 24.0656426 64.9413244 24.0656426 61.5234488 20.6270468 61.5234488 17.1900681 61.5234488 17.1900681 58.1055732 13.7514723 58.1055732 13.7514723 61.5234488 13.7514723 64.9413244 13.7514723 68.3583962 13.7514723 71.7770756 13.7514723 75.1949512 13.7514723 78.6128268 13.7514723 82.0307024 13.7514723 85.448578 13.7514723 88.8672574 13.7514723 92.285133 13.7514723 95.7022048 13.7514723 99.1200804 13.7514723 102.53876 17.1892596 102.53876 20.6270468 102.53876 24.0656426 102.53876 27.5034298 102.53876 30.9404085 102.53876 34.3790043 102.53876 34.3790043 99.1200804 37.8167915 99.1200804 41.2545787 99.1200804 44.692366 99.1200804 44.692366 95.7022048 44.692366 92.285133 44.692366 88.8672574 44.692366 85.448578 44.692366 82.0307024 44.692366 78.6128268 44.692366 75.1949512 41.2553872 75.1949512 37.8167915 75.1949512 34.3790043 75.1949512 30.941217 75.1949512 30.941217 71.7770756 30.941217 68.3583962 34.3790043 68.3583962 37.8167915 68.3583962 41.2545787 68.3583962 44.692366 68.3583962 44.692366 64.9413244 44.692366 61.5234488 44.692366 58.1055732 41.2545787 58.1055732"></polygon>
                    <polygon id="Fill-6" fill="#4990E2" points="61.8818681 88.8669359 58.4440809 88.8669359 58.4432723 88.8669359 55.0062936 88.8669359 55.0062936 85.4490603 55.0062936 82.0303809 55.0062936 78.6133091 55.0062936 75.1954335 55.0062936 71.7767541 55.0062936 68.3588785 55.0062936 64.9410029 55.0062936 61.5231273 55.0062936 58.1052517 51.5685064 58.1052517 48.1299106 58.1052517 48.1299106 61.5231273 48.1299106 64.9410029 48.1299106 68.3588785 48.1299106 71.7767541 48.1299106 75.1954335 48.1299106 78.6133091 48.1299106 82.0303809 48.1299106 85.4490603 48.1299106 88.8669359 48.1299106 92.2848115 48.1299106 95.7018833 51.5685064 95.7018833 55.0054851 95.7018833 55.0062936 95.7018833 58.4432723 95.7018833 58.4440809 95.7018833 61.8818681 95.7018833 65.3196553 95.7018833 65.3196553 92.2848115 65.3196553 88.8669359"></polygon>
                    <polygon id="Fill-7" fill="#FEFEFE" points="57.7548255 70.8615962 57.7548255 73.4659981 57.7548255 76.0704 57.7548255 78.6756057 57.7548255 81.2792038 57.7548255 83.8844096 57.7548255 86.4888115 73.8684426 86.4888115 73.8684426 83.8844096 73.8684426 81.2792038 73.8684426 78.6756057 73.8684426 76.0704 73.8684426 73.4659981 73.8684426 70.8615962 73.8684426 68.2571943 57.7548255 68.2571943"></polygon>
                    <polygon id="Stroke-8" stroke="#221F20" stroke-width="4.048" points="57.7548255 70.8615962 57.7548255 73.4659981 57.7548255 76.0704 57.7548255 78.6756057 57.7548255 81.2792038 57.7548255 83.8844096 57.7548255 86.4888115 73.8684426 86.4888115 73.8684426 83.8844096 73.8684426 81.2792038 73.8684426 78.6756057 73.8684426 76.0704 73.8684426 73.4659981 73.8684426 70.8615962 73.8684426 68.2571943 57.7548255 68.2571943"></polygon>
                    <polygon id="Fill-14" fill="#DBDC5D" points="17.1903106 54.6869742 13.7517149 54.6869742 13.7517149 58.1048498 17.1895021 58.1048498 17.1895021 61.5235292 20.6272894 61.5235292 20.6272894 58.1048498 17.1903106 58.1048498"></polygon>
                    <polygon id="Fill-15" fill="#DBDC5D" points="41.2545787 58.1051713 37.8167915 58.1051713 37.8167915 61.5230469 41.2553872 61.5230469 41.2553872 58.1051713 44.692366 58.1051713 44.692366 54.6872957 41.2545787 54.6872957"></polygon>
                    <polygon id="Fill-16" fill="#DBDC5D" points="41.2545787 68.3587177 37.8167915 68.3587177 34.3790043 68.3587177 30.9404085 68.3587177 30.9404085 71.7765933 30.9404085 75.1952727 34.3790043 75.1952727 37.8167915 75.1952727 41.2545787 75.1952727 41.2553872 75.1952727 44.692366 75.1952727 44.692366 71.7765933 44.692366 68.3587177 41.2553872 68.3587177"></polygon>
                    <path d="M37.8168723,30.7616842 L37.8168723,34.1795598 L34.3790851,34.1795598 L34.3790851,30.7616842 L34.3790851,27.3438086 L37.8168723,27.3438086 L37.8168723,30.7616842 Z M37.8168723,47.851866 L34.3790851,47.851866 L30.9412979,47.851866 L30.9404894,47.851866 L27.5035106,47.851866 L24.0657234,47.851866 L20.6271277,47.851866 L20.6271277,44.4331866 L24.0657234,44.4331866 L27.5035106,44.4331866 L30.9404894,44.4331866 L30.9412979,44.4331866 L34.3790851,44.4331866 L37.8168723,44.4331866 L37.8168723,47.851866 Z M20.6271277,30.7616842 L20.6271277,27.3438086 L24.0657234,27.3438086 L24.0657234,30.7616842 L24.0657234,34.1795598 L20.6271277,34.1795598 L20.6271277,30.7616842 Z M44.6924468,27.3438086 L44.6924468,23.925933 L41.2554681,23.925933 L41.2554681,20.5080574 L37.8168723,20.5080574 L34.3790851,20.5080574 L30.9412979,20.5080574 L30.9404894,20.5080574 L27.5035106,20.5080574 L24.0657234,20.5080574 L20.6271277,20.5080574 L17.1893404,20.5080574 L17.1893404,23.925933 L13.7515532,23.925933 L13.7515532,27.3438086 L13.7515532,30.7616842 L10.313766,30.7616842 L10.313766,34.1795598 L10.313766,37.5974354 L10.313766,41.015311 L13.7515532,41.015311 L13.7515532,44.4331866 L13.7515532,47.851866 L13.7515532,51.2697416 L17.1893404,51.2697416 L17.1901489,51.2697416 L20.6271277,51.2697416 L24.0657234,51.2697416 L24.0657234,54.6868134 L24.0657234,58.1054928 L27.5035106,58.1054928 L30.9404894,58.1054928 L30.9412979,58.1054928 L34.3790851,58.1054928 L34.3790851,54.6868134 L34.3790851,51.2697416 L37.8168723,51.2697416 L41.2546596,51.2697416 L41.2554681,51.2697416 L44.6924468,51.2697416 L44.6924468,47.851866 L44.6924468,44.4331866 L44.6924468,41.015311 L48.130234,41.015311 L48.130234,37.5974354 L48.130234,34.1795598 L48.130234,30.7616842 L44.6924468,30.7616842 L44.6924468,27.3438086 Z" id="Fill-17" fill="#F8DFB3"></path>
                    <polygon id="Fill-18" fill="#FEFEFE" points="24.0658043 54.6869742 24.0658043 51.2699024 20.6272085 51.2699024 20.6272085 54.6869742 20.6272085 58.1048498 24.0658043 58.1048498"></polygon>
                    <polygon id="Fill-19" fill="#FEFEFE" points="37.8168723 54.6869742 37.8168723 51.2699024 34.3790851 51.2699024 34.3790851 54.6869742 34.3790851 58.1048498 37.8168723 58.1048498"></polygon>
                    <polygon id="Fill-20" fill="#FEFEFE" points="27.5035915 61.5234488 27.5035915 61.5234488 30.9405702 61.5234488 30.9413787 61.5234488 34.379166 61.5234488 34.379166 58.1055732 30.9413787 58.1055732 30.9405702 58.1055732 27.5035915 58.1055732 24.0658043 58.1055732 24.0658043 61.5234488"></polygon>
                    <polygon id="Fill-21" fill="#FEFEFE" points="72.1958766 92.2847311 72.1958766 88.8668555 68.7580894 88.8668555 68.7572809 88.8668555 65.3194936 88.8668555 65.3194936 92.2847311 65.3194936 95.7018029 68.7572809 95.7018029 68.7580894 95.7018029 72.1958766 95.7018029"></polygon>
                    <polygon id="Fill-22" fill="#FEFEFE" points="10.3141702 105.956555 13.752766 105.956555 13.752766 102.538679 10.3141702 102.538679"></polygon>
                    <polygon id="Fill-23" fill="#FEFEFE" points="17.1897447 105.956555 20.6275319 105.956555 20.6275319 102.538679 17.1897447 102.538679"></polygon>
                    <polygon id="Fill-24" fill="#FEFEFE" points="30.9405702 102.538679 27.5035915 102.538679 24.0658043 102.538679 24.0658043 105.956555 27.5035915 105.956555 30.9405702 105.956555 30.9413787 105.956555 34.379166 105.956555 34.379166 102.538679 30.9413787 102.538679"></polygon>
                    <polygon id="Fill-25" fill="#FEFEFE" points="44.6920426 105.956555 48.1298298 105.956555 48.1298298 102.538679 44.6920426 102.538679"></polygon>
                    <polygon id="Fill-26" fill="#FEFEFE" points="10.3140894 112.792145 10.3140894 109.37427 10.3140894 105.956394 6.87630213 105.956394 3.43770638 105.956394 3.43770638 109.37427 3.43770638 112.792145 6.87630213 112.792145"></polygon>
                    <polygon id="Fill-27" fill="#FEFEFE" points="6.87638298 160.643368 10.3141702 160.643368 10.3141702 157.225493 6.87638298 157.225493"></polygon>
                    <polygon id="Fill-28" fill="#FEFEFE" points="48.1298298 160.643368 51.5684255 160.643368 51.5684255 157.225493 48.1298298 157.225493"></polygon>
                    <polygon id="Fill-29" fill="#FEFEFE" points="3.43778723 164.06044 6.87638298 164.06044 6.87638298 160.643368 3.43778723 160.643368"></polygon>
                    <polygon id="Fill-30" fill="#FEFEFE" points="51.5684255 164.06044 55.0062128 164.06044 55.0062128 160.643368 51.5684255 160.643368"></polygon>
                    <polygon id="Fill-31" fill="#DDB478" points="30.9412979 44.4334278 30.9404894 44.4334278 27.5035106 44.4334278 24.0657234 44.4334278 20.6271277 44.4334278 20.6271277 47.8513033 24.0657234 47.8513033 27.5035106 47.8513033 30.9404894 47.8513033 30.9412979 47.8513033 34.3790851 47.8513033 37.8168723 47.8513033 37.8168723 44.4334278 34.3790851 44.4334278"></polygon>
                    <polygon id="Fill-32" fill="#221F20" points="24.0658043 30.7616842 24.0658043 27.3438086 20.6272085 27.3438086 20.6272085 30.7616842 20.6272085 34.1795598 24.0658043 34.1795598"></polygon>
                    <polygon id="Fill-33" fill="#221F20" points="37.8168723 30.7616842 37.8168723 27.3438086 34.3790851 27.3438086 34.3790851 30.7616842 34.3790851 34.1795598 37.8168723 34.1795598"></polygon>
                    <polygon id="Fill-34" fill="#221F20" points="20.6275319 61.5233684 24.0661277 61.5233684 24.0661277 58.1054928 20.6275319 58.1054928"></polygon>
                    <polygon id="Fill-35" fill="#221F20" points="34.3786809 61.5233684 37.8164681 61.5233684 37.8164681 58.1054928 34.3786809 58.1054928"></polygon>
                    <polygon id="Fill-36" fill="#221F20" points="27.5035915 64.941244 27.5035915 64.941244 30.9405702 64.941244 30.9413787 64.941244 34.379166 64.941244 34.379166 61.5233684 30.9413787 61.5233684 30.9405702 61.5233684 27.5035915 61.5233684 24.0658043 61.5233684 24.0658043 64.941244"></polygon>
                    <path d="M48.1303149,34.1800421 L48.1303149,37.5979177 L48.1303149,41.0149895 L44.6917191,41.0149895 L44.6917191,44.4336689 L44.6917191,47.8515445 L44.6917191,51.2694201 L41.2555489,51.2694201 L37.8169532,51.2694201 L37.8169532,54.6864919 L37.8169532,58.1051713 L41.2555489,58.1051713 L41.2555489,54.6864919 L44.6917191,54.6864919 L44.6917191,58.1051713 L44.6917191,61.5230469 L44.6917191,64.9409225 L44.6917191,68.3587981 L44.6917191,71.7766737 L44.6917191,75.1953531 L44.6917191,78.6132287 L44.6917191,82.0303005 L44.6917191,85.4481761 L44.6917191,88.8668555 L44.6917191,92.2847311 L44.6917191,95.7026067 L44.6917191,99.1196785 L41.2555489,99.1196785 L37.8169532,99.1196785 L34.379166,99.1196785 L34.379166,102.538358 L34.379166,105.957037 L30.9413787,105.957037 L27.5035915,105.957037 L24.0658043,105.957037 L24.0658043,102.538358 L20.6272085,102.538358 L20.6272085,105.957037 L17.1902298,105.957037 L17.1902298,102.538358 L13.7524426,102.538358 L13.7524426,99.1196785 L13.7524426,95.7026067 L13.7524426,92.2847311 L13.7524426,88.8668555 L13.7524426,85.4481761 L13.7524426,82.0303005 L13.7524426,78.6132287 L13.7524426,75.1953531 L13.7524426,71.7766737 L13.7524426,68.3587981 L13.7524426,64.9409225 L13.7524426,61.5230469 L13.7524426,58.1051713 L13.7524426,54.6864919 L17.1894213,54.6864919 L17.1894213,58.1051713 L20.6272085,58.1051713 L20.6272085,54.6864919 L20.6272085,51.2694201 L17.1902298,51.2694201 L13.7524426,51.2694201 L13.7524426,47.8515445 L13.7524426,44.4336689 L13.7524426,41.0149895 L10.3138468,41.0149895 L10.3138468,37.5979177 L10.3138468,34.1800421 L6.87605957,34.1800421 L6.87605957,37.5979177 L6.87605957,41.0149895 L6.87605957,44.4336689 L10.3138468,44.4336689 L10.3138468,47.8515445 L10.3138468,51.2694201 L10.3138468,54.6864919 L6.87605957,54.6864919 L3.43827234,54.6864919 L-0.000323404256,54.6864919 L-0.000323404256,58.1051713 L-0.000323404256,61.5230469 L-0.000323404256,64.9409225 L-0.000323404256,68.3587981 L-0.000323404256,71.7766737 L-0.000323404256,75.1953531 L-0.000323404256,78.6132287 L-0.000323404256,82.0303005 L-0.000323404256,85.4481761 L-0.000323404256,88.8668555 L-0.000323404256,92.2847311 L-0.000323404256,95.7026067 L-0.000323404256,99.1196785 L-0.000323404256,102.538358 L-0.000323404256,105.957037 L-0.000323404256,109.374109 L-0.000323404256,112.792789 L-0.000323404256,116.210664 L3.43746383,116.210664 L6.87605957,116.210664 L6.87605957,119.62854 L6.87605957,123.045611 L6.87605957,126.464291 L6.87605957,129.882167 L6.87605957,133.300042 L6.87605957,136.717114 L6.87605957,140.135793 L6.87605957,143.553669 L6.87605957,146.971544 L6.87605957,150.38942 L6.87605957,153.807296 L6.87605957,157.225975 L3.43746383,157.225975 L3.43746383,160.643047 L-0.000323404256,160.643047 L-0.000323404256,164.060922 L-0.000323404256,167.478798 L3.43746383,167.478798 L6.87605957,167.478798 L10.3138468,167.478798 L13.751634,167.478798 L17.1894213,167.478798 L20.6272085,167.478798 L24.0658043,167.478798 L27.5035915,167.478798 L27.5035915,164.060922 L27.5035915,160.643047 L27.5035915,157.225975 L27.5035915,153.807296 L27.5035915,150.38942 L27.5035915,146.971544 L27.5035915,143.553669 L27.5035915,140.135793 L27.5035915,136.717114 L27.5035915,133.300042 L27.5035915,129.882167 L27.5035915,126.464291 L30.9405702,126.464291 L30.9405702,129.882167 L30.9405702,133.300042 L30.9405702,136.717114 L30.9405702,140.135793 L30.9405702,143.553669 L30.9405702,146.971544 L30.9405702,150.38942 L30.9405702,153.807296 L30.9405702,157.225975 L30.9405702,160.643047 L30.9405702,164.060922 L30.9405702,167.478798 L34.379166,167.478798 L37.8169532,167.478798 L41.2547404,167.478798 L44.6917191,167.478798 L48.1303149,167.478798 L51.5689106,167.478798 L55.0050809,167.478798 L58.4444851,167.478798 L58.4444851,164.060922 L58.4444851,160.643047 L55.0066979,160.643047 L55.0066979,157.225975 L51.5689106,157.225975 L51.5689106,160.643047 L48.1303149,160.643047 L48.1303149,157.225975 L51.5689106,157.225975 L51.5689106,153.807296 L51.5689106,150.38942 L51.5689106,146.971544 L51.5689106,143.553669 L51.5689106,140.135793 L51.5689106,136.717114 L51.5689106,133.300042 L51.5689106,129.882167 L51.5689106,126.464291 L51.5689106,123.045611 L51.5689106,119.62854 L51.5689106,116.210664 L51.5689106,112.792789 L51.5689106,109.374109 L51.5689106,105.957037 L51.5689106,102.538358 L51.5689106,99.1196785 L55.0050809,99.1196785 L58.4436766,99.1196785 L61.8814638,99.1196785 L72.195634,99.1196785 L75.6326128,99.1196785 L75.6326128,85.4481761 L72.1964426,85.4481761 L68.7578468,85.4481761 L65.3200596,85.4481761 L61.8814638,85.4481761 L58.4444851,85.4481761 L58.4444851,82.0303005 L58.4444851,78.6132287 L58.4444851,75.1953531 L58.4444851,71.7766737 L58.4444851,68.3587981 L58.4444851,64.9409225 L58.4444851,61.5230469 L58.4444851,58.1051713 L58.4444851,54.6864919 L55.0066979,54.6864919 L51.5689106,54.6864919 L48.1303149,54.6864919 L48.1303149,51.2694201 L48.1303149,47.8515445 L48.1303149,44.4336689 L51.5689106,44.4336689 L51.5689106,41.0149895 L51.5689106,37.5979177 L51.5689106,34.1800421 L48.1303149,34.1800421 Z M48.1303149,92.2847311 L48.1303149,88.8668555 L48.1303149,85.4481761 L48.1303149,82.0303005 L48.1303149,78.6132287 L48.1303149,75.1953531 L48.1303149,71.7766737 L48.1303149,68.3587981 L48.1303149,64.9409225 L48.1303149,61.5230469 L48.1303149,58.1051713 L51.5689106,58.1051713 L55.0050809,58.1051713 L55.0050809,61.5230469 L55.0050809,64.9409225 L55.0050809,68.3587981 L55.0050809,71.7766737 L55.0050809,75.1953531 L55.0050809,78.6132287 L55.0050809,82.0303005 L55.0050809,85.4481761 L55.0050809,88.8668555 L58.4436766,88.8668555 L58.4444851,88.8668555 L61.8814638,88.8668555 L65.3200596,88.8668555 L68.7570383,88.8668555 L68.7578468,88.8668555 L72.195634,88.8668555 L72.195634,92.2847311 L72.195634,95.7026067 L61.8814638,95.7026067 L58.4444851,95.7026067 L58.4436766,95.7026067 L55.0066979,95.7026067 L55.0050809,95.7026067 L51.5689106,95.7026067 L48.1303149,95.7026067 L48.1303149,92.2847311 Z M3.43827234,99.1196785 L3.43827234,95.7026067 L3.43827234,92.2847311 L3.43827234,88.8668555 L3.43827234,85.4481761 L3.43827234,82.0303005 L3.43827234,78.6132287 L3.43827234,75.1953531 L3.43827234,71.7766737 L3.43827234,68.3587981 L3.43827234,64.9409225 L3.43827234,61.5230469 L3.43827234,58.1051713 L6.87605957,58.1051713 L10.3138468,58.1051713 L10.3138468,61.5230469 L10.3138468,64.9409225 L10.3138468,68.3587981 L10.3138468,71.7766737 L10.3138468,75.1953531 L10.3138468,78.6132287 L10.3138468,82.0303005 L10.3138468,85.4481761 L10.3138468,88.8668555 L10.3138468,92.2847311 L10.3138468,95.7026067 L10.3138468,99.1196785 L10.3138468,102.538358 L13.751634,102.538358 L13.751634,105.957037 L10.3138468,105.957037 L10.3138468,109.374109 L10.3138468,112.792789 L6.87605957,112.792789 L3.43827234,112.792789 L3.43827234,109.374109 L3.43827234,105.957037 L6.87605957,105.957037 L10.3138468,105.957037 L10.3138468,102.538358 L6.87605957,102.538358 L3.43827234,102.538358 L3.43827234,99.1196785 Z M44.6917191,105.957037 L48.1303149,105.957037 L48.1303149,102.538358 L44.6917191,102.538358 L44.6917191,105.957037 Z M10.3138468,157.225975 L10.3138468,160.643047 L6.87605957,160.643047 L6.87605957,164.060922 L3.43827234,164.060922 L3.43827234,160.643047 L6.87605957,160.643047 L6.87605957,157.225975 L10.3138468,157.225975 Z M51.5681021,164.060922 L55.0050809,164.060922 L55.0050809,160.643047 L51.5681021,160.643047 L51.5681021,164.060922 Z" id="Fill-37" fill="#221F20"></path>
                    <polygon id="Fill-38" fill="#221F20" points="60.872766 76.5694163 70.4228936 76.5694163 70.4228936 73.5663158 60.872766 73.5663158"></polygon>
                    <polygon id="Fill-39" fill="#221F20" points="60.872766 81.3923828 70.4228936 81.3923828 70.4228936 78.3892823 60.872766 78.3892823"></polygon>
                </g>
            </g>
        </g>
    </g>
</svg>