<?xml version="1.0" encoding="UTF-8"?>
<svg width="104px" height="167px" viewBox="0 0 104 167" version="1.1" xmlns="http://www.w3.org/2000/svg" xmlns:xlink="http://www.w3.org/1999/xlink">
    <!-- Generator: Sketch 41.2 (35397) - http://www.bohemiancoding.com/sketch -->
    <title>Page 1</title>
    <desc>Created with Sketch.</desc>
    <defs></defs>
    <g id="ТЕСТ" stroke="none" stroke-width="1" fill="none" fill-rule="evenodd">
        <g id="Продовольств,-есть-акцизн.---Mobile-Portrait" transform="translate(-147.000000, -78.000000)">
            <g id="Page-1" transform="translate(147.000000, 78.000000)">
                <polygon id="Fill-1" fill="#2BA5DA" points="76.00645 58.886318 76.00645 55.4224937 76.00645 51.9586693 72.5517 51.9586693 72.5517 55.4224937 72.5517 58.886318 69.0961375 58.886318 69.0961375 62.3501424 69.0961375 65.8139668 69.0961375 69.2777912 69.0961375 72.7416156 69.0961375 76.2062546 69.0961375 79.6692644 69.0961375 83.134718 72.5517 83.134718 76.00645 83.134718 79.4612 83.134718 79.4612 79.6692644 79.4612 76.2062546 79.4612 72.7416156 79.4612 69.2777912 79.4612 65.8139668 79.4612 62.3501424 79.4612 58.886318"></polygon>
                <polygon id="Fill-2" fill="#8DC85E" points="100.190025 62.3501424 96.7344625 62.3501424 93.280525 62.3501424 93.2797125 62.3501424 89.825775 62.3501424 86.371025 62.3501424 86.371025 65.8139668 89.825775 65.8139668 89.825775 69.2777912 93.2797125 69.2777912 93.2797125 72.7416156 93.2797125 76.2062546 93.2797125 79.6692644 89.825775 79.6692644 89.825775 83.1339034 93.2797125 83.1339034 93.280525 83.1339034 96.7344625 83.1339034 100.190025 83.1339034 100.190025 79.6692644 96.7344625 79.6692644 96.7344625 76.2062546 96.7344625 72.7416156 96.7344625 69.2777912 100.190025 69.2777912 100.190025 65.8139668 103.644775 65.8139668 103.644775 62.3501424"></polygon>
                <polygon id="Fill-3" fill="#828386" points="100.190025 83.1340663 96.7344625 83.1340663 93.280525 83.1340663 93.2797125 83.1340663 89.825775 83.1340663 86.371025 83.1340663 82.9154625 83.1340663 79.461525 83.1340663 76.0059625 83.1340663 72.5512125 83.1340663 69.097275 83.1340663 69.0964625 83.1340663 65.6417125 83.1340663 62.1869625 83.1340663 58.7322125 83.1340663 58.7322125 86.5978907 62.1869625 86.5978907 65.6417125 86.5978907 69.0964625 86.5978907 69.097275 86.5978907 72.5512125 86.5978907 76.0059625 86.5978907 79.461525 86.5978907 82.9154625 86.5978907 86.371025 86.5978907 89.825775 86.5978907 93.2797125 86.5978907 93.280525 86.5978907 96.7344625 86.5978907 100.190025 86.5978907 103.644775 86.5978907 103.644775 83.1340663"></polygon>
                <polygon id="Fill-4" fill="#BF272D" points="44.9128063 58.886318 44.9128063 62.3501424 41.4580563 62.3501424 41.4580563 65.8139668 38.0041188 65.8139668 38.0041188 69.2777912 38.0041188 72.7416156 38.0041188 76.2062546 38.0041188 79.6692644 38.0041188 83.134718 38.0041188 86.5977278 38.0041188 90.0623668 38.0041188 93.5253766 38.0041188 96.989201 41.4580563 96.989201 41.4580563 100.453025 44.9128063 100.453025 44.9128063 103.91685 48.3675563 103.91685 48.3675563 100.453025 48.3675563 96.989201 48.3675563 93.5253766 48.3675563 90.0623668 48.3675563 86.5977278 48.3675563 83.134718 48.3675563 79.6692644 48.3675563 76.2062546 48.3675563 72.7416156 48.3675563 69.2777912 48.3675563 65.8139668 48.3675563 62.3501424 48.3675563 58.886318"></polygon>
                <polygon id="Fill-5" fill="#BF272D" points="17.2743188 62.350061 13.8203813 62.350061 13.8203813 58.8862366 10.3656313 58.8862366 10.3656313 62.350061 10.3656313 65.8138854 10.3656313 69.2777098 10.3656313 72.7415341 10.3656313 76.2061732 10.3656313 79.6691829 10.3656313 83.1346366 10.3656313 86.5976463 10.3656313 90.0622854 10.3656313 93.5261098 10.3656313 96.9891195 10.3656313 100.452944 10.3656313 103.916768 13.8203813 103.916768 13.8203813 100.452944 17.2743188 100.452944 17.2743188 96.9891195 20.7290688 96.9891195 20.7290688 93.5261098 20.7290688 90.0622854 20.7290688 86.5976463 20.7290688 83.1346366 20.7290688 79.6691829 20.7290688 76.2061732 20.7290688 72.7415341 20.7290688 69.2777098 20.7290688 65.8138854 17.2743188 65.8138854"></polygon>
                <polygon id="Fill-6" fill="#384E7F" points="44.9128062 107.380919 41.4588687 107.380919 41.4580562 107.380919 38.0041187 107.380919 34.5485562 107.380919 31.0938062 107.380919 27.6398687 107.380919 27.6382437 107.380919 24.1843062 107.380919 20.7295562 107.380919 17.2739937 107.380919 13.8200562 107.380919 13.8192437 107.380919 10.3653062 107.380919 10.3653062 110.844743 10.3653062 114.308567 10.3653062 117.772392 10.3653062 121.236216 10.3653062 124.70004 10.3653062 128.163865 10.3653062 131.628504 10.3653062 135.091514 10.3653062 138.556967 10.3653062 142.019977 10.3653062 145.483801 10.3653062 148.947626 10.3653062 152.41145 10.3653062 155.875275 13.8192437 155.875275 13.8200562 155.875275 17.2739937 155.875275 20.7295562 155.875275 24.1843062 155.875275 24.1843062 152.41145 24.1843062 148.947626 24.1843062 145.483801 24.1843062 142.019977 24.1843062 138.556967 24.1843062 135.091514 24.1843062 131.628504 24.1843062 128.163865 24.1843062 124.70004 24.1843062 121.236216 27.6382437 121.236216 27.6398687 121.236216 31.0938062 121.236216 34.5485562 121.236216 34.5485562 124.70004 34.5485562 128.163865 34.5485562 131.628504 34.5485562 135.091514 34.5485562 138.556967 34.5485562 142.019977 34.5485562 145.483801 34.5485562 148.947626 34.5485562 152.41145 34.5485562 155.875275 38.0041187 155.875275 41.4580562 155.875275 41.4588687 155.875275 44.9128062 155.875275 48.3675562 155.875275 48.3675562 152.41145 48.3675562 148.947626 48.3675562 145.483801 48.3675562 142.019977 48.3675562 138.556967 48.3675562 135.091514 48.3675562 131.628504 48.3675562 128.163865 48.3675562 124.70004 48.3675562 121.236216 48.3675562 117.772392 48.3675562 114.308567 48.3675562 110.844743 48.3675562 107.380919"></polygon>
                <path d="M34.5487188,45.031102 L31.0939688,45.031102 L27.6400313,45.031102 L27.6384063,45.031102 L24.1844688,45.031102 L20.7297188,45.031102 L20.7297188,41.5672776 L24.1844688,41.5672776 L27.6384063,41.5672776 L27.6400313,41.5672776 L31.0939688,41.5672776 L34.5487188,41.5672776 L38.0034688,41.5672776 L38.0034688,45.031102 L34.5487188,45.031102 Z M38.0034688,27.71198 L38.0034688,31.1749898 L34.5487188,31.1749898 L34.5487188,27.71198 L34.5487188,24.2465263 L38.0034688,24.2465263 L38.0034688,27.71198 Z M20.7297188,24.2465263 L24.1844688,24.2465263 L24.1844688,27.71198 L24.1844688,31.1749898 L20.7297188,31.1749898 L20.7297188,27.71198 L20.7297188,24.2465263 Z M13.8194063,41.5672776 L13.8194063,45.031102 L13.8194063,48.4949263 L17.2741563,48.4949263 L20.7297188,48.4949263 L24.1844688,48.4949263 L24.1844688,51.9587507 L27.6384063,51.9587507 L27.6384063,55.4225751 L31.0939688,55.4225751 L31.0939688,51.9587507 L34.5487188,51.9587507 L34.5487188,48.4949263 L38.0034688,48.4949263 L41.4574063,48.4949263 L41.4590313,48.4949263 L44.9129688,48.4949263 L44.9129688,45.031102 L44.9129688,41.5672776 L44.9129688,38.1034532 L48.3677188,38.1034532 L48.3677188,34.6396288 L48.3677188,31.1749898 L48.3677188,27.71198 L44.9129688,27.71198 L44.9129688,24.2465263 L44.9129688,20.7835166 L41.4590313,20.7835166 L41.4590313,17.3188776 L38.0034688,17.3188776 L34.5487188,17.3188776 L31.0939688,17.3188776 L27.6400313,17.3188776 L27.6384063,17.3188776 L24.1844688,17.3188776 L20.7297188,17.3188776 L17.2741563,17.3188776 L17.2741563,20.7835166 L13.8194063,20.7835166 L13.8194063,24.2465263 L13.8194063,27.71198 L10.3654688,27.71198 L10.3654688,31.1749898 L10.3654688,34.6396288 L10.3654688,38.1034532 L13.8194063,38.1034532 L13.8194063,41.5672776 Z" id="Fill-7" fill="#F8DFB3"></path>
                <polygon id="Fill-8" fill="#F8DFB3" points="58.73205 86.597402 55.2781125 86.597402 55.2773 86.597402 51.8233625 86.597402 48.3678 86.597402 48.3678 90.062041 48.3678 93.5258654 51.8233625 93.5258654 55.2773 93.5258654 55.2781125 93.5258654 58.73205 93.5258654 62.1868 93.5258654 65.6423625 93.5258654 65.6423625 90.062041 65.6423625 86.597402 62.1868 86.597402"></polygon>
                <polygon id="Fill-9" fill="#DDB478" points="31.0935625 41.567359 27.639625 41.567359 27.6388125 41.567359 24.184875 41.567359 20.7293125 41.567359 20.7293125 45.0311834 24.184875 45.0311834 27.6388125 45.0311834 27.639625 45.0311834 31.0935625 45.0311834 34.5483125 45.0311834 38.003875 45.0311834 38.003875 41.567359 34.5483125 41.567359"></polygon>
                <polygon id="Fill-10" fill="#DDB478" points="69.0974375 93.5257024 72.551375 93.5257024 72.551375 90.061878 72.551375 86.597239 69.0974375 86.597239 69.096625 86.597239 65.6426875 86.597239 65.6426875 90.061878 65.6426875 93.5257024 69.096625 93.5257024"></polygon>
                <polygon id="Fill-11" fill="#DDB478" points="3.455075 103.917094 3.455075 107.380919 3.455075 110.844743 6.909825 110.844743 10.3653875 110.844743 10.3653875 107.380919 10.3653875 103.917094 6.909825 103.917094"></polygon>
                <polygon id="Fill-12" fill="#FEFEFE" points="41.4577312 55.4224937 38.0037937 55.4224937 38.0037937 51.9586693 38.0037937 48.4948449 34.5490437 48.4948449 34.5490437 51.9586693 31.0934812 51.9586693 31.0934812 55.4224937 27.6395437 55.4224937 27.6395437 51.9586693 24.1847937 51.9586693 24.1847937 48.4948449 20.7292312 48.4948449 20.7292312 51.9586693 20.7292312 55.4224937 17.2744812 55.4224937 17.2744812 51.9586693 13.8189187 51.9586693 13.8189187 55.4224937 13.8189187 58.886318 13.8189187 62.3501424 17.2744812 62.3501424 17.2744812 65.8139668 20.7292312 65.8139668 20.7292312 69.2777912 20.7292312 72.7416156 20.7292312 76.2062546 20.7292312 79.6692644 20.7292312 83.134718 20.7292312 86.5977278 20.7292312 90.0615522 20.7292312 93.5253766 20.7292312 96.989201 17.2744812 96.989201 17.2744812 100.453025 13.8189187 100.453025 13.8189187 103.91685 17.2744812 103.91685 20.7292312 103.91685 24.1847937 103.91685 27.6387312 103.91685 27.6395437 103.91685 31.0934812 103.91685 34.5490437 103.91685 38.0037937 103.91685 41.4577312 103.91685 41.4585437 103.91685 44.9124812 103.91685 44.9124812 100.453025 41.4585437 100.453025 41.4585437 96.989201 38.0037937 96.989201 38.0037937 93.5253766 38.0037937 90.0615522 38.0037937 86.5977278 38.0037937 83.134718 38.0037937 79.6692644 38.0037937 76.2062546 38.0037937 72.7416156 38.0037937 69.2777912 38.0037937 65.8139668 41.4585437 65.8139668 41.4585437 62.3501424 44.9124812 62.3501424 44.9124812 58.886318 44.9124812 55.4224937 44.9124812 51.9586693 41.4577312 51.9586693"></polygon>
                <polygon id="Fill-13" fill="#FEFEFE" points="3.455075 58.886318 3.455075 62.3501424 3.455075 65.8139668 3.455075 69.2777912 3.455075 72.7416156 3.455075 76.2062546 3.455075 79.6692644 3.455075 83.134718 3.455075 86.5977278 3.455075 90.0623668 3.455075 93.5253766 3.455075 96.989201 3.455075 100.453025 3.455075 103.91685 6.909825 103.91685 10.3653875 103.91685 10.3653875 100.453025 10.3653875 96.989201 10.3653875 93.5253766 10.3653875 90.0623668 10.3653875 86.5977278 10.3653875 83.134718 10.3653875 79.6692644 10.3653875 76.2062546 10.3653875 72.7416156 10.3653875 69.2777912 10.3653875 65.8139668 10.3653875 62.3501424 10.3653875 58.886318 6.909825 58.886318"></polygon>
                <polygon id="Fill-14" fill="#FEFEFE" points="48.3679625 58.886318 48.3679625 62.3501424 48.3679625 65.8139668 48.3679625 69.2777912 48.3679625 72.7416156 48.3679625 76.2062546 48.3679625 79.6692644 48.3679625 83.134718 48.3679625 86.5977278 51.8227125 86.5977278 55.278275 86.5977278 55.278275 83.134718 55.278275 79.6692644 55.278275 76.2062546 55.278275 72.7416156 55.278275 69.2777912 55.278275 65.8139668 55.278275 62.3501424 55.278275 58.886318 51.8227125 58.886318"></polygon>
                <polygon id="Fill-15" fill="#221F20" points="20.729475 27.7122244 20.729475 31.1752341 24.184225 31.1752341 24.184225 27.7122244 24.184225 24.2467707 20.729475 24.2467707"></polygon>
                <polygon id="Fill-16" fill="#221F20" points="38.0037937 27.7122244 38.0037937 24.2467707 34.5490437 24.2467707 34.5490437 27.7122244 34.5490437 31.1752341 38.0037937 31.1752341"></polygon>
                <polygon id="Fill-17" fill="#221F20" points="13.8191625 0.000570243903 13.8191625 3.46439463 10.365225 3.46439463 10.365225 6.92740439 6.910475 6.92740439 6.910475 10.3920434 6.910475 13.8550532 6.910475 17.3196922 6.910475 20.7835166 6.910475 24.2465263 6.910475 27.71198 6.910475 31.1749898 6.910475 34.6396288 6.910475 38.1034532 6.910475 41.5680922 6.910475 45.031102 10.365225 45.031102 10.365225 48.4949263 10.365225 51.9587507 10.365225 55.4225751 6.910475 55.4225751 3.4549125 55.4225751 0.0001625 55.4225751 0.0001625 58.8863995 0.0001625 62.3502239 0.0001625 65.8132337 0.0001625 69.2778727 0.0001625 72.7416971 0.0001625 76.2063361 0.0001625 79.6693459 0.0001625 83.1339849 0.0001625 86.5978093 0.0001625 90.0616337 0.0001625 93.5262727 0.0001625 96.9892824 0.0001625 100.453107 0.0001625 103.916931 0.0001625 107.380756 0.0001625 110.84458 0.0001625 114.308404 3.4549125 114.308404 6.910475 114.308404 6.910475 117.772229 6.910475 121.236053 6.910475 124.699878 6.910475 128.163702 6.910475 131.628341 6.910475 135.090536 6.910475 138.556804 6.910475 142.019814 6.910475 145.484453 6.910475 148.948278 6.910475 152.411287 6.910475 155.875926 3.4549125 155.875926 3.4549125 159.338936 0.0001625 159.338936 0.0001625 162.803575 0.0001625 166.266585 3.4549125 166.266585 6.910475 166.266585 10.365225 166.266585 13.8191625 166.266585 13.8207875 166.266585 17.274725 166.266585 20.729475 166.266585 24.1850375 166.266585 27.6397875 166.266585 27.6397875 162.803575 27.6397875 159.338936 27.6397875 155.875926 27.6397875 152.411287 27.6397875 148.948278 27.6397875 145.484453 27.6397875 142.019814 27.6397875 138.556804 27.6397875 135.090536 27.6397875 131.628341 27.6397875 128.163702 27.6397875 124.699878 31.093725 124.699878 31.093725 128.163702 31.093725 131.628341 31.093725 135.090536 31.093725 138.556804 31.093725 142.019814 31.093725 145.484453 31.093725 148.948278 31.093725 152.411287 31.093725 155.875926 31.093725 159.338936 31.093725 162.803575 31.093725 166.266585 34.548475 166.266585 38.0040375 166.266585 41.4571625 166.266585 41.4587875 166.266585 44.912725 166.266585 48.367475 166.266585 51.8230375 166.266585 55.276975 166.266585 55.2777875 166.266585 58.731725 166.266585 58.731725 162.803575 58.731725 159.338936 55.2777875 159.338936 55.2777875 155.875926 51.8230375 155.875926 51.8230375 152.411287 51.8230375 148.948278 51.8230375 145.484453 51.8230375 142.019814 51.8230375 138.556804 51.8230375 135.090536 51.8230375 131.628341 51.8230375 128.163702 51.8230375 124.699878 51.8230375 121.236053 51.8230375 117.772229 51.8230375 114.308404 51.8230375 110.84458 51.8230375 107.380756 51.8230375 103.916931 51.8230375 100.453107 51.8230375 96.9892824 55.276975 96.9892824 55.2777875 96.9892824 58.731725 96.9892824 62.1872875 96.9892824 65.6420375 96.9892824 69.0967875 96.9892824 69.0976 96.9892824 72.550725 96.9892824 76.0062875 96.9892824 76.0062875 93.5262727 76.0062875 90.0616337 76.0062875 86.5978093 72.550725 86.5978093 72.550725 90.0616337 72.550725 93.5262727 69.0976 93.5262727 69.0967875 93.5262727 65.6420375 93.5262727 62.1872875 93.5262727 58.731725 93.5262727 55.2777875 93.5262727 55.276975 93.5262727 51.8230375 93.5262727 48.367475 93.5262727 48.367475 96.9892824 48.367475 100.453107 48.367475 103.916931 44.912725 103.916931 41.4587875 103.916931 41.4571625 103.916931 38.0040375 103.916931 34.548475 103.916931 31.093725 103.916931 27.6397875 103.916931 27.6381625 103.916931 24.1850375 103.916931 20.729475 103.916931 17.274725 103.916931 13.8207875 103.916931 13.8191625 103.916931 10.365225 103.916931 10.365225 107.380756 13.8191625 107.380756 13.8207875 107.380756 17.274725 107.380756 20.729475 107.380756 24.1850375 107.380756 27.6381625 107.380756 27.6397875 107.380756 31.093725 107.380756 34.548475 107.380756 38.0040375 107.380756 41.4571625 107.380756 41.4587875 107.380756 44.912725 107.380756 48.367475 107.380756 48.367475 110.84458 48.367475 114.308404 48.367475 117.772229 48.367475 121.236053 48.367475 124.699878 48.367475 128.163702 48.367475 131.628341 48.367475 135.090536 48.367475 138.556804 48.367475 142.019814 48.367475 145.484453 48.367475 148.948278 48.367475 152.411287 48.367475 155.875926 44.912725 155.875926 41.4587875 155.875926 41.4571625 155.875926 38.0040375 155.875926 34.548475 155.875926 34.548475 152.411287 34.548475 148.948278 34.548475 145.484453 34.548475 142.019814 34.548475 138.556804 34.548475 135.090536 34.548475 131.628341 34.548475 128.163702 34.548475 124.699878 34.548475 121.236053 31.093725 121.236053 27.6397875 121.236053 27.6381625 121.236053 24.1850375 121.236053 24.1850375 124.699878 24.1850375 128.163702 24.1850375 131.628341 24.1850375 135.090536 24.1850375 138.556804 24.1850375 142.019814 24.1850375 145.484453 24.1850375 148.948278 24.1850375 152.411287 24.1850375 155.875926 20.729475 155.875926 17.274725 155.875926 13.8207875 155.875926 13.8191625 155.875926 10.365225 155.875926 10.365225 152.411287 10.365225 148.948278 10.365225 145.484453 10.365225 142.019814 10.365225 138.556804 10.365225 135.090536 10.365225 131.628341 10.365225 128.163702 10.365225 124.699878 10.365225 121.236053 10.365225 117.772229 10.365225 114.308404 10.365225 110.84458 6.910475 110.84458 3.4549125 110.84458 3.4549125 107.380756 3.4549125 103.916931 3.4549125 100.453107 3.4549125 96.9892824 3.4549125 93.5262727 3.4549125 90.0616337 3.4549125 86.5978093 3.4549125 83.1339849 3.4549125 79.6693459 3.4549125 76.2063361 3.4549125 72.7416971 3.4549125 69.2778727 3.4549125 65.8132337 3.4549125 62.3502239 3.4549125 58.8863995 6.910475 58.8863995 10.365225 58.8863995 13.8207875 58.8863995 13.8207875 55.4225751 13.8207875 51.9587507 17.274725 51.9587507 17.274725 55.4225751 20.729475 55.4225751 20.729475 51.9587507 20.729475 48.4949263 17.274725 48.4949263 13.8207875 48.4949263 13.8207875 45.031102 13.8207875 41.5680922 13.8207875 38.1034532 10.365225 38.1034532 10.365225 34.6396288 10.365225 31.1749898 10.365225 27.71198 13.8207875 27.71198 13.8207875 24.2465263 13.8207875 20.7835166 17.274725 20.7835166 17.274725 17.3196922 20.729475 17.3196922 24.1850375 17.3196922 27.6381625 17.3196922 27.6397875 17.3196922 31.093725 17.3196922 34.548475 17.3196922 38.0040375 17.3196922 41.4571625 17.3196922 41.4571625 20.7835166 44.912725 20.7835166 44.912725 24.2465263 44.912725 27.71198 48.367475 27.71198 48.367475 31.1749898 48.367475 34.6396288 48.367475 38.1034532 44.912725 38.1034532 44.912725 41.5680922 44.912725 45.031102 44.912725 48.4949263 41.4587875 48.4949263 41.4571625 48.4949263 38.0040375 48.4949263 38.0040375 51.9587507 38.0040375 55.4225751 41.4587875 55.4225751 41.4587875 51.9587507 44.912725 51.9587507 44.912725 55.4225751 44.912725 58.8863995 48.367475 58.8863995 51.8230375 58.8863995 55.276975 58.8863995 55.276975 62.3502239 55.276975 65.8132337 55.276975 69.2778727 55.276975 72.7416971 55.276975 76.2063361 55.276975 79.6693459 55.276975 83.1339849 55.276975 86.5978093 58.731725 86.5978093 58.731725 83.1339849 58.731725 79.6693459 58.731725 76.2063361 58.731725 72.7416971 58.731725 69.2778727 58.731725 65.8132337 58.731725 62.3502239 58.731725 58.8863995 58.731725 55.4225751 55.2777875 55.4225751 55.276975 55.4225751 51.8230375 55.4225751 48.367475 55.4225751 48.367475 51.9587507 48.367475 48.4949263 48.367475 45.031102 51.8230375 45.031102 51.8230375 41.5680922 51.8230375 38.1034532 51.8230375 34.6396288 51.8230375 31.1749898 51.8230375 27.71198 51.8230375 24.2465263 51.8230375 20.7835166 51.8230375 17.3196922 51.8230375 13.8550532 51.8230375 10.3920434 51.8230375 6.92740439 48.367475 6.92740439 48.367475 3.46439463 44.912725 3.46439463 44.912725 0.000570243903"></polygon>
            </g>
        </g>
    </g>
</svg>