<?xml version="1.0" encoding="UTF-8"?>
<svg width="100px" height="164px" viewBox="0 0 100 164" version="1.1" xmlns="http://www.w3.org/2000/svg" xmlns:xlink="http://www.w3.org/1999/xlink">
    <!-- Generator: Sketch 41.2 (35397) - http://www.bohemiancoding.com/sketch -->
    <title>Page 1</title>
    <desc>Created with Sketch.</desc>
    <defs></defs>
    <g id="ТЕСТ" stroke="none" stroke-width="1" fill="none" fill-rule="evenodd">
        <g id="Продовольств,-есть-акцизн.---Mobile-Portrait" transform="translate(-165.000000, -81.000000)">
            <g id="Group-5" transform="translate(165.000000, 81.000000)">
                <g id="Page-1">
                    <path d="M96.1276398,67.19408 L92.8121893,67.19408 L89.4990775,67.19408 L86.1828475,67.19408 L82.8689561,67.19408 L82.8689561,70.5154705 L86.1828475,70.5154705 L89.4990775,70.5154705 L89.4990775,73.835299 L89.4990775,77.1574705 L89.4990775,80.4765181 L89.4990775,83.7979086 L86.1828475,83.7979086 L82.8689561,83.7979086 L82.8689561,87.1185181 L86.1828475,87.1185181 L89.4990775,87.1185181 L92.8121893,87.1185181 L96.1276398,87.1185181 L99.4430903,87.1185181 L99.4430903,67.19408 L96.1276398,67.19408 Z M92.8121893,73.83608 L96.1276398,73.83608 L96.1276398,70.5154705 L92.8121893,70.5154705 L92.8121893,73.83608 Z M92.8121893,80.477299 L96.1276398,80.477299 L96.1276398,77.1574705 L92.8121893,77.1574705 L92.8121893,80.477299 Z" id="Fill-1" fill="#56595C"></path>
                    <polygon id="Fill-2" fill="#56595C" points="86.1835491 80.4765962 86.1835491 77.1567676 86.1835491 73.8353771 82.8688781 73.8353771 79.5549868 73.8353771 79.5542072 73.8353771 76.2395363 73.8353771 76.2395363 77.1567676 76.2395363 80.4765962 79.5542072 80.4765962 79.5549868 80.4765962 82.8688781 80.4765962"></polygon>
                    <polygon id="Fill-3" fill="#56595C" points="72.9249433 83.7979867 72.9249433 80.4765962 72.9249433 77.1567676 72.9249433 73.8353771 72.9249433 70.5147676 76.2396142 70.5147676 79.5550647 70.5147676 79.5550647 67.1941581 76.2396142 67.1941581 72.9249433 67.1941581 69.6102724 67.1941581 69.6102724 70.5147676 69.6102724 73.8353771 69.6102724 77.1567676 69.6102724 80.4765962 69.6102724 83.7979867 69.6102724 87.1185962 72.9249433 87.1185962 76.2396142 87.1185962 79.5550647 87.1185962 79.5550647 83.7979867 76.2396142 83.7979867"></polygon>
                    <polygon id="Fill-4" fill="#403C38" points="23.2039438 60.5524705 23.2039438 63.873861 23.2039438 67.1944705 23.2039438 70.51508 23.2039438 73.8356895 23.2039438 77.15708 23.2039438 80.4769086 23.2039438 83.798299 23.2039438 87.1189086 23.2039438 90.4395181 23.2039438 93.7593467 23.2039438 97.0799562 23.2039438 100.400566 26.5193943 100.400566 26.5193943 97.0799562 26.5193943 93.7593467 26.5193943 90.4395181 26.5193943 87.1189086 26.5193943 83.798299 26.5193943 80.4769086 26.5193943 77.15708 26.5193943 73.8356895 26.5193943 70.51508 26.5193943 67.1944705 26.5193943 63.873861 26.5193943 60.5524705"></polygon>
                    <polygon id="Fill-5" fill="#403C38" points="19.8895847 103.72141 23.2042556 103.72141 23.2042556 100.4008 19.8895847 100.4008"></polygon>
                    <polygon id="Fill-6" fill="#403C38" points="9.94557191 107.042019 13.2602428 107.042019 13.2602428 103.72141 9.94557191 103.72141"></polygon>
                    <polygon id="Fill-7" fill="#403C38" points="6.63090098 110.36341 9.94557191 110.36341 9.94557191 107.042019 6.63090098 107.042019"></polygon>
                    <polygon id="Fill-8" fill="#787A79" points="79.5549868 87.1185181 79.5542072 87.1185181 76.2395363 87.1185181 76.2395363 90.4391276 76.2395363 93.7597371 79.5542072 93.7597371 79.5549868 93.7597371 82.8688781 93.7597371 82.8688781 90.4391276 82.8688781 87.1185181"></polygon>
                    <polygon id="Fill-9" fill="#787A79" points="16.5746799 103.72141 16.5746799 107.042019 16.5746799 110.36341 19.8893508 110.36341 23.2040218 110.36341 23.2040218 107.042019 23.2040218 103.72141 19.8893508 103.72141"></polygon>
                    <path d="M49.7225586,14.0636248 L46.4071081,14.0636248 L43.0916576,14.0636248 L39.7785458,14.0636248 L39.7769867,14.0636248 L36.4630953,14.0636248 L33.1476448,14.0636248 L29.8329739,14.0636248 L29.8329739,17.3842343 L26.5190825,17.3842343 L26.5190825,14.0636248 L29.8329739,14.0636248 L29.8329739,10.7430152 L33.1476448,10.7430152 L36.4630953,10.7430152 L39.7769867,10.7430152 L39.7785458,10.7430152 L43.0916576,10.7430152 L46.4071081,10.7430152 L49.7225586,10.7430152 L53.0356704,10.7430152 L53.0356704,14.0636248 L49.7225586,14.0636248 Z M23.203632,20.7048438 L23.203632,17.3842343 L26.5183029,17.3842343 L26.5183029,20.7048438 L29.8329739,20.7048438 L33.1476448,20.7048438 L36.4630953,20.7048438 L39.7769867,20.7048438 L39.7785458,20.7048438 L43.0916576,20.7048438 L46.4071081,20.7048438 L49.7225586,20.7048438 L53.0356704,20.7048438 L53.0372295,20.7048438 L56.3511209,20.7048438 L56.3511209,17.3842343 L53.0372295,17.3842343 L53.0372295,14.0636248 L56.3511209,14.0636248 L56.3511209,17.3842343 L59.6665714,17.3842343 L59.6665714,20.7048438 L59.6665714,24.0262343 L62.9812423,24.0262343 L62.9812423,20.7048438 L62.9812423,17.3842343 L62.9812423,14.0636248 L62.9812423,10.7430152 L59.6665714,10.7430152 L59.6665714,7.42162476 L56.3511209,7.42162476 L56.3511209,4.10179619 L53.0372295,4.10179619 L53.0356704,4.10179619 L49.7225586,4.10179619 L46.4071081,4.10179619 L43.0916576,4.10179619 L39.7785458,4.10179619 L39.7769867,4.10179619 L36.4630953,4.10179619 L33.1476448,4.10179619 L29.8329739,4.10179619 L26.5183029,4.10179619 L26.5183029,7.42162476 L23.203632,7.42162476 L23.203632,10.7430152 L19.8889611,10.7430152 L19.8889611,14.0636248 L19.8889611,17.3842343 L19.8889611,20.7048438 L19.8889611,24.0262343 L23.203632,24.0262343 L23.203632,20.7048438 Z" id="Fill-10" fill="#D0C6B9"></path>
                    <polygon id="Fill-11" fill="#D0C6B9" points="36.4629394 60.5527048 39.7783899 60.5527048 39.7783899 57.2328762 36.4629394 57.2328762"></polygon>
                    <polygon id="Fill-12" fill="#D0C6B9" points="43.0915017 60.5527048 46.4069522 60.5527048 46.4069522 57.2328762 43.0915017 57.2328762"></polygon>
                    <path d="M39.7783899,73.8351429 L43.0915017,73.8351429 L43.0915017,70.5145333 L39.7783899,70.5145333 L39.7783899,73.8351429 Z M39.7783899,93.759581 L43.0915017,93.759581 L43.0915017,90.4389714 L39.7783899,90.4389714 L39.7783899,93.759581 Z M39.7783899,83.7977524 L43.0915017,83.7977524 L43.0915017,80.4763619 L39.7783899,80.4763619 L39.7783899,83.7977524 Z M72.9250992,87.1183619 L69.6104283,87.1183619 L66.2957573,87.1183619 L66.2957573,83.7977524 L66.2957573,80.4763619 L66.2957573,77.1565333 L66.2957573,73.8351429 L66.2957573,70.5145333 L66.2957573,67.1947048 L66.2957573,63.8740952 L66.2957573,60.5527048 L62.9810864,60.5527048 L59.6664155,60.5527048 L56.350965,60.5527048 L56.350965,57.2328762 L56.350965,53.9114857 L53.0355145,53.9114857 L53.0355145,57.2328762 L49.7224027,57.2328762 L49.7224027,60.5527048 L46.4069522,60.5527048 L46.4069522,63.8740952 L43.0915017,63.8740952 L39.7783899,63.8740952 L39.7768308,63.8740952 L36.4629394,63.8740952 L36.4629394,60.5527048 L33.1474889,60.5527048 L33.1474889,57.2328762 L29.8335975,57.2328762 L29.8335975,53.9114857 L26.5189266,53.9114857 L26.5189266,57.2328762 L26.5189266,60.5527048 L26.5189266,63.8740952 L26.5189266,67.1947048 L26.5189266,70.5145333 L26.5189266,73.8351429 L26.5189266,77.1565333 L26.5189266,80.4763619 L26.5189266,83.7977524 L26.5189266,87.1183619 L26.5189266,90.4389714 L26.5189266,93.759581 L26.5189266,97.0801905 L26.5189266,100.4008 L23.2042556,100.4008 L23.2042556,103.72141 L26.5189266,103.72141 L26.5197061,103.72141 L29.8335975,103.72141 L33.1474889,103.72141 L36.4629394,103.72141 L39.7768308,103.72141 L39.7783899,103.72141 L43.0915017,103.72141 L46.4069522,103.72141 L49.7224027,103.72141 L53.0355145,103.72141 L53.0370736,103.72141 L56.350965,103.72141 L59.6664155,103.72141 L59.6664155,100.4008 L59.6664155,97.0801905 L59.6664155,93.759581 L62.9810864,93.759581 L66.2949778,93.759581 L66.2957573,93.759581 L69.6104283,93.759581 L72.9250992,93.759581 L76.2397701,93.759581 L76.2397701,90.4389714 L76.2397701,87.1183619 L72.9250992,87.1183619 Z" id="Fill-13" fill="#D0C6B9"></path>
                    <polygon id="Fill-14" fill="#D0C6B9" points="23.2039438 93.759659 23.2039438 90.4390495 23.2039438 87.11844 23.2039438 83.7978305 23.2039438 80.47644 23.2039438 77.1566114 23.2039438 73.835221 23.2039438 70.5146114 23.2039438 67.1940019 23.2039438 63.8733924 23.2039438 60.5527829 19.8892729 60.5527829 16.574602 60.5527829 16.574602 63.8733924 16.574602 67.1940019 16.574602 70.5146114 16.574602 73.835221 16.574602 77.1566114 16.574602 80.47644 16.574602 83.7978305 16.574602 87.11844 16.574602 90.4390495 16.574602 93.759659 16.574602 97.0802686 16.574602 100.400878 16.574602 103.721488 19.8892729 103.721488 19.8892729 100.400878 23.2039438 100.400878 23.2039438 97.0802686"></polygon>
                    <polygon id="Fill-15" fill="#D0C6B9" points="53.0371516 107.041941 53.0355925 107.041941 49.7224806 107.041941 46.4070301 107.041941 43.0915796 107.041941 39.7784678 107.041941 39.7769087 107.041941 36.4630173 107.041941 33.1475668 107.041941 29.8328959 107.041941 26.5190045 107.041941 26.518225 107.041941 23.203554 107.041941 23.203554 110.363331 23.203554 113.68316 23.203554 117.00455 23.203554 120.32516 23.203554 123.64577 23.203554 126.966379 23.203554 130.28777 23.203554 133.607598 23.203554 136.928989 23.203554 140.248817 23.203554 143.569427 23.203554 146.890036 23.203554 150.210646 23.203554 153.531255 26.518225 153.531255 26.5190045 153.531255 29.8328959 153.531255 33.1475668 153.531255 36.4630173 153.531255 36.4630173 150.210646 36.4630173 146.890036 36.4630173 143.569427 36.4630173 140.248817 36.4630173 136.928989 36.4630173 133.607598 36.4630173 130.28777 36.4630173 126.966379 36.4630173 123.64577 36.4630173 120.32516 39.7769087 120.32516 39.7784678 120.32516 43.0915796 120.32516 46.4070301 120.32516 46.4070301 123.64577 46.4070301 126.966379 46.4070301 130.28777 46.4070301 133.607598 46.4070301 136.928989 46.4070301 140.248817 46.4070301 143.569427 46.4070301 146.890036 46.4070301 150.210646 46.4070301 153.531255 49.7224806 153.531255 53.0355925 153.531255 53.0371516 153.531255 56.3510429 153.531255 59.6664934 153.531255 59.6664934 150.210646 59.6664934 146.890036 59.6664934 143.569427 59.6664934 140.248817 59.6664934 136.928989 59.6664934 133.607598 59.6664934 130.28777 59.6664934 126.966379 59.6664934 123.64577 59.6664934 120.32516 59.6664934 117.00455 59.6664934 113.68316 59.6664934 110.363331 59.6664934 107.041941 56.3510429 107.041941"></polygon>
                    <polygon id="Fill-16" fill="#D0C6B9" points="13.260009 113.683082 13.2592294 113.683082 9.94533805 113.683082 6.63066711 113.683082 6.63066711 117.004472 9.94533805 117.004472 9.94533805 120.325082 13.2592294 120.325082 13.2592294 123.645691 9.94533805 123.645691 9.94533805 120.325082 6.63066711 120.325082 6.63066711 117.004472 3.31521662 117.004472 3.31521662 120.325082 3.31521662 123.645691 3.31521662 126.966301 3.31521662 130.287691 3.31521662 133.60752 6.63066711 133.60752 6.63066711 136.92891 9.94533805 136.92891 9.94533805 140.24952 13.2592294 140.24952 13.260009 140.24952 16.5746799 140.24952 19.8893508 140.24952 19.8893508 136.92891 19.8893508 133.60752 19.8893508 130.287691 16.5746799 130.287691 16.5746799 126.966301 13.260009 126.966301 13.260009 123.645691 16.5746799 123.645691 16.5746799 126.966301 19.8893508 126.966301 19.8893508 123.645691 19.8893508 120.325082 19.8893508 117.004472 19.8893508 113.683082 16.5746799 113.683082"></polygon>
                    <path d="M46.4071081,47.2701105 L43.0916576,47.2701105 L39.7785458,47.2701105 L39.7769867,47.2701105 L36.4630953,47.2701105 L33.1476448,47.2701105 L33.1476448,43.949501 L36.4630953,43.949501 L39.7769867,43.949501 L39.7785458,43.949501 L43.0916576,43.949501 L46.4071081,43.949501 L49.7225586,43.949501 L49.7225586,47.2701105 L46.4071081,47.2701105 Z M49.7225586,30.6670629 L49.7225586,33.9876724 L46.4071081,33.9876724 L46.4071081,30.6670629 L46.4071081,27.3456724 L49.7225586,27.3456724 L49.7225586,30.6670629 Z M33.1476448,27.3456724 L36.4630953,27.3456724 L36.4630953,30.6670629 L36.4630953,33.9876724 L33.1476448,33.9876724 L33.1476448,30.6670629 L33.1476448,27.3456724 Z M56.3511209,27.3456724 L56.3511209,24.0258438 L53.0372295,24.0258438 L53.0372295,20.7044533 L49.7225586,20.7044533 L46.4071081,20.7044533 L43.0916576,20.7044533 L39.7785458,20.7044533 L39.7769867,20.7044533 L36.4630953,20.7044533 L33.1476448,20.7044533 L29.8329739,20.7044533 L29.8329739,24.0258438 L26.5183029,24.0258438 L26.5183029,27.3456724 L26.5183029,30.6670629 L23.203632,30.6670629 L23.203632,33.9876724 L23.203632,37.3082819 L23.203632,40.6288914 L26.5183029,40.6288914 L26.5183029,43.949501 L26.5183029,47.2701105 L26.5183029,50.59072 L29.8329739,50.59072 L33.1476448,50.59072 L36.4630953,50.59072 L36.4630953,53.9113295 L39.7769867,53.9113295 L39.7769867,57.23272 L43.0916576,57.23272 L43.0916576,53.9113295 L46.4071081,53.9113295 L46.4071081,50.59072 L49.7225586,50.59072 L53.0356704,50.59072 L53.0372295,50.59072 L56.3511209,50.59072 L56.3511209,47.2701105 L56.3511209,43.949501 L56.3511209,40.6288914 L59.6665714,40.6288914 L59.6665714,37.3082819 L59.6665714,33.9876724 L59.6665714,30.6670629 L56.3511209,30.6670629 L56.3511209,27.3456724 Z" id="Fill-17" fill="#F8DFB3"></path>
                    <polygon id="Fill-18" fill="#DDB478" points="43.0917356 43.949579 39.7786237 43.949579 39.7770646 43.949579 36.4631732 43.949579 33.1477228 43.949579 33.1477228 47.2701886 36.4631732 47.2701886 39.7770646 47.2701886 39.7786237 47.2701886 43.0917356 47.2701886 46.4071861 47.2701886 49.7226365 47.2701886 49.7226365 43.949579 46.4071861 43.949579"></polygon>
                    <polygon id="Fill-19" fill="#FEFEFE" points="46.4071081 53.9113295 43.0916576 53.9113295 43.0916576 57.23272 46.4071081 57.23272 49.7225586 57.23272 49.7225586 53.9113295 49.7225586 50.59072 46.4071081 50.59072"></polygon>
                    <polygon id="Fill-20" fill="#FEFEFE" points="39.7786237 53.9113295 36.4631732 53.9113295 36.4631732 50.59072 33.1477228 50.59072 33.1477228 53.9113295 33.1477228 57.23272 36.4631732 57.23272 39.7770646 57.23272 39.7770646 60.5525486 43.0917356 60.5525486 43.0917356 57.23272 39.7786237 57.23272"></polygon>
                    <polygon id="Fill-21" fill="#FEFEFE" points="39.7768308 73.8351429 43.0915017 73.8351429 43.0915017 70.5145333 39.7768308 70.5145333"></polygon>
                    <path d="M86.1835491,77.1568457 L86.1835491,80.4766743 L82.8688781,80.4766743 L79.5549868,80.4766743 L79.5542072,80.4766743 L76.2395363,80.4766743 L76.2395363,77.1568457 L76.2395363,73.8354552 L79.5542072,73.8354552 L79.5549868,73.8354552 L82.8688781,73.8354552 L86.1835491,73.8354552 L86.1835491,77.1568457 Z M82.8688781,70.5148457 L82.8688781,67.1942362 L79.5542072,67.1942362 L79.5542072,70.5148457 L76.2395363,70.5148457 L72.9248653,70.5148457 L72.9248653,73.8354552 L72.9248653,77.1568457 L72.9248653,80.4766743 L72.9248653,83.7980648 L76.2395363,83.7980648 L79.5542072,83.7980648 L79.5542072,87.1186743 L82.8688781,87.1186743 L82.8688781,83.7980648 L86.1835491,83.7980648 L89.4989996,83.7980648 L89.4989996,80.4766743 L89.4989996,77.1568457 L89.4989996,73.8354552 L89.4989996,70.5148457 L86.1835491,70.5148457 L82.8688781,70.5148457 Z" id="Fill-22" fill="#FEFEFE"></path>
                    <polygon id="Fill-23" fill="#FEFEFE" points="92.8131248 73.8351429 96.1277957 73.8351429 96.1277957 70.5145333 92.8131248 70.5145333"></polygon>
                    <polygon id="Fill-24" fill="#FEFEFE" points="92.8131248 80.4763619 96.1277957 80.4763619 96.1277957 77.1565333 92.8131248 77.1565333"></polygon>
                    <polygon id="Fill-25" fill="#FEFEFE" points="39.7768308 83.7977524 43.0915017 83.7977524 43.0915017 80.4763619 39.7768308 80.4763619"></polygon>
                    <polygon id="Fill-26" fill="#FEFEFE" points="39.7768308 93.759581 43.0915017 93.759581 43.0915017 90.4389714 39.7768308 90.4389714"></polygon>
                    <polygon id="Fill-27" fill="#221F20" points="23.2040218 0.780405714 23.2040218 4.10179619 23.2040218 7.42162476 26.5194723 7.42162476 26.5194723 4.10179619 29.8333636 4.10179619 33.1480346 4.10179619 36.4634851 4.10179619 39.7773764 4.10179619 39.7789356 4.10179619 43.0912678 4.10179619 46.4074979 4.10179619 49.7221688 4.10179619 53.0352806 4.10179619 53.0376193 4.10179619 56.3515107 4.10179619 56.3515107 7.42162476 59.6661816 7.42162476 59.6661816 4.10179619 59.6661816 0.780405714"></polygon>
                    <polygon id="Fill-28" fill="#221F20" points="62.9810864 10.7430933 62.9810864 14.0637029 62.9810864 17.3843124 62.9810864 20.7049219 62.9810864 24.0263124 59.6664155 24.0263124 59.6664155 20.7049219 59.6664155 17.3843124 56.350965 17.3843124 56.350965 20.7049219 53.0355145 20.7049219 53.0355145 24.0263124 56.350965 24.0263124 56.350965 27.346141 56.350965 30.6675314 59.6664155 30.6675314 59.6664155 33.988141 59.6664155 37.3087505 59.6664155 40.62936 56.350965 40.62936 56.350965 43.9499695 56.350965 47.2697981 56.350965 50.5904076 53.0370736 50.5904076 53.0355145 50.5904076 49.7224027 50.5904076 49.7224027 53.9110171 49.7224027 57.2324076 53.0370736 57.2324076 53.0370736 53.9110171 56.350965 53.9110171 56.350965 57.2324076 56.350965 60.5522362 59.6664155 60.5522362 62.9810864 60.5522362 66.2949778 60.5522362 66.2949778 63.8736267 66.2949778 67.1942362 66.2949778 70.5148457 66.2949778 73.8354552 66.2949778 77.1568457 66.2949778 80.4766743 66.2949778 83.7980648 66.2949778 87.1186743 69.6104283 87.1186743 69.6104283 83.7980648 69.6104283 80.4766743 69.6104283 77.1568457 69.6104283 73.8354552 69.6104283 70.5148457 69.6104283 67.1942362 69.6104283 63.8736267 69.6104283 60.5522362 69.6104283 57.2324076 66.2957573 57.2324076 66.2949778 57.2324076 62.9810864 57.2324076 59.6664155 57.2324076 59.6664155 53.9110171 59.6664155 50.5904076 59.6664155 47.2697981 62.9810864 47.2697981 62.9810864 43.9499695 62.9810864 40.62936 62.9810864 37.3087505 62.9810864 33.988141 62.9810864 30.6675314 62.9810864 27.346141 66.2957573 27.346141 66.2957573 24.0263124 66.2957573 20.7049219 66.2957573 17.3843124 66.2957573 14.0637029 66.2957573 10.7430933 66.2957573 7.42170286 62.9810864 7.42170286 59.6664155 7.42170286 59.6664155 10.7430933"></polygon>
                    <polygon id="Fill-29" fill="#221F20" points="36.4632512 14.0636248 39.7771426 14.0636248 39.7787017 14.0636248 43.0918135 14.0636248 46.407264 14.0636248 49.7227145 14.0636248 53.0358263 14.0636248 53.0358263 17.3842343 56.3512768 17.3842343 56.3512768 14.0636248 53.0373854 14.0636248 53.0373854 10.7430152 49.7227145 10.7430152 46.407264 10.7430152 43.0918135 10.7430152 39.7787017 10.7430152 39.7771426 10.7430152 36.4632512 10.7430152 33.1478007 10.7430152 29.8331298 10.7430152 29.8331298 14.0636248 33.1478007 14.0636248"></polygon>
                    <polygon id="Fill-30" fill="#221F20" points="33.1478787 30.6672971 33.1478787 33.9879067 36.4633292 33.9879067 36.4633292 30.6672971 36.4633292 27.3459067 33.1478787 27.3459067"></polygon>
                    <polygon id="Fill-31" fill="#221F20" points="49.7225586 30.6672971 49.7225586 27.3459067 46.4071081 27.3459067 46.4071081 30.6672971 46.4071081 33.9879067 49.7225586 33.9879067"></polygon>
                    <polygon id="Fill-32" fill="#221F20" points="33.1474889 60.5527048 36.4629394 60.5527048 36.4629394 57.2328762 33.1474889 57.2328762"></polygon>
                    <polygon id="Fill-33" fill="#221F20" points="46.4069522 60.5527048 49.7224027 60.5527048 49.7224027 57.2328762 46.4069522 57.2328762"></polygon>
                    <polygon id="Fill-34" fill="#221F20" points="39.7786237 60.5524705 39.7770646 60.5524705 36.4631732 60.5524705 36.4631732 63.873861 39.7770646 63.873861 39.7786237 63.873861 43.0917356 63.873861 46.4071861 63.873861 46.4071861 60.5524705 43.0917356 60.5524705"></polygon>
                    <polygon id="Fill-35" fill="#221F20" points="53.0371516 103.72141 53.0355925 103.72141 49.7224806 103.72141 46.4070301 103.72141 43.0915796 103.72141 39.7784678 103.72141 39.7769087 103.72141 36.4630173 103.72141 33.1475668 103.72141 29.8328959 103.72141 26.5190045 103.72141 26.518225 103.72141 23.203554 103.72141 23.203554 107.042019 26.518225 107.042019 26.5190045 107.042019 29.8328959 107.042019 33.1475668 107.042019 36.4630173 107.042019 39.7769087 107.042019 39.7784678 107.042019 43.0915796 107.042019 46.4070301 107.042019 49.7224806 107.042019 53.0355925 107.042019 53.0371516 107.042019 56.3510429 107.042019 59.6664934 107.042019 59.6664934 103.72141 56.3510429 103.72141"></polygon>
                    <polygon id="Fill-36" fill="#221F20" points="6.63090098 120.325238 9.94557191 120.325238 9.94557191 117.004629 6.63090098 117.004629"></polygon>
                    <polygon id="Fill-37" fill="#221F20" points="13.260009 123.645613 13.260009 120.325004 9.94533805 120.325004 9.94533805 123.645613 13.2592294 123.645613 13.2592294 126.966223 16.5746799 126.966223 16.5746799 123.645613"></polygon>
                    <path d="M19.8889611,7.42170286 L16.5742901,7.42170286 L16.5742901,10.7430933 L16.5742901,14.0637029 L16.5742901,17.3843124 L16.5742901,20.7049219 L16.5742901,24.0263124 L16.5742901,27.346141 L19.8889611,27.346141 L19.8889611,30.6675314 L19.8889611,33.98736 L19.8889611,37.3087505 L19.8889611,40.628579 L19.8889611,43.9499695 L19.8889611,47.270579 L23.2044116,47.270579 L23.2044116,50.5904076 L23.2044116,53.9117981 L23.2044116,57.2324076 L19.8889611,57.2324076 L16.5742901,57.2324076 L13.2596192,57.2324076 L13.2596192,60.5530171 L13.2596192,63.8736267 L13.2596192,67.1942362 L13.2596192,70.5148457 L13.2596192,73.8354552 L13.2596192,77.1568457 L13.2596192,80.4766743 L13.2596192,83.7972838 L13.2596192,87.1186743 L13.2596192,90.4392838 L13.2596192,93.7598933 L13.2596192,97.0805029 L13.2596192,100.400331 L13.2596192,103.721722 L13.2596192,107.04155 L13.2596192,110.363722 L9.94494827,110.363722 L6.63105689,110.363722 L3.31482684,110.363722 L3.31482684,113.68277 L0.000155911145,113.68277 L0.000155911145,117.00416 L0.000155911145,120.32555 L0.000155911145,123.645379 L0.000155911145,126.96677 L0.000155911145,130.287379 L0.000155911145,133.607208 L0.000155911145,136.928598 L3.31482684,136.928598 L3.31482684,140.249208 L6.63105689,140.249208 L6.63105689,143.569817 L9.94494827,143.569817 L13.2596192,143.569817 L13.2603988,143.569817 L16.5742901,143.569817 L19.8889611,143.569817 L19.8889611,146.890427 L19.8889611,150.211036 L19.8889611,153.531646 L16.5742901,153.531646 L16.5742901,156.852255 L13.2596192,156.852255 L13.2596192,160.172865 L13.2596192,163.494255 L16.5742901,163.494255 L19.8889611,163.494255 L23.2044116,163.494255 L26.5183029,163.494255 L26.5190825,163.494255 L29.8337534,163.494255 L33.1476448,163.494255 L36.4638748,163.494255 L39.7785458,163.494255 L39.7785458,160.172865 L39.7785458,156.852255 L39.7785458,153.531646 L39.7785458,150.211036 L39.7785458,146.890427 L39.7785458,143.569817 L39.7785458,140.249208 L39.7785458,136.928598 L39.7785458,133.607208 L39.7785458,130.287379 L39.7785458,126.96677 L39.7785458,123.645379 L43.0916576,123.645379 L43.0916576,126.96677 L43.0916576,130.287379 L43.0916576,133.607208 L43.0916576,136.928598 L43.0916576,140.249208 L43.0916576,143.569817 L43.0916576,146.890427 L43.0916576,150.211036 L43.0916576,153.531646 L43.0916576,156.852255 L43.0916576,160.172865 L43.0916576,163.494255 L46.4071081,163.494255 L49.7225586,163.494255 L53.0356704,163.494255 L53.0372295,163.494255 L56.3511209,163.494255 L59.6657918,163.494255 L62.9812423,163.494255 L66.2951337,163.494255 L66.2959133,163.494255 L69.6105842,163.494255 L69.6105842,160.172865 L69.6105842,156.852255 L66.2959133,156.852255 L66.2959133,153.531646 L62.9812423,153.531646 L62.9812423,150.211036 L62.9812423,146.890427 L62.9812423,143.569817 L62.9812423,140.249208 L62.9812423,136.928598 L62.9812423,133.607208 L62.9812423,130.287379 L62.9812423,126.96677 L62.9812423,123.645379 L62.9812423,120.32555 L62.9812423,117.00416 L62.9812423,113.68277 L62.9812423,110.363722 L62.9812423,107.04155 L62.9812423,103.721722 L62.9812423,100.400331 L62.9812423,97.0805029 L66.2951337,97.0805029 L66.2959133,97.0805029 L69.6105842,97.0805029 L72.9252551,97.0805029 L76.2391465,97.0805029 L79.554597,97.0805029 L79.5553765,97.0805029 L82.8684884,97.0805029 L86.1831593,97.0805029 L86.1831593,93.7598933 L86.1831593,90.4392838 L86.1831593,87.1186743 L82.8684884,87.1186743 L82.8684884,90.4392838 L82.8684884,93.7598933 L79.5553765,93.7598933 L79.554597,93.7598933 L76.2391465,93.7598933 L72.9252551,93.7598933 L69.6105842,93.7598933 L66.2959133,93.7598933 L66.2951337,93.7598933 L62.9812423,93.7598933 L59.6657918,93.7598933 L59.6657918,97.0805029 L59.6657918,100.400331 L59.6657918,103.721722 L59.6657918,107.04155 L59.6657918,110.363722 L59.6657918,113.68277 L59.6657918,117.00416 L59.6657918,120.32555 L59.6657918,123.645379 L59.6657918,126.96677 L59.6657918,130.287379 L59.6657918,133.607208 L59.6657918,136.928598 L59.6657918,140.249208 L59.6657918,143.569817 L59.6657918,146.890427 L59.6657918,150.211036 L59.6657918,153.531646 L56.3511209,153.531646 L53.0372295,153.531646 L53.0356704,153.531646 L49.7225586,153.531646 L46.4071081,153.531646 L46.4071081,150.211036 L46.4071081,146.890427 L46.4071081,143.569817 L46.4071081,140.249208 L46.4071081,136.928598 L46.4071081,133.607208 L46.4071081,130.287379 L46.4071081,126.96677 L46.4071081,123.645379 L46.4071081,120.32555 L43.0916576,120.32555 L39.7785458,120.32555 L39.7769867,120.32555 L36.4638748,120.32555 L36.4638748,123.645379 L36.4638748,126.96677 L36.4638748,130.287379 L36.4638748,133.607208 L36.4638748,136.928598 L36.4638748,140.249208 L36.4638748,143.569817 L36.4638748,146.890427 L36.4638748,150.211036 L36.4638748,153.531646 L33.1476448,153.531646 L29.8337534,153.531646 L26.5190825,153.531646 L26.5183029,153.531646 L23.2044116,153.531646 L23.2044116,150.211036 L23.2044116,146.890427 L23.2044116,143.569817 L23.2044116,140.249208 L23.2044116,136.928598 L23.2044116,133.607208 L23.2044116,130.287379 L23.2044116,126.96677 L23.2044116,123.645379 L23.2044116,120.32555 L23.2044116,117.00416 L23.2044116,113.68277 L23.2044116,110.363722 L19.8889611,110.363722 L16.5742901,110.363722 L16.5742901,107.04155 L16.5742901,103.721722 L16.5742901,100.400331 L16.5742901,97.0805029 L16.5742901,93.7598933 L16.5742901,90.4392838 L16.5742901,87.1186743 L16.5742901,83.7972838 L16.5742901,80.4766743 L16.5742901,77.1568457 L16.5742901,73.8354552 L16.5742901,70.5148457 L16.5742901,67.1942362 L16.5742901,63.8736267 L16.5742901,60.5530171 L19.8889611,60.5530171 L23.2044116,60.5530171 L26.5190825,60.5530171 L26.5190825,57.2324076 L26.5190825,53.9117981 L29.8337534,53.9117981 L29.8337534,57.2324076 L33.1476448,57.2324076 L33.1476448,53.9117981 L33.1476448,50.5904076 L29.8337534,50.5904076 L26.5190825,50.5904076 L26.5190825,47.270579 L26.5190825,43.9499695 L26.5190825,40.628579 L23.2044116,40.628579 L23.2044116,37.3087505 L23.2044116,33.98736 L23.2044116,30.6675314 L26.5190825,30.6675314 L26.5190825,27.346141 L26.5190825,24.0263124 L29.8337534,24.0263124 L29.8337534,20.7049219 L26.5190825,20.7049219 L26.5190825,17.3843124 L29.8337534,17.3843124 L29.8337534,14.0637029 L26.5183029,14.0637029 L26.5183029,17.3843124 L23.2044116,17.3843124 L23.2044116,20.7049219 L23.2044116,24.0263124 L19.8889611,24.0263124 L19.8889611,20.7049219 L19.8889611,17.3843124 L19.8889611,14.0637029 L19.8889611,10.7430933 L23.2044116,10.7430933 L23.2044116,7.42170286 L19.8889611,7.42170286 Z M3.31482684,130.287379 L3.31482684,126.96677 L3.31482684,123.645379 L3.31482684,120.32555 L3.31482684,117.00416 L6.63105689,117.00416 L6.63105689,113.68277 L9.94494827,113.68277 L13.2596192,113.68277 L13.2603988,113.68277 L16.5742901,113.68277 L19.8889611,113.68277 L19.8889611,117.00416 L19.8889611,120.32555 L19.8889611,123.645379 L19.8889611,126.96677 L16.5742901,126.96677 L16.5742901,130.287379 L19.8889611,130.287379 L19.8889611,133.607208 L19.8889611,136.928598 L19.8889611,140.249208 L16.5742901,140.249208 L13.2603988,140.249208 L13.2596192,140.249208 L9.94494827,140.249208 L9.94494827,136.928598 L6.63105689,136.928598 L6.63105689,133.607208 L3.31482684,133.607208 L3.31482684,130.287379 Z" id="Fill-38" fill="#221F20"></path>
                </g>
            </g>
        </g>
    </g>
</svg>