<?xml version="1.0" encoding="utf-8"?>
<!-- Generator: Adobe Illustrator 19.1.0, SVG Export Plug-In . SVG Version: 6.00 Build 0)  -->
<svg version="1.1" id="Layer_1" xmlns="http://www.w3.org/2000/svg" xmlns:xlink="http://www.w3.org/1999/xlink" x="0px" y="0px"
	 viewBox="0 0 117.3845 28.692" enable-background="new 0 0 117.3845 28.692" xml:space="preserve">
<g>
	<path fill="#FFFFFF" d="M44.5012,9.6487v9.5493h1.7441v3.3027c0,0.1289-0.042,0.2334-0.1265,0.313
		c-0.085,0.0796-0.1968,0.1191-0.3354,0.1191H44.926v-2.6016h-8.6104v2.1694c0,0.1289-0.0435,0.2334-0.1304,0.313
		s-0.1973,0.1191-0.3315,0.1191H34.989v-3.7349h1.0884c0.1538-0.0742,0.3081-0.1948,0.4619-0.3613
		c0.1543-0.1665,0.3022-0.4048,0.4438-0.7158c0.1416-0.3105,0.2744-0.7017,0.3984-1.1738c0.1245-0.4722,0.2373-1.0498,0.3394-1.7334
		c0.1021-0.6831,0.1899-1.4819,0.2646-2.3965s0.1318-1.9707,0.1714-3.1685H44.5012z M39.5139,10.7894
		c-0.0596,1.2227-0.1455,2.2935-0.2573,3.2129s-0.2422,1.7158-0.3911,2.3892c-0.1494,0.6738-0.3159,1.2378-0.4995,1.6924
		c-0.1841,0.4546-0.3804,0.8262-0.5889,1.1143h5.2705v-8.4087H39.5139z"/>
	<path fill="#FFFFFF" d="M50.5988,16.3358v3.9956h-1.4385V9.6487h3.1533c0.6758,0,1.2637,0.0786,1.7632,0.2349
		c0.499,0.1567,0.9131,0.3789,1.2412,0.6675c0.3276,0.2881,0.5723,0.6357,0.7339,1.0435s0.2427,0.8623,0.2427,1.3643
		c0,0.4971-0.0874,0.9517-0.2612,1.3643s-0.4287,0.7676-0.7642,1.0659s-0.7505,0.5303-1.2446,0.6968
		c-0.4946,0.1665-1.0649,0.25-1.7109,0.25H50.5988z M50.5988,15.1878h1.7148c0.4126,0,0.7764-0.0547,1.0923-0.1641
		c0.3154-0.1094,0.5811-0.2622,0.7974-0.4585s0.3789-0.4312,0.4883-0.7046s0.1641-0.5737,0.1641-0.9019
		c0-0.6812-0.21-1.2124-0.6299-1.5952s-1.0576-0.5742-1.9121-0.5742h-1.7148V15.1878z"/>
	<path fill="#FFFFFF" d="M66.239,10.1033c0.0684-0.1143,0.1582-0.2183,0.2676-0.313c0.1094-0.0942,0.2363-0.1416,0.3809-0.1416
		h1.0742v10.6826h-1.4473v-7.5889c0-0.2085,0.0059-0.4287,0.0156-0.6597s0.0312-0.4761,0.0664-0.7344
		c-0.084,0.2236-0.1758,0.4312-0.2715,0.6226c-0.0977,0.1914-0.1934,0.3589-0.2871,0.5029l-5.0098,7.4028
		c-0.0698,0.1143-0.1592,0.2188-0.2686,0.313s-0.2363,0.1416-0.3804,0.1416h-1.0732V9.6487h1.4463v7.5962
		c0,0.2139-0.0054,0.4365-0.0151,0.6675s-0.0322,0.4785-0.0669,0.7417c0.0845-0.2285,0.1753-0.4385,0.272-0.6299
		s0.1924-0.3643,0.2871-0.5181L66.239,10.1033z"/>
	<path fill="#FFFFFF" d="M77.3083,16.8465c0.0547,0.1313,0.1094,0.2622,0.1641,0.3911c0.0498-0.1343,0.1016-0.2671,0.1562-0.3989
		c0.0547-0.1313,0.1143-0.2568,0.1797-0.3765l3.623-6.5674c0.0596-0.1143,0.125-0.1836,0.1973-0.2085s0.1729-0.0376,0.3018-0.0376
		h1.0664v10.6826h-1.2676v-7.8496c0-0.1045,0.002-0.2163,0.0078-0.3354c0.0049-0.1196,0.0117-0.2412,0.0215-0.3652l-3.6602,6.6792
		c-0.1143,0.2236-0.2881,0.3354-0.5215,0.3354h-0.209c-0.2334,0-0.4072-0.1118-0.5215-0.3354l-3.7422-6.7017
		c0.0146,0.1294,0.0264,0.2559,0.0332,0.3799c0.0078,0.1245,0.0117,0.2388,0.0117,0.3433v7.8496h-1.2676V9.6487h1.0664
		c0.1289,0,0.2285,0.0127,0.2979,0.0376s0.1367,0.0942,0.2012,0.2085l3.6904,6.5752C77.197,16.5892,77.2536,16.7147,77.3083,16.8465
		z"/>
	<path fill="#FFFFFF" d="M88.3561,14.3304h1.1113c0.2236,0,0.4131-0.0347,0.5703-0.1045c0.1562-0.0693,0.3115-0.2061,0.4658-0.4097
		l2.7949-3.7573c0.0752-0.1191,0.165-0.2173,0.2725-0.2944c0.1064-0.0771,0.2324-0.1157,0.376-0.1157h1.2158l-3.2285,4.3911
		c-0.124,0.1787-0.2646,0.3252-0.4209,0.4395c-0.1562,0.1147-0.3291,0.2041-0.5176,0.2686
		c0.2627,0.0698,0.4844,0.1802,0.6631,0.3315c0.1787,0.1519,0.3525,0.3618,0.5215,0.6299l3.2656,4.6221h-1.2969
		c-0.1445,0-0.2676-0.0386-0.3691-0.1157c-0.1025-0.0767-0.1982-0.1899-0.2871-0.3389l-2.8252-3.9141
		c-0.1299-0.1934-0.2686-0.3291-0.418-0.4062c-0.1494-0.0767-0.3525-0.1152-0.6113-0.1152h-1.2822v4.8901h-1.4385V9.6487h1.4385
		V14.3304z"/>
	<path fill="#FFFFFF" d="M106.777,20.3314h-1.1182c-0.1299,0-0.2344-0.0322-0.3135-0.0967
		c-0.0791-0.0649-0.1387-0.147-0.1787-0.2461l-0.999-2.5796h-4.793l-0.999,2.5796c-0.0303,0.0894-0.0869,0.1689-0.1719,0.2383
		c-0.084,0.0698-0.1914,0.1045-0.3203,0.1045h-1.1104l4.2715-10.6826h1.4609L106.777,20.3314z M99.777,16.3655h3.9883
		l-1.6777-4.3462c-0.0547-0.1289-0.1074-0.2783-0.1602-0.4473c-0.0518-0.1689-0.1055-0.3501-0.1602-0.5439
		c-0.0498,0.1938-0.1006,0.3765-0.1523,0.5479c-0.0527,0.1714-0.1064,0.3218-0.1611,0.4507L99.777,16.3655z"/>
	<path fill="#FFFFFF" d="M116.6013,18.1248c0.0801,0,0.1494,0.0322,0.209,0.0967l0.5742,0.6191
		c-0.4375,0.5068-0.9678,0.9019-1.5918,1.1851s-1.3779,0.4248-2.2627,0.4248c-0.7646,0-1.4609-0.1328-2.0869-0.3989
		c-0.626-0.2656-1.1602-0.6382-1.6025-1.1182c-0.4424-0.4795-0.7852-1.0547-1.0293-1.7256
		c-0.2432-0.6709-0.3652-1.4087-0.3652-2.2139s0.127-1.5435,0.3809-2.2144c0.2529-0.6709,0.6094-1.2471,1.0693-1.7295
		c0.46-0.4819,1.0098-0.856,1.6514-1.1216c0.6406-0.2661,1.3486-0.3989,2.124-0.3989c0.7607,0,1.4316,0.1216,2.0127,0.3652
		c0.582,0.2437,1.0938,0.5742,1.5361,0.9917l-0.4775,0.6631c-0.0293,0.0498-0.0684,0.0908-0.1152,0.123
		c-0.0469,0.0327-0.1104,0.0483-0.1904,0.0483c-0.0889,0-0.1982-0.0483-0.3281-0.145c-0.1289-0.0972-0.2979-0.2051-0.5068-0.3242
		c-0.208-0.1196-0.4697-0.2275-0.7822-0.3242c-0.3135-0.0972-0.6982-0.1455-1.1553-0.1455c-0.5518,0-1.0566,0.0957-1.5137,0.2871
		s-0.8506,0.4683-1.1816,0.8311c-0.3301,0.3628-0.5879,0.8052-0.7715,1.3267c-0.1836,0.522-0.2754,1.1108-0.2754,1.7671
		c0,0.666,0.0957,1.2598,0.2871,1.7817c0.1904,0.5215,0.4521,0.9629,0.7822,1.3228c0.3301,0.3608,0.7207,0.6353,1.1709,0.8242
		c0.4492,0.1885,0.9355,0.2832,1.457,0.2832c0.3184,0,0.6045-0.019,0.8613-0.0562c0.2559-0.0371,0.4912-0.0957,0.708-0.1753
		c0.2158-0.0791,0.417-0.1797,0.6035-0.3018c0.1865-0.1216,0.3711-0.2671,0.5557-0.436
		C116.4323,18.1619,116.5173,18.1248,116.6013,18.1248z"/>
</g>
<g>
	<g>
		<defs>
			<path id="XMLID_1_" d="M14.346,0C6.4235,0,0.001,6.4219,0,14.3441v0.0016v0.0002v0.0002V28.692h13.0576v-0.0582
				c0.4245,0.0378,0.854,0.0582,1.2884,0.0582c7.923,0,14.3459-6.4229,14.3459-14.346C28.692,6.423,22.269,0,14.346,0z
				 M14.346,18.2819h-3.9359V14.346c0-2.1737,1.7621-3.9359,3.9359-3.9359c2.1737,0,3.9359,1.7622,3.9359,3.9359
				C18.2819,16.5198,16.5197,18.2819,14.346,18.2819z"/>
		</defs>
		<use xlink:href="#XMLID_1_"  overflow="visible" fill="#FFFFFF"/>
		<clipPath id="XMLID_3_">
			<use xlink:href="#XMLID_1_"  overflow="visible"/>
		</clipPath>
		
			<linearGradient id="SVGID_1_" gradientUnits="userSpaceOnUse" x1="-2022.4515" y1="-1032.6815" x2="-2031.8589" y2="-1072.6168" gradientTransform="matrix(-4.489700e-11 1 -1 -4.489700e-11 -1053.1548 2051.9131)">
			<stop  offset="0.0032" style="stop-color:#000000"/>
			<stop  offset="0.9168" style="stop-color:#000000;stop-opacity:0"/>
		</linearGradient>
		<path clip-path="url(#XMLID_3_)" fill="url(#SVGID_1_)" d="M28.6866,14.3454H10.4641l0,14.3466h3.8819
			C22.2694,28.692,28.6866,22.2688,28.6866,14.3454z"/>
	</g>
</g>
</svg>
