<?xml version="1.0" encoding="UTF-8"?>
<svg width="274px" height="106px" viewBox="0 0 274 106" version="1.1" xmlns="http://www.w3.org/2000/svg" xmlns:xlink="http://www.w3.org/1999/xlink">
    <!-- Generator: Sketch 41.2 (35397) - http://www.bohemiancoding.com/sketch -->
    <title>Group 5</title>
    <desc>Created with Sketch.</desc>
    <defs></defs>
    <g id="ТЕСТ" stroke="none" stroke-width="1" fill="none" fill-rule="evenodd">
        <g id="Есть-время-выбрать---mob-Copy" transform="translate(-24.000000, -91.000000)">
            <g id="Group-8" transform="translate(24.000000, 91.000000)">
                <g id="Group-5">
                    <g id="Group-4">
                        <g id="Page-1">
                            <polygon id="Fill-1" fill="#FF474C" points="34.9548387 7.6 34.9548387 3.8 27.1870968 3.8 27.1870968 7.6 23.3032258 7.6 23.3032258 11.4 19.4193548 11.4 19.4193548 7.6 15.5354839 7.6 15.5354839 3.8 7.76774194 3.8 7.76774194 7.6 3.88387097 7.6 3.88387097 19 7.76774194 19 7.76774194 22.8 11.6516129 22.8 11.6516129 26.6 15.5354839 26.6 15.5354839 30.4 19.4193548 30.4 19.4193548 34.2 23.3032258 34.2 23.3032258 30.4 27.1870968 30.4 27.1870968 26.6 31.0709677 26.6 31.0709677 22.8 34.9548387 22.8 34.9548387 19 38.8387097 19 38.8387097 7.6"></polygon>
                            <polygon id="Fill-2" fill="#000000" points="0 19 3.88387097 19 3.88387097 7.60027143 0 7.60027143"></polygon>
                            <polygon id="Fill-3" fill="#000000" points="3.88387097 7.6 7.76774194 7.6 7.76774194 3.8 3.88387097 3.8"></polygon>
                            <polygon id="Fill-4" fill="#000000" points="7.76774194 3.8 15.5354839 3.8 15.5354839 0 7.76774194 0"></polygon>
                            <polygon id="Fill-5" fill="#000000" points="15.5354839 7.6 19.4193548 7.6 19.4193548 3.8 15.5354839 3.8"></polygon>
                            <polygon id="Fill-6" fill="#000000" points="19.4193548 11.4 23.3032258 11.4 23.3032258 7.6 19.4193548 7.6"></polygon>
                            <polygon id="Fill-7" fill="#000000" points="23.3032258 7.6 27.1870968 7.6 27.1870968 3.8 23.3032258 3.8"></polygon>
                            <polygon id="Fill-8" fill="#000000" points="27.1870968 3.8 34.9548387 3.8 34.9548387 0 27.1870968 0"></polygon>
                            <polygon id="Fill-9" fill="#000000" points="34.9548387 7.6 38.8387097 7.6 38.8387097 3.8 34.9548387 3.8"></polygon>
                            <polygon id="Fill-10" fill="#000000" points="38.8387097 19 42.9997226 19 42.9997226 7.60027143 38.8387097 7.60027143"></polygon>
                            <polygon id="Fill-11" fill="#000000" points="3.88387097 22.8 7.76774194 22.8 7.76774194 19 3.88387097 19"></polygon>
                            <polygon id="Fill-12" fill="#000000" points="7.76774194 26.6 11.6516129 26.6 11.6516129 22.8 7.76774194 22.8"></polygon>
                            <polygon id="Fill-13" fill="#000000" points="11.6516129 30.4 15.5354839 30.4 15.5354839 26.6 11.6516129 26.6"></polygon>
                            <polygon id="Fill-14" fill="#000000" points="15.5354839 34.2 19.4193548 34.2 19.4193548 30.4 15.5354839 30.4"></polygon>
                            <polygon id="Fill-15" fill="#000000" points="19.4193548 38 23.3029484 38 23.3029484 34.2 19.4193548 34.2"></polygon>
                            <polygon id="Fill-16" fill="#000000" points="23.3032258 34.2 27.1870968 34.2 27.1870968 30.4 23.3032258 30.4"></polygon>
                            <polygon id="Fill-17" fill="#000000" points="27.1870968 30.4 31.0709677 30.4 31.0709677 26.6 27.1870968 26.6"></polygon>
                            <polygon id="Fill-18" fill="#000000" points="31.0709677 26.6 34.9548387 26.6 34.9548387 22.8 31.0709677 22.8"></polygon>
                            <polygon id="Fill-19" fill="#000000" points="34.9548387 22.8 38.8387097 22.8 38.8387097 19 34.9548387 19"></polygon>
                            <polygon id="Fill-20" fill="#FF9194" points="7.76774194 7.6 15.5354839 7.6 15.5354839 3.8 7.76774194 3.8"></polygon>
                            <polygon id="Fill-21" fill="#FF9194" points="3.88387097 19 7.76774194 19 7.76774194 7.6 3.88387097 7.6"></polygon>
                            <polygon id="Fill-22" fill="#FF9194" points="7.76774194 22.8 11.6516129 22.8 11.6516129 19 7.76774194 19"></polygon>
                        </g>
                        <g id="Page-1" transform="translate(237.000000, 2.000000)">
                            <polygon id="Fill-1" fill="#3F3F3F" points="4.09943182 8.19877955 8.19886364 8.19877955 8.19886364 4.09934773 4.09943182 4.09934773"></polygon>
                            <polygon id="Fill-2" fill="#3F3F3F" points="28.6960227 8.19877955 32.7954545 8.19877955 32.7954545 4.09934773 28.6960227 4.09934773"></polygon>
                            <polygon id="Fill-3" fill="#3F3F3F" points="8.19898977 -0.000168181818 8.19898977 4.09968409 12.2984216 4.09968409 16.397433 4.09968409 20.4972852 4.09968409 24.596717 4.09968409 28.6957284 4.09968409 28.6957284 -0.000168181818"></polygon>
                            <polygon id="Fill-4" fill="#3F3F3F" points="24.5965909 32.6584284 20.4971591 32.6584284 16.3977273 32.6584284 12.2982955 32.6584284 8.19886364 32.6584284 8.19886364 36.7578602 12.2982955 36.7578602 16.3977273 36.7578602 20.4971591 36.7578602 24.5965909 36.7578602 28.6960227 36.7578602 28.6960227 32.6584284"></polygon>
                            <polygon id="Fill-5" fill="#3F3F3F" points="0 8.19882159 0 12.2982534 0 16.3976852 0 20.497117 0 24.5965489 0 28.6959807 4.09943182 28.6959807 4.09943182 24.5965489 4.09943182 20.497117 4.09943182 16.3976852 4.09943182 12.2982534 4.09943182 8.19882159"></polygon>
                            <polygon id="Fill-6" fill="#3F3F3F" points="32.7955807 8.19882159 32.7955807 12.2982534 32.7955807 16.3976852 32.7955807 20.497117 32.7955807 24.5965489 32.7955807 28.6959807 36.8950125 28.6959807 36.8950125 8.19882159"></polygon>
                            <polygon id="Fill-7" fill="#FFFFFF" points="28.6960227 8.19886364 28.6960227 4.09943182 24.5965909 4.09943182 20.4971591 4.09943182 16.3977273 4.09943182 12.2982955 4.09943182 8.19886364 4.09943182 8.19886364 8.19886364 4.09943182 8.19886364 4.09943182 12.2982955 4.09943182 16.3977273 4.09943182 20.4971591 4.09943182 24.5965909 4.09943182 28.6960227 8.19886364 28.6960227 8.19886364 32.7954545 12.2982955 32.7954545 16.3977273 32.7954545 20.4971591 32.7954545 24.5965909 32.7954545 28.6960227 32.7954545 28.6960227 28.6960227 32.7954545 28.6960227 32.7954545 24.5965909 32.7954545 20.4971591 32.7954545 16.3977273 32.7954545 12.2982955 32.7954545 8.19886364"></polygon>
                            <polygon id="Fill-8" fill="#3F3F3F" points="4.09943182 32.7953705 8.19886364 32.7953705 8.19886364 28.6959386 4.09943182 28.6959386"></polygon>
                            <polygon id="Fill-9" fill="#3F3F3F" points="28.6960227 32.7953705 32.7954545 32.7953705 32.7954545 28.6959386 28.6960227 28.6959386"></polygon>
                            <polygon id="Fill-10" fill="#3F3F3F" points="20.4971591 16.3977273 20.4971591 12.2982955 20.4971591 8.19886364 16.3977273 8.19886364 16.3977273 12.2982955 16.3977273 16.3977273 16.3977273 20.4971591 20.4971591 20.4971591 24.5965909 20.4971591 24.5965909 16.3977273"></polygon>
                            <polygon id="Fill-11" fill="#CECECE" points="24.5965909 4.09943182 20.4971591 4.09943182 16.3977273 4.09943182 12.2982955 4.09943182 8.19886364 4.09943182 8.19886364 8.19886364 12.2982955 8.19886364 16.3977273 8.19886364 20.4971591 8.19886364 24.5965909 8.19886364 28.6960227 8.19886364 28.6960227 4.09943182"></polygon>
                            <polygon id="Fill-12" fill="#CECECE" points="4.09943182 12.2982114 8.19886364 12.2982114 8.19886364 8.19877955 4.09943182 8.19877955"></polygon>
                            <polygon id="Fill-13" fill="#CECECE" points="28.6960227 12.2982114 32.7954545 12.2982114 32.7954545 8.19877955 28.6960227 8.19877955"></polygon>
                        </g>
                    </g>
                    <g id="Page-1" transform="translate(59.000000, 11.000000)">
                        <polygon id="Fill-1" fill="#AAAAAA" points="95.8110236 35.6251218 83.8346457 35.6251218 71.8582677 35.6251218 59.8818898 35.6251218 47.9055118 35.6251218 47.9055118 47.5001218 47.9055118 59.3751218 59.8818898 59.3751218 71.8582677 59.3751218 83.8346457 59.3751218 95.8110236 59.3751218 107.787402 59.3751218 107.787402 47.5001218 107.787402 35.6251218"></polygon>
                        <polygon id="Fill-2" fill="#494949" points="23.9531244 -0.000365384615 23.9531244 11.8758526 23.9531244 23.7496346 23.9531244 35.6246346 23.9531244 47.5008526 23.9531244 59.3746346 23.9531244 71.2496346 23.9531244 83.1258526 23.9531244 94.9996346 35.9295024 94.9996346 35.9295024 83.1258526 35.9295024 71.2496346 35.9295024 59.3746346 35.9295024 47.5008526 35.9295024 35.6246346 35.9295024 23.7496346 35.9295024 11.8758526 35.9295024 -0.000365384615"></polygon>
                        <polygon id="Fill-3" fill="#494949" points="119.763411 -0.000365384615 119.763411 11.8758526 119.763411 23.7496346 119.763411 35.6246346 119.763411 47.5008526 119.763411 59.3746346 119.763411 71.2496346 119.763411 83.1258526 119.763411 94.9996346 131.741017 94.9996346 131.741017 83.1258526 131.741017 71.2496346 131.741017 59.3746346 131.741017 47.5008526 131.741017 35.6246346 131.741017 23.7496346 131.741017 11.8758526 131.741017 -0.000365384615"></polygon>
                        <polygon id="Fill-4" fill="#494949" points="143.716535 23.75 143.716535 35.625 143.716535 47.5 143.716535 59.375 143.716535 71.25 155.692913 71.25 155.692913 23.75"></polygon>
                        <polygon id="Fill-5" fill="#494949" points="0 23.75 0 35.625 0 47.5 0 59.375 0 71.25 11.976378 71.25 11.976378 59.375 11.976378 47.5 11.976378 35.625 11.976378 23.75"></polygon>
                        <polygon id="Fill-6" fill="#666666" points="35.9291339 -0.000365384615 35.9291339 11.8758526 35.9291339 23.7496346 35.9291339 35.6246346 35.9291339 47.5008526 35.9291339 59.3746346 35.9291339 71.2496346 35.9291339 83.1258526 35.9291339 94.9996346 47.9055118 94.9996346 47.9055118 83.1258526 47.9055118 71.2496346 47.9055118 59.3746346 47.9055118 47.5008526 47.9055118 35.6246346 47.9055118 23.7496346 47.9055118 11.8758526 47.9055118 -0.000365384615"></polygon>
                        <polygon id="Fill-7" fill="#666666" points="107.787402 -0.000365384615 107.787402 11.8758526 107.787402 23.7496346 107.787402 35.6246346 107.787402 47.5008526 107.787402 59.3746346 107.787402 71.2496346 107.787402 83.1258526 107.787402 94.9996346 119.76378 94.9996346 119.76378 83.1258526 119.76378 71.2496346 119.76378 59.3746346 119.76378 47.5008526 119.76378 35.6246346 119.76378 23.7496346 119.76378 11.8758526 119.76378 -0.000365384615"></polygon>
                        <polygon id="Fill-8" fill="#666666" points="131.740157 11.8751218 131.740157 23.7501218 131.740157 35.6251218 131.740157 47.5001218 131.740157 59.3751218 131.740157 71.2501218 131.740157 83.1251218 143.716535 83.1251218 143.716535 71.2501218 143.716535 59.3751218 143.716535 47.5001218 143.716535 35.6251218 143.716535 23.7501218 143.716535 11.8751218"></polygon>
                        <polygon id="Fill-9" fill="#666666" points="11.976378 23.7501218 11.976378 35.6251218 11.976378 47.5001218 11.976378 59.3751218 11.976378 71.2501218 11.976378 83.1251218 23.9527559 83.1251218 23.9527559 71.2501218 23.9527559 59.3751218 23.9527559 47.5001218 23.9527559 35.6251218 23.9527559 23.7501218 23.9527559 11.8751218 11.976378 11.8751218"></polygon>
                    </g>
                </g>
            </g>
        </g>
    </g>
</svg>