<?xml version="1.0" encoding="UTF-8"?>
<svg width="273px" height="114px" viewBox="0 0 273 114" version="1.1" xmlns="http://www.w3.org/2000/svg" xmlns:xlink="http://www.w3.org/1999/xlink">
    <!-- Generator: Sketch 41.2 (35397) - http://www.bohemiancoding.com/sketch -->
    <title>Group 3</title>
    <desc>Created with Sketch.</desc>
    <defs></defs>
    <g id="ТЕСТ" stroke="none" stroke-width="1" fill="none" fill-rule="evenodd">
        <g id="НЕ-ПОЛЬЗ-ТОВАРОУЧЕТКОЙ-Copy-2" transform="translate(-23.000000, -91.000000)">
            <g id="Group-4" transform="translate(23.000000, 90.000000)">
                <g id="Group-3">
                    <g id="Page-1" transform="translate(82.000000, 0.000000)">
                        <polygon id="Fill-1" fill="#FFEB3B" points="25.2617523 0.999481818 25.2617523 13.6314591 12.629775 13.6314591 12.629775 26.2608455 0.000388636364 26.2608455 0.000388636364 38.8915273 0.000388636364 51.5235045 0.000388636364 64.1528909 0.000388636364 76.7835727 0.000388636364 89.41555 12.629775 89.41555 12.629775 102.044936 25.2617523 102.044936 25.2617523 114.2533 37.8924341 114.2533 50.5218205 114.2533 63.1537977 114.2533 75.7844795 114.2533 88.4138659 114.2533 88.4138659 102.044936 101.045843 102.044936 101.045843 89.41555 113.676525 89.41555 113.676525 26.2608455 101.045843 26.2608455 101.045843 13.6314591 88.4138659 13.6314591 88.4138659 0.999481818"></polygon>
                        <polygon id="Fill-2" fill="#E8AB00" points="63.1534091 26.2613636 75.7840909 26.2613636 75.7840909 13.6306818 63.1534091 13.6306818 50.5227273 13.6306818 37.8920455 13.6306818 37.8920455 26.2613636 50.5227273 26.2613636"></polygon>
                        <polygon id="Fill-3" fill="#E8AB00" points="75.7840909 38.8917864 88.4147727 38.8917864 88.4147727 26.2611045 75.7840909 26.2611045"></polygon>
                        <polygon id="Fill-4" fill="#E8AB00" points="25.2613636 38.8917864 37.8920455 38.8917864 37.8920455 26.2611045 25.2613636 26.2611045"></polygon>
                        <polygon id="Fill-5" fill="#E8AB00" points="25.2613636 51.5227273 25.2613636 38.8920455 12.6306818 38.8920455 12.6306818 51.5227273 12.6306818 64.1534091 12.6306818 76.7840909 25.2613636 76.7840909 25.2613636 64.1534091"></polygon>
                        <polygon id="Fill-6" fill="#E8AB00" points="88.4147727 38.8920455 88.4147727 51.5227273 88.4147727 64.1534091 88.4147727 76.7840909 101.045455 76.7840909 101.045455 64.1534091 101.045455 51.5227273 101.045455 38.8920455"></polygon>
                        <polygon id="Fill-7" fill="#E8AB00" points="75.7840909 89.4145136 88.4147727 89.4145136 88.4147727 76.7838318 75.7840909 76.7838318"></polygon>
                        <polygon id="Fill-8" fill="#E8AB00" points="25.2613636 89.4145136 37.8920455 89.4145136 37.8920455 76.7838318 25.2613636 76.7838318"></polygon>
                        <polygon id="Fill-9" fill="#E8AB00" points="50.5227273 89.4147727 37.8920455 89.4147727 37.8920455 102.045455 50.5227273 102.045455 63.1534091 102.045455 75.7840909 102.045455 75.7840909 89.4147727 63.1534091 89.4147727"></polygon>
                    </g>
                    <g id="Page-1" transform="translate(0.000000, 2.000000)">
                        <polygon id="Fill-1" fill="#FF474C" points="34.9548387 7.6 34.9548387 3.8 27.1870968 3.8 27.1870968 7.6 23.3032258 7.6 23.3032258 11.4 19.4193548 11.4 19.4193548 7.6 15.5354839 7.6 15.5354839 3.8 7.76774194 3.8 7.76774194 7.6 3.88387097 7.6 3.88387097 19 7.76774194 19 7.76774194 22.8 11.6516129 22.8 11.6516129 26.6 15.5354839 26.6 15.5354839 30.4 19.4193548 30.4 19.4193548 34.2 23.3032258 34.2 23.3032258 30.4 27.1870968 30.4 27.1870968 26.6 31.0709677 26.6 31.0709677 22.8 34.9548387 22.8 34.9548387 19 38.8387097 19 38.8387097 7.6"></polygon>
                        <polygon id="Fill-2" fill="#000000" points="0 19 3.88387097 19 3.88387097 7.60027143 0 7.60027143"></polygon>
                        <polygon id="Fill-3" fill="#000000" points="3.88387097 7.6 7.76774194 7.6 7.76774194 3.8 3.88387097 3.8"></polygon>
                        <polygon id="Fill-4" fill="#000000" points="7.76774194 3.8 15.5354839 3.8 15.5354839 0 7.76774194 0"></polygon>
                        <polygon id="Fill-5" fill="#000000" points="15.5354839 7.6 19.4193548 7.6 19.4193548 3.8 15.5354839 3.8"></polygon>
                        <polygon id="Fill-6" fill="#000000" points="19.4193548 11.4 23.3032258 11.4 23.3032258 7.6 19.4193548 7.6"></polygon>
                        <polygon id="Fill-7" fill="#000000" points="23.3032258 7.6 27.1870968 7.6 27.1870968 3.8 23.3032258 3.8"></polygon>
                        <polygon id="Fill-8" fill="#000000" points="27.1870968 3.8 34.9548387 3.8 34.9548387 0 27.1870968 0"></polygon>
                        <polygon id="Fill-9" fill="#000000" points="34.9548387 7.6 38.8387097 7.6 38.8387097 3.8 34.9548387 3.8"></polygon>
                        <polygon id="Fill-10" fill="#000000" points="38.8387097 19 42.9997226 19 42.9997226 7.60027143 38.8387097 7.60027143"></polygon>
                        <polygon id="Fill-11" fill="#000000" points="3.88387097 22.8 7.76774194 22.8 7.76774194 19 3.88387097 19"></polygon>
                        <polygon id="Fill-12" fill="#000000" points="7.76774194 26.6 11.6516129 26.6 11.6516129 22.8 7.76774194 22.8"></polygon>
                        <polygon id="Fill-13" fill="#000000" points="11.6516129 30.4 15.5354839 30.4 15.5354839 26.6 11.6516129 26.6"></polygon>
                        <polygon id="Fill-14" fill="#000000" points="15.5354839 34.2 19.4193548 34.2 19.4193548 30.4 15.5354839 30.4"></polygon>
                        <polygon id="Fill-15" fill="#000000" points="19.4193548 38 23.3029484 38 23.3029484 34.2 19.4193548 34.2"></polygon>
                        <polygon id="Fill-16" fill="#000000" points="23.3032258 34.2 27.1870968 34.2 27.1870968 30.4 23.3032258 30.4"></polygon>
                        <polygon id="Fill-17" fill="#000000" points="27.1870968 30.4 31.0709677 30.4 31.0709677 26.6 27.1870968 26.6"></polygon>
                        <polygon id="Fill-18" fill="#000000" points="31.0709677 26.6 34.9548387 26.6 34.9548387 22.8 31.0709677 22.8"></polygon>
                        <polygon id="Fill-19" fill="#000000" points="34.9548387 22.8 38.8387097 22.8 38.8387097 19 34.9548387 19"></polygon>
                        <polygon id="Fill-20" fill="#FF9194" points="7.76774194 7.6 15.5354839 7.6 15.5354839 3.8 7.76774194 3.8"></polygon>
                        <polygon id="Fill-21" fill="#FF9194" points="3.88387097 19 7.76774194 19 7.76774194 7.6 3.88387097 7.6"></polygon>
                        <polygon id="Fill-22" fill="#FF9194" points="7.76774194 22.8 11.6516129 22.8 11.6516129 19 7.76774194 19"></polygon>
                    </g>
                    <g id="Page-1" transform="translate(236.000000, 2.000000)">
                        <polygon id="Fill-1" fill="#3F3F3F" points="4.09943182 8.19877955 8.19886364 8.19877955 8.19886364 4.09934773 4.09943182 4.09934773"></polygon>
                        <polygon id="Fill-2" fill="#3F3F3F" points="28.6960227 8.19877955 32.7954545 8.19877955 32.7954545 4.09934773 28.6960227 4.09934773"></polygon>
                        <polygon id="Fill-3" fill="#3F3F3F" points="8.19898977 -0.000168181818 8.19898977 4.09968409 12.2984216 4.09968409 16.397433 4.09968409 20.4972852 4.09968409 24.596717 4.09968409 28.6957284 4.09968409 28.6957284 -0.000168181818"></polygon>
                        <polygon id="Fill-4" fill="#3F3F3F" points="24.5965909 32.6584284 20.4971591 32.6584284 16.3977273 32.6584284 12.2982955 32.6584284 8.19886364 32.6584284 8.19886364 36.7578602 12.2982955 36.7578602 16.3977273 36.7578602 20.4971591 36.7578602 24.5965909 36.7578602 28.6960227 36.7578602 28.6960227 32.6584284"></polygon>
                        <polygon id="Fill-5" fill="#3F3F3F" points="0 8.19882159 0 12.2982534 0 16.3976852 0 20.497117 0 24.5965489 0 28.6959807 4.09943182 28.6959807 4.09943182 24.5965489 4.09943182 20.497117 4.09943182 16.3976852 4.09943182 12.2982534 4.09943182 8.19882159"></polygon>
                        <polygon id="Fill-6" fill="#3F3F3F" points="32.7955807 8.19882159 32.7955807 12.2982534 32.7955807 16.3976852 32.7955807 20.497117 32.7955807 24.5965489 32.7955807 28.6959807 36.8950125 28.6959807 36.8950125 8.19882159"></polygon>
                        <polygon id="Fill-7" fill="#FFFFFF" points="28.6960227 8.19886364 28.6960227 4.09943182 24.5965909 4.09943182 20.4971591 4.09943182 16.3977273 4.09943182 12.2982955 4.09943182 8.19886364 4.09943182 8.19886364 8.19886364 4.09943182 8.19886364 4.09943182 12.2982955 4.09943182 16.3977273 4.09943182 20.4971591 4.09943182 24.5965909 4.09943182 28.6960227 8.19886364 28.6960227 8.19886364 32.7954545 12.2982955 32.7954545 16.3977273 32.7954545 20.4971591 32.7954545 24.5965909 32.7954545 28.6960227 32.7954545 28.6960227 28.6960227 32.7954545 28.6960227 32.7954545 24.5965909 32.7954545 20.4971591 32.7954545 16.3977273 32.7954545 12.2982955 32.7954545 8.19886364"></polygon>
                        <polygon id="Fill-8" fill="#3F3F3F" points="4.09943182 32.7953705 8.19886364 32.7953705 8.19886364 28.6959386 4.09943182 28.6959386"></polygon>
                        <polygon id="Fill-9" fill="#3F3F3F" points="28.6960227 32.7953705 32.7954545 32.7953705 32.7954545 28.6959386 28.6960227 28.6959386"></polygon>
                        <polygon id="Fill-10" fill="#3F3F3F" points="20.4971591 16.3977273 20.4971591 12.2982955 20.4971591 8.19886364 16.3977273 8.19886364 16.3977273 12.2982955 16.3977273 16.3977273 16.3977273 20.4971591 20.4971591 20.4971591 24.5965909 20.4971591 24.5965909 16.3977273"></polygon>
                        <polygon id="Fill-11" fill="#CECECE" points="24.5965909 4.09943182 20.4971591 4.09943182 16.3977273 4.09943182 12.2982955 4.09943182 8.19886364 4.09943182 8.19886364 8.19886364 12.2982955 8.19886364 16.3977273 8.19886364 20.4971591 8.19886364 24.5965909 8.19886364 28.6960227 8.19886364 28.6960227 4.09943182"></polygon>
                        <polygon id="Fill-12" fill="#CECECE" points="4.09943182 12.2982114 8.19886364 12.2982114 8.19886364 8.19877955 4.09943182 8.19877955"></polygon>
                        <polygon id="Fill-13" fill="#CECECE" points="28.6960227 12.2982114 32.7954545 12.2982114 32.7954545 8.19877955 28.6960227 8.19877955"></polygon>
                    </g>
                </g>
            </g>
        </g>
    </g>
</svg>