<?xml version="1.0" encoding="utf-8"?>
<!-- Generator: Adobe Illustrator 21.0.0, SVG Export Plug-In . SVG Version: 6.00 Build 0)  -->
<svg version="1.1" id="Слой_1" xmlns="http://www.w3.org/2000/svg" xmlns:xlink="http://www.w3.org/1999/xlink" x="0px" y="0px"
	 viewBox="0 0 38.2 38.2" style="enable-background:new 0 0 38.2 38.2;" xml:space="preserve">
<style type="text/css">
	.st0{fill:#EB722E;}
	.st1{fill:none;stroke:#EB722E;stroke-miterlimit:10;}
</style>
<g>
	<path class="st0" d="M18.6,12.4c1.1,0,1.9,0.9,1.9,1.9s-0.9,1.9-1.9,1.9s-1.9-0.9-1.9-1.9S17.5,12.4,18.6,12.4L18.6,12.4z M18.6,19
		c2.6,0,4.7-2.1,4.7-4.7s-2.1-4.7-4.7-4.7c-2.6,0-4.7,2.1-4.7,4.7S16,19,18.6,19 M20.4,22.8c1-0.2,1.9-0.6,2.7-1.1
		c0.6-0.4,0.8-1.2,0.4-1.9c-0.4-0.6-1.2-0.8-1.9-0.4l0,0c-1.9,1.2-4.4,1.2-6.3,0c-0.6-0.4-1.5-0.2-1.9,0.4c0,0,0,0,0,0
		c-0.4,0.6-0.2,1.5,0.4,1.9c0.8,0.5,1.8,0.9,2.7,1.1L14,25.4c-0.5,0.5-0.5,1.4,0,1.9c0.5,0.5,1.4,0.5,1.9,0l0,0l2.6-2.6l2.6,2.6
		c0.5,0.5,1.4,0.5,1.9,0l0,0c0.5-0.5,0.5-1.4,0-1.9c0,0,0,0,0,0L20.4,22.8"/>
	<circle class="st1" cx="18.6" cy="18.7" r="16.1"/>
</g>
</svg>
