<?xml version="1.0" encoding="utf-8"?>
<svg  fill="#ED721F" version="1.1" id="Слой_1" xmlns="http://www.w3.org/2000/svg" xmlns:xlink="http://www.w3.org/1999/xlink" x="0px" y="0px"
   viewBox="0 0 33.3 33.3" style="enable-background:new 0 0 33.3 33.3;" xml:space="preserve">
<style type="text/css">
  .st0{fill:none;stroke:#ED721F;stroke-miterlimit:10;}
</style>
<path fill="#ED721F" d="M16.6,10.3c1.1,0,1.9,0.9,1.9,1.9s-0.9,1.9-1.9,1.9s-1.9-0.9-1.9-1.9S15.5,10.3,16.6,10.3L16.6,10.3z M16.6,16.9
  c2.6,0,4.7-2.1,4.7-4.7s-2.1-4.7-4.7-4.7s-4.7,2.1-4.7,4.7S14,16.9,16.6,16.9 M18.4,20.7c1-0.2,1.9-0.6,2.7-1.1
  c0.6-0.4,0.8-1.2,0.4-1.9c-0.4-0.6-1.2-0.8-1.9-0.4l0,0c-1.9,1.2-4.4,1.2-6.3,0c-0.6-0.4-1.5-0.2-1.9,0.4l0,0
  c-0.4,0.6-0.2,1.5,0.4,1.9c0.8,0.5,1.8,0.9,2.7,1.1L12,23.3c-0.5,0.5-0.5,1.4,0,1.9s1.4,0.5,1.9,0l0,0l2.6-2.6l2.6,2.6
  c0.5,0.5,1.4,0.5,1.9,0l0,0c0.5-0.5,0.5-1.4,0-1.9l0,0L18.4,20.7"/>
<circle fill="#ED721F" class="st0" cx="16.6" cy="16.6" r="16.1"/>
</svg>