<?xml version="1.0" encoding="utf-8"?>
<svg class="dk-footer__social-icon" xmlns="http://www.w3.org/2000/svg" viewBox="0 0 32 32" enable-background="new 0 0 32 32"><path d="m16.5 21.8c0 0 .3 0 .5-.2s.2-.5.2-.5 0-1.5.7-1.7 1.6 1.4 2.5 2c.7.5 1.2.4 1.2.4h2.5c0 0 1.3-.1.7-1.1-.1-.1-.4-.7-1.9-2.1-1.6-1.4-1.4-1.2.5-3.7 1.2-1.5 1.6-2.4 1.5-2.8s-1-.3-1-.3h-2.8c0 0-.2 0-.4.1-.2.1-.2.3-.2.3s-.4 1.2-1 2.1c-1.3 2.1-1.8 2.2-2 2.1-.5-.3-.4-1.2-.4-1.9 0-2 .3-2.9-.6-3.1-.3-.1-.5-.1-1.3-.1-1 0-1.9 0-2.3.2-.3.2-.6.5-.4.5.2 0 .6.1.8.4.3.4.3 1.2.3 1.2s.2 2.4-.4 2.7c-.4.2-.9-.2-2-2.1-.6-1-1-2-1-2s-.1 0-.2-.2c-.2-.1-.4-.2-.4-.2h-2.7c0 0-.4 0-.5.2s0 .5 0 .5 2.1 4.8 4.5 7.2c2.2 2.2 4.6 2.1 4.6 2.1s1 0 1 0"></path><path d="m16 1c8.3 0 15 6.7 15 15s-6.7 15-15 15-15-6.7-15-15 6.7-15 15-15m0-1c-8.8 0-16 7.2-16 16s7.2 16 16 16 16-7.2 16-16-7.2-16-16-16z"></path></svg>